<mxfile host="app.diagrams.net" agent="Mozilla/5.0 (Macintosh; Intel Mac OS X 10_15_7) AppleWebKit/605.1.15 (KHTML, like Gecko) Version/18.3 Safari/605.1.15" version="26.2.13">
  <diagram id="R2lEEEUBdFMjLlhIrx00" name="Page-1">
    <mxGraphModel dx="4920" dy="1630" grid="1" gridSize="10" guides="1" tooltips="1" connect="1" arrows="1" fold="1" page="1" pageScale="1" pageWidth="850" pageHeight="1100" math="0" shadow="0" extFonts="Permanent Marker^https://fonts.googleapis.com/css?family=Permanent+Marker">
      <root>
        <mxCell id="0" />
        <mxCell id="1" parent="0" />
        <mxCell id="xhAYmVNYJpzxV0qlQMDx-1" value="accounts_profile" style="shape=table;startSize=30;container=1;collapsible=1;childLayout=tableLayout;fixedRows=1;rowLines=0;fontStyle=1;align=center;resizeLast=1;fillColor=#d5e8d4;strokeColor=#82b366;" vertex="1" parent="1">
          <mxGeometry x="-2145" y="120" width="300" height="250" as="geometry" />
        </mxCell>
        <mxCell id="xhAYmVNYJpzxV0qlQMDx-2" value="" style="shape=tableRow;horizontal=0;startSize=0;swimlaneHead=0;swimlaneBody=0;fillColor=none;collapsible=0;dropTarget=0;points=[[0,0.5],[1,0.5]];portConstraint=eastwest;strokeColor=inherit;top=0;left=0;right=0;bottom=1;" vertex="1" parent="xhAYmVNYJpzxV0qlQMDx-1">
          <mxGeometry y="30" width="300" height="30" as="geometry" />
        </mxCell>
        <mxCell id="xhAYmVNYJpzxV0qlQMDx-3" value="PK" style="shape=partialRectangle;overflow=hidden;connectable=0;fillColor=#fff2cc;strokeColor=#d6b656;top=0;left=0;bottom=0;right=0;fontStyle=1;" vertex="1" parent="xhAYmVNYJpzxV0qlQMDx-2">
          <mxGeometry width="30" height="30" as="geometry">
            <mxRectangle width="30" height="30" as="alternateBounds" />
          </mxGeometry>
        </mxCell>
        <mxCell id="xhAYmVNYJpzxV0qlQMDx-4" value="id bigint NOT NULL AUTO_INCREMENT" style="shape=partialRectangle;overflow=hidden;connectable=0;fillColor=#fff2cc;align=left;strokeColor=#d6b656;top=0;left=0;bottom=0;right=0;spacingLeft=6;fontStyle=1;" vertex="1" parent="xhAYmVNYJpzxV0qlQMDx-2">
          <mxGeometry x="30" width="270" height="30" as="geometry">
            <mxRectangle width="270" height="30" as="alternateBounds" />
          </mxGeometry>
        </mxCell>
        <mxCell id="xhAYmVNYJpzxV0qlQMDx-5" value="" style="shape=tableRow;horizontal=0;startSize=0;swimlaneHead=0;swimlaneBody=0;fillColor=none;collapsible=0;dropTarget=0;points=[[0,0.5],[1,0.5]];portConstraint=eastwest;strokeColor=inherit;top=0;left=0;right=0;bottom=0;" vertex="1" parent="xhAYmVNYJpzxV0qlQMDx-1">
          <mxGeometry y="60" width="300" height="20" as="geometry" />
        </mxCell>
        <mxCell id="xhAYmVNYJpzxV0qlQMDx-6" value="" style="shape=partialRectangle;overflow=hidden;connectable=0;fillColor=#dae8fc;strokeColor=#6c8ebf;top=0;left=0;bottom=0;right=0;" vertex="1" parent="xhAYmVNYJpzxV0qlQMDx-5">
          <mxGeometry width="30" height="20" as="geometry">
            <mxRectangle width="30" height="20" as="alternateBounds" />
          </mxGeometry>
        </mxCell>
        <mxCell id="xhAYmVNYJpzxV0qlQMDx-7" value="profile_picture varchar(100) NOT NULL" style="shape=partialRectangle;overflow=hidden;connectable=0;fillColor=#dae8fc;align=left;strokeColor=#6c8ebf;top=0;left=0;bottom=0;right=0;spacingLeft=6;fontStyle=1" vertex="1" parent="xhAYmVNYJpzxV0qlQMDx-5">
          <mxGeometry x="30" width="270" height="20" as="geometry">
            <mxRectangle width="270" height="20" as="alternateBounds" />
          </mxGeometry>
        </mxCell>
        <mxCell id="xhAYmVNYJpzxV0qlQMDx-8" value="" style="shape=tableRow;horizontal=0;startSize=0;swimlaneHead=0;swimlaneBody=0;fillColor=none;collapsible=0;dropTarget=0;points=[[0,0.5],[1,0.5]];portConstraint=eastwest;strokeColor=inherit;top=0;left=0;right=0;bottom=0;" vertex="1" parent="xhAYmVNYJpzxV0qlQMDx-1">
          <mxGeometry y="80" width="300" height="30" as="geometry" />
        </mxCell>
        <mxCell id="xhAYmVNYJpzxV0qlQMDx-9" value="" style="shape=partialRectangle;overflow=hidden;connectable=0;fillColor=#dae8fc;strokeColor=#6c8ebf;top=0;left=0;bottom=0;right=0;" vertex="1" parent="xhAYmVNYJpzxV0qlQMDx-8">
          <mxGeometry width="30" height="30" as="geometry">
            <mxRectangle width="30" height="30" as="alternateBounds" />
          </mxGeometry>
        </mxCell>
        <mxCell id="xhAYmVNYJpzxV0qlQMDx-10" value="contact_ number varchar (15) DEFAULT NULL" style="shape=partialRectangle;overflow=hidden;connectable=0;fillColor=#dae8fc;align=left;strokeColor=#6c8ebf;top=0;left=0;bottom=0;right=0;spacingLeft=6;fontStyle=1" vertex="1" parent="xhAYmVNYJpzxV0qlQMDx-8">
          <mxGeometry x="30" width="270" height="30" as="geometry">
            <mxRectangle width="270" height="30" as="alternateBounds" />
          </mxGeometry>
        </mxCell>
        <mxCell id="xhAYmVNYJpzxV0qlQMDx-11" value="" style="shape=tableRow;horizontal=0;startSize=0;swimlaneHead=0;swimlaneBody=0;fillColor=none;collapsible=0;dropTarget=0;points=[[0,0.5],[1,0.5]];portConstraint=eastwest;strokeColor=inherit;top=0;left=0;right=0;bottom=0;" vertex="1" parent="xhAYmVNYJpzxV0qlQMDx-1">
          <mxGeometry y="110" width="300" height="30" as="geometry" />
        </mxCell>
        <mxCell id="xhAYmVNYJpzxV0qlQMDx-12" value="" style="shape=partialRectangle;overflow=hidden;connectable=0;fillColor=#dae8fc;strokeColor=#6c8ebf;top=0;left=0;bottom=0;right=0;" vertex="1" parent="xhAYmVNYJpzxV0qlQMDx-11">
          <mxGeometry width="30" height="30" as="geometry">
            <mxRectangle width="30" height="30" as="alternateBounds" />
          </mxGeometry>
        </mxCell>
        <mxCell id="xhAYmVNYJpzxV0qlQMDx-13" value="is_verified tinyint(1) NOT NULL" style="shape=partialRectangle;overflow=hidden;connectable=0;fillColor=#dae8fc;align=left;strokeColor=#6c8ebf;top=0;left=0;bottom=0;right=0;spacingLeft=6;fontStyle=1" vertex="1" parent="xhAYmVNYJpzxV0qlQMDx-11">
          <mxGeometry x="30" width="270" height="30" as="geometry">
            <mxRectangle width="270" height="30" as="alternateBounds" />
          </mxGeometry>
        </mxCell>
        <mxCell id="xhAYmVNYJpzxV0qlQMDx-14" value="" style="shape=tableRow;horizontal=0;startSize=0;swimlaneHead=0;swimlaneBody=0;fillColor=none;collapsible=0;dropTarget=0;points=[[0,0.5],[1,0.5]];portConstraint=eastwest;strokeColor=inherit;top=0;left=0;right=0;bottom=0;" vertex="1" parent="xhAYmVNYJpzxV0qlQMDx-1">
          <mxGeometry y="140" width="300" height="30" as="geometry" />
        </mxCell>
        <mxCell id="xhAYmVNYJpzxV0qlQMDx-15" value="FK" style="shape=partialRectangle;overflow=hidden;connectable=0;fillColor=#dae8fc;strokeColor=#6c8ebf;top=0;left=0;bottom=0;right=0;fontStyle=1" vertex="1" parent="xhAYmVNYJpzxV0qlQMDx-14">
          <mxGeometry width="30" height="30" as="geometry">
            <mxRectangle width="30" height="30" as="alternateBounds" />
          </mxGeometry>
        </mxCell>
        <mxCell id="xhAYmVNYJpzxV0qlQMDx-16" value="user_id int NOT NULL Unique" style="shape=partialRectangle;overflow=hidden;connectable=0;fillColor=#dae8fc;align=left;strokeColor=#6c8ebf;top=0;left=0;bottom=0;right=0;spacingLeft=6;fontStyle=1" vertex="1" parent="xhAYmVNYJpzxV0qlQMDx-14">
          <mxGeometry x="30" width="270" height="30" as="geometry">
            <mxRectangle width="270" height="30" as="alternateBounds" />
          </mxGeometry>
        </mxCell>
        <mxCell id="xhAYmVNYJpzxV0qlQMDx-17" value="" style="shape=tableRow;horizontal=0;startSize=0;swimlaneHead=0;swimlaneBody=0;fillColor=none;collapsible=0;dropTarget=0;points=[[0,0.5],[1,0.5]];portConstraint=eastwest;strokeColor=inherit;top=0;left=0;right=0;bottom=0;" vertex="1" parent="xhAYmVNYJpzxV0qlQMDx-1">
          <mxGeometry y="170" width="300" height="30" as="geometry" />
        </mxCell>
        <mxCell id="xhAYmVNYJpzxV0qlQMDx-18" value="" style="shape=partialRectangle;overflow=hidden;connectable=0;fillColor=#dae8fc;strokeColor=#6c8ebf;top=0;left=0;bottom=0;right=0;" vertex="1" parent="xhAYmVNYJpzxV0qlQMDx-17">
          <mxGeometry width="30" height="30" as="geometry">
            <mxRectangle width="30" height="30" as="alternateBounds" />
          </mxGeometry>
        </mxCell>
        <mxCell id="xhAYmVNYJpzxV0qlQMDx-19" value="email _token char(32) NOT NULL" style="shape=partialRectangle;overflow=hidden;connectable=0;fillColor=#dae8fc;align=left;strokeColor=#6c8ebf;top=0;left=0;bottom=0;right=0;spacingLeft=6;fontStyle=1" vertex="1" parent="xhAYmVNYJpzxV0qlQMDx-17">
          <mxGeometry x="30" width="270" height="30" as="geometry">
            <mxRectangle width="270" height="30" as="alternateBounds" />
          </mxGeometry>
        </mxCell>
        <mxCell id="xhAYmVNYJpzxV0qlQMDx-20" value="" style="shape=tableRow;horizontal=0;startSize=0;swimlaneHead=0;swimlaneBody=0;fillColor=none;collapsible=0;dropTarget=0;points=[[0,0.5],[1,0.5]];portConstraint=eastwest;strokeColor=inherit;top=0;left=0;right=0;bottom=0;" vertex="1" parent="xhAYmVNYJpzxV0qlQMDx-1">
          <mxGeometry y="200" width="300" height="20" as="geometry" />
        </mxCell>
        <mxCell id="xhAYmVNYJpzxV0qlQMDx-21" value="" style="shape=partialRectangle;overflow=hidden;connectable=0;fillColor=#dae8fc;strokeColor=#6c8ebf;top=0;left=0;bottom=0;right=0;" vertex="1" parent="xhAYmVNYJpzxV0qlQMDx-20">
          <mxGeometry width="30" height="20" as="geometry">
            <mxRectangle width="30" height="20" as="alternateBounds" />
          </mxGeometry>
        </mxCell>
        <mxCell id="xhAYmVNYJpzxV0qlQMDx-22" value="" style="shape=partialRectangle;overflow=hidden;connectable=0;fillColor=#dae8fc;align=left;strokeColor=#6c8ebf;top=0;left=0;bottom=0;right=0;spacingLeft=6;" vertex="1" parent="xhAYmVNYJpzxV0qlQMDx-20">
          <mxGeometry x="30" width="270" height="20" as="geometry">
            <mxRectangle width="270" height="20" as="alternateBounds" />
          </mxGeometry>
        </mxCell>
        <mxCell id="xhAYmVNYJpzxV0qlQMDx-23" value="" style="shape=tableRow;horizontal=0;startSize=0;swimlaneHead=0;swimlaneBody=0;fillColor=none;collapsible=0;dropTarget=0;points=[[0,0.5],[1,0.5]];portConstraint=eastwest;strokeColor=inherit;top=0;left=0;right=0;bottom=0;" vertex="1" parent="xhAYmVNYJpzxV0qlQMDx-1">
          <mxGeometry y="220" width="300" height="30" as="geometry" />
        </mxCell>
        <mxCell id="xhAYmVNYJpzxV0qlQMDx-24" value="" style="shape=partialRectangle;overflow=hidden;connectable=0;fillColor=#dae8fc;strokeColor=#6c8ebf;top=0;left=0;bottom=0;right=0;" vertex="1" parent="xhAYmVNYJpzxV0qlQMDx-23">
          <mxGeometry width="30" height="30" as="geometry">
            <mxRectangle width="30" height="30" as="alternateBounds" />
          </mxGeometry>
        </mxCell>
        <mxCell id="xhAYmVNYJpzxV0qlQMDx-25" value="" style="shape=partialRectangle;overflow=hidden;connectable=0;fillColor=#dae8fc;align=left;strokeColor=#6c8ebf;top=0;left=0;bottom=0;right=0;spacingLeft=6;" vertex="1" parent="xhAYmVNYJpzxV0qlQMDx-23">
          <mxGeometry x="30" width="270" height="30" as="geometry">
            <mxRectangle width="270" height="30" as="alternateBounds" />
          </mxGeometry>
        </mxCell>
        <mxCell id="xhAYmVNYJpzxV0qlQMDx-26" value="asl_aslprediction" style="shape=table;startSize=30;container=1;collapsible=1;childLayout=tableLayout;fixedRows=1;rowLines=0;fontStyle=1;align=center;resizeLast=1;fillColor=#d5e8d4;strokeColor=#82b366;" vertex="1" parent="1">
          <mxGeometry x="-1780" y="130" width="280" height="390" as="geometry" />
        </mxCell>
        <mxCell id="xhAYmVNYJpzxV0qlQMDx-27" value="" style="shape=tableRow;horizontal=0;startSize=0;swimlaneHead=0;swimlaneBody=0;fillColor=none;collapsible=0;dropTarget=0;points=[[0,0.5],[1,0.5]];portConstraint=eastwest;strokeColor=inherit;top=0;left=0;right=0;bottom=1;" vertex="1" parent="xhAYmVNYJpzxV0qlQMDx-26">
          <mxGeometry y="30" width="280" height="30" as="geometry" />
        </mxCell>
        <mxCell id="xhAYmVNYJpzxV0qlQMDx-28" value="PK" style="shape=partialRectangle;overflow=hidden;connectable=0;fillColor=#fff2cc;strokeColor=#d6b656;top=0;left=0;bottom=0;right=0;fontStyle=1;" vertex="1" parent="xhAYmVNYJpzxV0qlQMDx-27">
          <mxGeometry width="30" height="30" as="geometry">
            <mxRectangle width="30" height="30" as="alternateBounds" />
          </mxGeometry>
        </mxCell>
        <mxCell id="xhAYmVNYJpzxV0qlQMDx-29" value="id bigint NOT NULL AUTO_INCREMENT" style="shape=partialRectangle;overflow=hidden;connectable=0;fillColor=#fff2cc;align=left;strokeColor=#d6b656;top=0;left=0;bottom=0;right=0;spacingLeft=6;fontStyle=1;" vertex="1" parent="xhAYmVNYJpzxV0qlQMDx-27">
          <mxGeometry x="30" width="250" height="30" as="geometry">
            <mxRectangle width="250" height="30" as="alternateBounds" />
          </mxGeometry>
        </mxCell>
        <mxCell id="xhAYmVNYJpzxV0qlQMDx-30" value="" style="shape=tableRow;horizontal=0;startSize=0;swimlaneHead=0;swimlaneBody=0;fillColor=none;collapsible=0;dropTarget=0;points=[[0,0.5],[1,0.5]];portConstraint=eastwest;strokeColor=inherit;top=0;left=0;right=0;bottom=0;" vertex="1" parent="xhAYmVNYJpzxV0qlQMDx-26">
          <mxGeometry y="60" width="280" height="30" as="geometry" />
        </mxCell>
        <mxCell id="xhAYmVNYJpzxV0qlQMDx-31" value="" style="shape=partialRectangle;overflow=hidden;connectable=0;fillColor=#dae8fc;strokeColor=#6c8ebf;top=0;left=0;bottom=0;right=0;" vertex="1" parent="xhAYmVNYJpzxV0qlQMDx-30">
          <mxGeometry width="30" height="30" as="geometry">
            <mxRectangle width="30" height="30" as="alternateBounds" />
          </mxGeometry>
        </mxCell>
        <mxCell id="xhAYmVNYJpzxV0qlQMDx-32" value="input_sequence json NOT NULL" style="shape=partialRectangle;overflow=hidden;connectable=0;fillColor=#dae8fc;align=left;strokeColor=#6c8ebf;top=0;left=0;bottom=0;right=0;spacingLeft=6;fontStyle=1" vertex="1" parent="xhAYmVNYJpzxV0qlQMDx-30">
          <mxGeometry x="30" width="250" height="30" as="geometry">
            <mxRectangle width="250" height="30" as="alternateBounds" />
          </mxGeometry>
        </mxCell>
        <mxCell id="xhAYmVNYJpzxV0qlQMDx-33" value="" style="shape=tableRow;horizontal=0;startSize=0;swimlaneHead=0;swimlaneBody=0;fillColor=none;collapsible=0;dropTarget=0;points=[[0,0.5],[1,0.5]];portConstraint=eastwest;strokeColor=inherit;top=0;left=0;right=0;bottom=0;" vertex="1" parent="xhAYmVNYJpzxV0qlQMDx-26">
          <mxGeometry y="90" width="280" height="30" as="geometry" />
        </mxCell>
        <mxCell id="xhAYmVNYJpzxV0qlQMDx-34" value="" style="shape=partialRectangle;overflow=hidden;connectable=0;fillColor=#dae8fc;strokeColor=#6c8ebf;top=0;left=0;bottom=0;right=0;" vertex="1" parent="xhAYmVNYJpzxV0qlQMDx-33">
          <mxGeometry width="30" height="30" as="geometry">
            <mxRectangle width="30" height="30" as="alternateBounds" />
          </mxGeometry>
        </mxCell>
        <mxCell id="xhAYmVNYJpzxV0qlQMDx-35" value="top1_label varchar(20) NOT NULL" style="shape=partialRectangle;overflow=hidden;connectable=0;fillColor=#dae8fc;align=left;strokeColor=#6c8ebf;top=0;left=0;bottom=0;right=0;spacingLeft=6;fontStyle=1" vertex="1" parent="xhAYmVNYJpzxV0qlQMDx-33">
          <mxGeometry x="30" width="250" height="30" as="geometry">
            <mxRectangle width="250" height="30" as="alternateBounds" />
          </mxGeometry>
        </mxCell>
        <mxCell id="xhAYmVNYJpzxV0qlQMDx-36" value="" style="shape=tableRow;horizontal=0;startSize=0;swimlaneHead=0;swimlaneBody=0;fillColor=none;collapsible=0;dropTarget=0;points=[[0,0.5],[1,0.5]];portConstraint=eastwest;strokeColor=inherit;top=0;left=0;right=0;bottom=0;" vertex="1" parent="xhAYmVNYJpzxV0qlQMDx-26">
          <mxGeometry y="120" width="280" height="30" as="geometry" />
        </mxCell>
        <mxCell id="xhAYmVNYJpzxV0qlQMDx-37" value="" style="shape=partialRectangle;overflow=hidden;connectable=0;fillColor=#dae8fc;strokeColor=#6c8ebf;top=0;left=0;bottom=0;right=0;" vertex="1" parent="xhAYmVNYJpzxV0qlQMDx-36">
          <mxGeometry width="30" height="30" as="geometry">
            <mxRectangle width="30" height="30" as="alternateBounds" />
          </mxGeometry>
        </mxCell>
        <mxCell id="xhAYmVNYJpzxV0qlQMDx-38" value="top1_confidence double NOT NULL" style="shape=partialRectangle;overflow=hidden;connectable=0;fillColor=#dae8fc;align=left;strokeColor=#6c8ebf;top=0;left=0;bottom=0;right=0;spacingLeft=6;fontStyle=1" vertex="1" parent="xhAYmVNYJpzxV0qlQMDx-36">
          <mxGeometry x="30" width="250" height="30" as="geometry">
            <mxRectangle width="250" height="30" as="alternateBounds" />
          </mxGeometry>
        </mxCell>
        <mxCell id="xhAYmVNYJpzxV0qlQMDx-39" value="" style="shape=tableRow;horizontal=0;startSize=0;swimlaneHead=0;swimlaneBody=0;fillColor=none;collapsible=0;dropTarget=0;points=[[0,0.5],[1,0.5]];portConstraint=eastwest;strokeColor=inherit;top=0;left=0;right=0;bottom=0;" vertex="1" parent="xhAYmVNYJpzxV0qlQMDx-26">
          <mxGeometry y="150" width="280" height="30" as="geometry" />
        </mxCell>
        <mxCell id="xhAYmVNYJpzxV0qlQMDx-40" value="" style="shape=partialRectangle;overflow=hidden;connectable=0;fillColor=#dae8fc;strokeColor=#6c8ebf;top=0;left=0;bottom=0;right=0;" vertex="1" parent="xhAYmVNYJpzxV0qlQMDx-39">
          <mxGeometry width="30" height="30" as="geometry">
            <mxRectangle width="30" height="30" as="alternateBounds" />
          </mxGeometry>
        </mxCell>
        <mxCell id="xhAYmVNYJpzxV0qlQMDx-41" value="top2 label varchar(20) NOT NULL" style="shape=partialRectangle;overflow=hidden;connectable=0;fillColor=#dae8fc;align=left;strokeColor=#6c8ebf;top=0;left=0;bottom=0;right=0;spacingLeft=6;fontStyle=1" vertex="1" parent="xhAYmVNYJpzxV0qlQMDx-39">
          <mxGeometry x="30" width="250" height="30" as="geometry">
            <mxRectangle width="250" height="30" as="alternateBounds" />
          </mxGeometry>
        </mxCell>
        <mxCell id="xhAYmVNYJpzxV0qlQMDx-42" value="" style="shape=tableRow;horizontal=0;startSize=0;swimlaneHead=0;swimlaneBody=0;fillColor=none;collapsible=0;dropTarget=0;points=[[0,0.5],[1,0.5]];portConstraint=eastwest;strokeColor=inherit;top=0;left=0;right=0;bottom=0;" vertex="1" parent="xhAYmVNYJpzxV0qlQMDx-26">
          <mxGeometry y="180" width="280" height="30" as="geometry" />
        </mxCell>
        <mxCell id="xhAYmVNYJpzxV0qlQMDx-43" value="" style="shape=partialRectangle;overflow=hidden;connectable=0;fillColor=#dae8fc;strokeColor=#6c8ebf;top=0;left=0;bottom=0;right=0;" vertex="1" parent="xhAYmVNYJpzxV0qlQMDx-42">
          <mxGeometry width="30" height="30" as="geometry">
            <mxRectangle width="30" height="30" as="alternateBounds" />
          </mxGeometry>
        </mxCell>
        <mxCell id="xhAYmVNYJpzxV0qlQMDx-44" value="top2_confidence double NOT NULL" style="shape=partialRectangle;overflow=hidden;connectable=0;fillColor=#dae8fc;align=left;strokeColor=#6c8ebf;top=0;left=0;bottom=0;right=0;spacingLeft=6;fontStyle=1" vertex="1" parent="xhAYmVNYJpzxV0qlQMDx-42">
          <mxGeometry x="30" width="250" height="30" as="geometry">
            <mxRectangle width="250" height="30" as="alternateBounds" />
          </mxGeometry>
        </mxCell>
        <mxCell id="xhAYmVNYJpzxV0qlQMDx-45" value="" style="shape=tableRow;horizontal=0;startSize=0;swimlaneHead=0;swimlaneBody=0;fillColor=none;collapsible=0;dropTarget=0;points=[[0,0.5],[1,0.5]];portConstraint=eastwest;strokeColor=inherit;top=0;left=0;right=0;bottom=0;" vertex="1" parent="xhAYmVNYJpzxV0qlQMDx-26">
          <mxGeometry y="210" width="280" height="30" as="geometry" />
        </mxCell>
        <mxCell id="xhAYmVNYJpzxV0qlQMDx-46" value="" style="shape=partialRectangle;overflow=hidden;connectable=0;fillColor=#dae8fc;strokeColor=#6c8ebf;top=0;left=0;bottom=0;right=0;" vertex="1" parent="xhAYmVNYJpzxV0qlQMDx-45">
          <mxGeometry width="30" height="30" as="geometry">
            <mxRectangle width="30" height="30" as="alternateBounds" />
          </mxGeometry>
        </mxCell>
        <mxCell id="xhAYmVNYJpzxV0qlQMDx-47" value="top3_label varchar(20) NOT NULL" style="shape=partialRectangle;overflow=hidden;connectable=0;fillColor=#dae8fc;align=left;strokeColor=#6c8ebf;top=0;left=0;bottom=0;right=0;spacingLeft=6;fontStyle=1" vertex="1" parent="xhAYmVNYJpzxV0qlQMDx-45">
          <mxGeometry x="30" width="250" height="30" as="geometry">
            <mxRectangle width="250" height="30" as="alternateBounds" />
          </mxGeometry>
        </mxCell>
        <mxCell id="xhAYmVNYJpzxV0qlQMDx-48" value="" style="shape=tableRow;horizontal=0;startSize=0;swimlaneHead=0;swimlaneBody=0;fillColor=none;collapsible=0;dropTarget=0;points=[[0,0.5],[1,0.5]];portConstraint=eastwest;strokeColor=inherit;top=0;left=0;right=0;bottom=0;" vertex="1" parent="xhAYmVNYJpzxV0qlQMDx-26">
          <mxGeometry y="240" width="280" height="30" as="geometry" />
        </mxCell>
        <mxCell id="xhAYmVNYJpzxV0qlQMDx-49" value="" style="shape=partialRectangle;overflow=hidden;connectable=0;fillColor=#dae8fc;strokeColor=#6c8ebf;top=0;left=0;bottom=0;right=0;" vertex="1" parent="xhAYmVNYJpzxV0qlQMDx-48">
          <mxGeometry width="30" height="30" as="geometry">
            <mxRectangle width="30" height="30" as="alternateBounds" />
          </mxGeometry>
        </mxCell>
        <mxCell id="xhAYmVNYJpzxV0qlQMDx-50" value="top3_confidence double NOT NULL" style="shape=partialRectangle;overflow=hidden;connectable=0;fillColor=#dae8fc;align=left;strokeColor=#6c8ebf;top=0;left=0;bottom=0;right=0;spacingLeft=6;fontStyle=1" vertex="1" parent="xhAYmVNYJpzxV0qlQMDx-48">
          <mxGeometry x="30" width="250" height="30" as="geometry">
            <mxRectangle width="250" height="30" as="alternateBounds" />
          </mxGeometry>
        </mxCell>
        <mxCell id="xhAYmVNYJpzxV0qlQMDx-51" value="" style="shape=tableRow;horizontal=0;startSize=0;swimlaneHead=0;swimlaneBody=0;fillColor=none;collapsible=0;dropTarget=0;points=[[0,0.5],[1,0.5]];portConstraint=eastwest;strokeColor=inherit;top=0;left=0;right=0;bottom=0;" vertex="1" parent="xhAYmVNYJpzxV0qlQMDx-26">
          <mxGeometry y="270" width="280" height="30" as="geometry" />
        </mxCell>
        <mxCell id="xhAYmVNYJpzxV0qlQMDx-52" value="" style="shape=partialRectangle;overflow=hidden;connectable=0;fillColor=#dae8fc;strokeColor=#6c8ebf;top=0;left=0;bottom=0;right=0;" vertex="1" parent="xhAYmVNYJpzxV0qlQMDx-51">
          <mxGeometry width="30" height="30" as="geometry">
            <mxRectangle width="30" height="30" as="alternateBounds" />
          </mxGeometry>
        </mxCell>
        <mxCell id="xhAYmVNYJpzxV0qlQMDx-53" value="created at datetime(6) NOT NULL" style="shape=partialRectangle;overflow=hidden;connectable=0;fillColor=#dae8fc;align=left;strokeColor=#6c8ebf;top=0;left=0;bottom=0;right=0;spacingLeft=6;fontStyle=1" vertex="1" parent="xhAYmVNYJpzxV0qlQMDx-51">
          <mxGeometry x="30" width="250" height="30" as="geometry">
            <mxRectangle width="250" height="30" as="alternateBounds" />
          </mxGeometry>
        </mxCell>
        <mxCell id="xhAYmVNYJpzxV0qlQMDx-54" value="" style="shape=tableRow;horizontal=0;startSize=0;swimlaneHead=0;swimlaneBody=0;fillColor=none;collapsible=0;dropTarget=0;points=[[0,0.5],[1,0.5]];portConstraint=eastwest;strokeColor=inherit;top=0;left=0;right=0;bottom=0;" vertex="1" parent="xhAYmVNYJpzxV0qlQMDx-26">
          <mxGeometry y="300" width="280" height="30" as="geometry" />
        </mxCell>
        <mxCell id="xhAYmVNYJpzxV0qlQMDx-55" value="FK" style="shape=partialRectangle;overflow=hidden;connectable=0;fillColor=#dae8fc;strokeColor=#6c8ebf;top=0;left=0;bottom=0;right=0;fontStyle=1" vertex="1" parent="xhAYmVNYJpzxV0qlQMDx-54">
          <mxGeometry width="30" height="30" as="geometry">
            <mxRectangle width="30" height="30" as="alternateBounds" />
          </mxGeometry>
        </mxCell>
        <mxCell id="xhAYmVNYJpzxV0qlQMDx-56" value="user_id int NOT NULL" style="shape=partialRectangle;overflow=hidden;connectable=0;fillColor=#dae8fc;align=left;strokeColor=#6c8ebf;top=0;left=0;bottom=0;right=0;spacingLeft=6;fontStyle=1" vertex="1" parent="xhAYmVNYJpzxV0qlQMDx-54">
          <mxGeometry x="30" width="250" height="30" as="geometry">
            <mxRectangle width="250" height="30" as="alternateBounds" />
          </mxGeometry>
        </mxCell>
        <mxCell id="xhAYmVNYJpzxV0qlQMDx-57" value="" style="shape=tableRow;horizontal=0;startSize=0;swimlaneHead=0;swimlaneBody=0;fillColor=none;collapsible=0;dropTarget=0;points=[[0,0.5],[1,0.5]];portConstraint=eastwest;strokeColor=inherit;top=0;left=0;right=0;bottom=0;" vertex="1" parent="xhAYmVNYJpzxV0qlQMDx-26">
          <mxGeometry y="330" width="280" height="30" as="geometry" />
        </mxCell>
        <mxCell id="xhAYmVNYJpzxV0qlQMDx-58" value="" style="shape=partialRectangle;overflow=hidden;connectable=0;fillColor=#dae8fc;strokeColor=#6c8ebf;top=0;left=0;bottom=0;right=0;" vertex="1" parent="xhAYmVNYJpzxV0qlQMDx-57">
          <mxGeometry width="30" height="30" as="geometry">
            <mxRectangle width="30" height="30" as="alternateBounds" />
          </mxGeometry>
        </mxCell>
        <mxCell id="xhAYmVNYJpzxV0qlQMDx-59" value="" style="shape=partialRectangle;overflow=hidden;connectable=0;fillColor=#dae8fc;align=left;strokeColor=#6c8ebf;top=0;left=0;bottom=0;right=0;spacingLeft=6;" vertex="1" parent="xhAYmVNYJpzxV0qlQMDx-57">
          <mxGeometry x="30" width="250" height="30" as="geometry">
            <mxRectangle width="250" height="30" as="alternateBounds" />
          </mxGeometry>
        </mxCell>
        <mxCell id="xhAYmVNYJpzxV0qlQMDx-60" value="" style="shape=tableRow;horizontal=0;startSize=0;swimlaneHead=0;swimlaneBody=0;fillColor=none;collapsible=0;dropTarget=0;points=[[0,0.5],[1,0.5]];portConstraint=eastwest;strokeColor=inherit;top=0;left=0;right=0;bottom=0;" vertex="1" parent="xhAYmVNYJpzxV0qlQMDx-26">
          <mxGeometry y="360" width="280" height="30" as="geometry" />
        </mxCell>
        <mxCell id="xhAYmVNYJpzxV0qlQMDx-61" value="" style="shape=partialRectangle;overflow=hidden;connectable=0;fillColor=#dae8fc;strokeColor=#6c8ebf;top=0;left=0;bottom=0;right=0;" vertex="1" parent="xhAYmVNYJpzxV0qlQMDx-60">
          <mxGeometry width="30" height="30" as="geometry">
            <mxRectangle width="30" height="30" as="alternateBounds" />
          </mxGeometry>
        </mxCell>
        <mxCell id="xhAYmVNYJpzxV0qlQMDx-62" value="" style="shape=partialRectangle;overflow=hidden;connectable=0;fillColor=#dae8fc;align=left;strokeColor=#6c8ebf;top=0;left=0;bottom=0;right=0;spacingLeft=6;" vertex="1" parent="xhAYmVNYJpzxV0qlQMDx-60">
          <mxGeometry x="30" width="250" height="30" as="geometry">
            <mxRectangle width="250" height="30" as="alternateBounds" />
          </mxGeometry>
        </mxCell>
        <mxCell id="xhAYmVNYJpzxV0qlQMDx-63" value="asl_aslsentencegeneration" style="shape=table;startSize=30;container=1;collapsible=1;childLayout=tableLayout;fixedRows=1;rowLines=0;fontStyle=1;align=center;resizeLast=1;fillColor=#d5e8d4;strokeColor=#82b366;" vertex="1" parent="1">
          <mxGeometry x="-1420" y="130" width="290" height="240" as="geometry" />
        </mxCell>
        <mxCell id="xhAYmVNYJpzxV0qlQMDx-64" value="" style="shape=tableRow;horizontal=0;startSize=0;swimlaneHead=0;swimlaneBody=0;fillColor=none;collapsible=0;dropTarget=0;points=[[0,0.5],[1,0.5]];portConstraint=eastwest;strokeColor=inherit;top=0;left=0;right=0;bottom=1;" vertex="1" parent="xhAYmVNYJpzxV0qlQMDx-63">
          <mxGeometry y="30" width="290" height="30" as="geometry" />
        </mxCell>
        <mxCell id="xhAYmVNYJpzxV0qlQMDx-65" value="PK" style="shape=partialRectangle;overflow=hidden;connectable=0;fillColor=#fff2cc;strokeColor=#d6b656;top=0;left=0;bottom=0;right=0;fontStyle=1;" vertex="1" parent="xhAYmVNYJpzxV0qlQMDx-64">
          <mxGeometry width="30" height="30" as="geometry">
            <mxRectangle width="30" height="30" as="alternateBounds" />
          </mxGeometry>
        </mxCell>
        <mxCell id="xhAYmVNYJpzxV0qlQMDx-66" value="id bigint NOT NULL AUTO_INCREMENT" style="shape=partialRectangle;overflow=hidden;connectable=0;fillColor=#fff2cc;align=left;strokeColor=#d6b656;top=0;left=0;bottom=0;right=0;spacingLeft=6;fontStyle=1;" vertex="1" parent="xhAYmVNYJpzxV0qlQMDx-64">
          <mxGeometry x="30" width="260" height="30" as="geometry">
            <mxRectangle width="260" height="30" as="alternateBounds" />
          </mxGeometry>
        </mxCell>
        <mxCell id="xhAYmVNYJpzxV0qlQMDx-67" value="" style="shape=tableRow;horizontal=0;startSize=0;swimlaneHead=0;swimlaneBody=0;fillColor=none;collapsible=0;dropTarget=0;points=[[0,0.5],[1,0.5]];portConstraint=eastwest;strokeColor=inherit;top=0;left=0;right=0;bottom=0;" vertex="1" parent="xhAYmVNYJpzxV0qlQMDx-63">
          <mxGeometry y="60" width="290" height="30" as="geometry" />
        </mxCell>
        <mxCell id="xhAYmVNYJpzxV0qlQMDx-68" value="" style="shape=partialRectangle;overflow=hidden;connectable=0;fillColor=#dae8fc;strokeColor=#6c8ebf;top=0;left=0;bottom=0;right=0;" vertex="1" parent="xhAYmVNYJpzxV0qlQMDx-67">
          <mxGeometry width="30" height="30" as="geometry">
            <mxRectangle width="30" height="30" as="alternateBounds" />
          </mxGeometry>
        </mxCell>
        <mxCell id="xhAYmVNYJpzxV0qlQMDx-69" value="predictions json NOT NULL" style="shape=partialRectangle;overflow=hidden;connectable=0;fillColor=#dae8fc;align=left;strokeColor=#6c8ebf;top=0;left=0;bottom=0;right=0;spacingLeft=6;fontStyle=1" vertex="1" parent="xhAYmVNYJpzxV0qlQMDx-67">
          <mxGeometry x="30" width="260" height="30" as="geometry">
            <mxRectangle width="260" height="30" as="alternateBounds" />
          </mxGeometry>
        </mxCell>
        <mxCell id="xhAYmVNYJpzxV0qlQMDx-70" value="" style="shape=tableRow;horizontal=0;startSize=0;swimlaneHead=0;swimlaneBody=0;fillColor=none;collapsible=0;dropTarget=0;points=[[0,0.5],[1,0.5]];portConstraint=eastwest;strokeColor=inherit;top=0;left=0;right=0;bottom=0;" vertex="1" parent="xhAYmVNYJpzxV0qlQMDx-63">
          <mxGeometry y="90" width="290" height="30" as="geometry" />
        </mxCell>
        <mxCell id="xhAYmVNYJpzxV0qlQMDx-71" value="" style="shape=partialRectangle;overflow=hidden;connectable=0;fillColor=#dae8fc;strokeColor=#6c8ebf;top=0;left=0;bottom=0;right=0;" vertex="1" parent="xhAYmVNYJpzxV0qlQMDx-70">
          <mxGeometry width="30" height="30" as="geometry">
            <mxRectangle width="30" height="30" as="alternateBounds" />
          </mxGeometry>
        </mxCell>
        <mxCell id="xhAYmVNYJpzxV0qlQMDx-72" value="generated_sentence longtext NOT NULL" style="shape=partialRectangle;overflow=hidden;connectable=0;fillColor=#dae8fc;align=left;strokeColor=#6c8ebf;top=0;left=0;bottom=0;right=0;spacingLeft=6;fontStyle=1" vertex="1" parent="xhAYmVNYJpzxV0qlQMDx-70">
          <mxGeometry x="30" width="260" height="30" as="geometry">
            <mxRectangle width="260" height="30" as="alternateBounds" />
          </mxGeometry>
        </mxCell>
        <mxCell id="xhAYmVNYJpzxV0qlQMDx-73" value="" style="shape=tableRow;horizontal=0;startSize=0;swimlaneHead=0;swimlaneBody=0;fillColor=none;collapsible=0;dropTarget=0;points=[[0,0.5],[1,0.5]];portConstraint=eastwest;strokeColor=inherit;top=0;left=0;right=0;bottom=0;" vertex="1" parent="xhAYmVNYJpzxV0qlQMDx-63">
          <mxGeometry y="120" width="290" height="30" as="geometry" />
        </mxCell>
        <mxCell id="xhAYmVNYJpzxV0qlQMDx-74" value="" style="shape=partialRectangle;overflow=hidden;connectable=0;fillColor=#dae8fc;strokeColor=#6c8ebf;top=0;left=0;bottom=0;right=0;" vertex="1" parent="xhAYmVNYJpzxV0qlQMDx-73">
          <mxGeometry width="30" height="30" as="geometry">
            <mxRectangle width="30" height="30" as="alternateBounds" />
          </mxGeometry>
        </mxCell>
        <mxCell id="xhAYmVNYJpzxV0qlQMDx-75" value="created_at datetime(6) NOT NULL" style="shape=partialRectangle;overflow=hidden;connectable=0;fillColor=#dae8fc;align=left;strokeColor=#6c8ebf;top=0;left=0;bottom=0;right=0;spacingLeft=6;fontStyle=1" vertex="1" parent="xhAYmVNYJpzxV0qlQMDx-73">
          <mxGeometry x="30" width="260" height="30" as="geometry">
            <mxRectangle width="260" height="30" as="alternateBounds" />
          </mxGeometry>
        </mxCell>
        <mxCell id="xhAYmVNYJpzxV0qlQMDx-76" value="" style="shape=tableRow;horizontal=0;startSize=0;swimlaneHead=0;swimlaneBody=0;fillColor=none;collapsible=0;dropTarget=0;points=[[0,0.5],[1,0.5]];portConstraint=eastwest;strokeColor=inherit;top=0;left=0;right=0;bottom=0;" vertex="1" parent="xhAYmVNYJpzxV0qlQMDx-63">
          <mxGeometry y="150" width="290" height="30" as="geometry" />
        </mxCell>
        <mxCell id="xhAYmVNYJpzxV0qlQMDx-77" value="FK" style="shape=partialRectangle;overflow=hidden;connectable=0;fillColor=#dae8fc;strokeColor=#6c8ebf;top=0;left=0;bottom=0;right=0;fontStyle=1" vertex="1" parent="xhAYmVNYJpzxV0qlQMDx-76">
          <mxGeometry width="30" height="30" as="geometry">
            <mxRectangle width="30" height="30" as="alternateBounds" />
          </mxGeometry>
        </mxCell>
        <mxCell id="xhAYmVNYJpzxV0qlQMDx-78" value="user_id int NOT NULL" style="shape=partialRectangle;overflow=hidden;connectable=0;fillColor=#dae8fc;align=left;strokeColor=#6c8ebf;top=0;left=0;bottom=0;right=0;spacingLeft=6;fontStyle=1" vertex="1" parent="xhAYmVNYJpzxV0qlQMDx-76">
          <mxGeometry x="30" width="260" height="30" as="geometry">
            <mxRectangle width="260" height="30" as="alternateBounds" />
          </mxGeometry>
        </mxCell>
        <mxCell id="xhAYmVNYJpzxV0qlQMDx-79" value="" style="shape=tableRow;horizontal=0;startSize=0;swimlaneHead=0;swimlaneBody=0;fillColor=none;collapsible=0;dropTarget=0;points=[[0,0.5],[1,0.5]];portConstraint=eastwest;strokeColor=inherit;top=0;left=0;right=0;bottom=0;" vertex="1" parent="xhAYmVNYJpzxV0qlQMDx-63">
          <mxGeometry y="180" width="290" height="30" as="geometry" />
        </mxCell>
        <mxCell id="xhAYmVNYJpzxV0qlQMDx-80" value="" style="shape=partialRectangle;overflow=hidden;connectable=0;fillColor=#dae8fc;strokeColor=#6c8ebf;top=0;left=0;bottom=0;right=0;" vertex="1" parent="xhAYmVNYJpzxV0qlQMDx-79">
          <mxGeometry width="30" height="30" as="geometry">
            <mxRectangle width="30" height="30" as="alternateBounds" />
          </mxGeometry>
        </mxCell>
        <mxCell id="xhAYmVNYJpzxV0qlQMDx-81" value="" style="shape=partialRectangle;overflow=hidden;connectable=0;fillColor=#dae8fc;align=left;strokeColor=#6c8ebf;top=0;left=0;bottom=0;right=0;spacingLeft=6;" vertex="1" parent="xhAYmVNYJpzxV0qlQMDx-79">
          <mxGeometry x="30" width="260" height="30" as="geometry">
            <mxRectangle width="260" height="30" as="alternateBounds" />
          </mxGeometry>
        </mxCell>
        <mxCell id="xhAYmVNYJpzxV0qlQMDx-82" value="" style="shape=tableRow;horizontal=0;startSize=0;swimlaneHead=0;swimlaneBody=0;fillColor=none;collapsible=0;dropTarget=0;points=[[0,0.5],[1,0.5]];portConstraint=eastwest;strokeColor=inherit;top=0;left=0;right=0;bottom=0;" vertex="1" parent="xhAYmVNYJpzxV0qlQMDx-63">
          <mxGeometry y="210" width="290" height="30" as="geometry" />
        </mxCell>
        <mxCell id="xhAYmVNYJpzxV0qlQMDx-83" value="" style="shape=partialRectangle;overflow=hidden;connectable=0;fillColor=#dae8fc;strokeColor=#6c8ebf;top=0;left=0;bottom=0;right=0;" vertex="1" parent="xhAYmVNYJpzxV0qlQMDx-82">
          <mxGeometry width="30" height="30" as="geometry">
            <mxRectangle width="30" height="30" as="alternateBounds" />
          </mxGeometry>
        </mxCell>
        <mxCell id="xhAYmVNYJpzxV0qlQMDx-84" value="" style="shape=partialRectangle;overflow=hidden;connectable=0;fillColor=#dae8fc;align=left;strokeColor=#6c8ebf;top=0;left=0;bottom=0;right=0;spacingLeft=6;" vertex="1" parent="xhAYmVNYJpzxV0qlQMDx-82">
          <mxGeometry x="30" width="260" height="30" as="geometry">
            <mxRectangle width="260" height="30" as="alternateBounds" />
          </mxGeometry>
        </mxCell>
        <mxCell id="xhAYmVNYJpzxV0qlQMDx-85" value="asl_aslvideohistory" style="shape=table;startSize=30;container=1;collapsible=1;childLayout=tableLayout;fixedRows=1;rowLines=0;fontStyle=1;align=center;resizeLast=1;fillColor=#d5e8d4;strokeColor=#82b366;" vertex="1" parent="1">
          <mxGeometry x="-2125" y="860" width="280" height="420" as="geometry" />
        </mxCell>
        <mxCell id="xhAYmVNYJpzxV0qlQMDx-86" value="" style="shape=tableRow;horizontal=0;startSize=0;swimlaneHead=0;swimlaneBody=0;fillColor=none;collapsible=0;dropTarget=0;points=[[0,0.5],[1,0.5]];portConstraint=eastwest;strokeColor=inherit;top=0;left=0;right=0;bottom=1;" vertex="1" parent="xhAYmVNYJpzxV0qlQMDx-85">
          <mxGeometry y="30" width="280" height="30" as="geometry" />
        </mxCell>
        <mxCell id="xhAYmVNYJpzxV0qlQMDx-87" value="PK" style="shape=partialRectangle;overflow=hidden;connectable=0;fillColor=#fff2cc;strokeColor=#d6b656;top=0;left=0;bottom=0;right=0;fontStyle=1;" vertex="1" parent="xhAYmVNYJpzxV0qlQMDx-86">
          <mxGeometry width="30" height="30" as="geometry">
            <mxRectangle width="30" height="30" as="alternateBounds" />
          </mxGeometry>
        </mxCell>
        <mxCell id="xhAYmVNYJpzxV0qlQMDx-88" value="id bigint NOT NULL AUTO_ INCREMENT" style="shape=partialRectangle;overflow=hidden;connectable=0;fillColor=#fff2cc;align=left;strokeColor=#d6b656;top=0;left=0;bottom=0;right=0;spacingLeft=6;fontStyle=1;" vertex="1" parent="xhAYmVNYJpzxV0qlQMDx-86">
          <mxGeometry x="30" width="250" height="30" as="geometry">
            <mxRectangle width="250" height="30" as="alternateBounds" />
          </mxGeometry>
        </mxCell>
        <mxCell id="xhAYmVNYJpzxV0qlQMDx-89" value="" style="shape=tableRow;horizontal=0;startSize=0;swimlaneHead=0;swimlaneBody=0;fillColor=none;collapsible=0;dropTarget=0;points=[[0,0.5],[1,0.5]];portConstraint=eastwest;strokeColor=inherit;top=0;left=0;right=0;bottom=0;" vertex="1" parent="xhAYmVNYJpzxV0qlQMDx-85">
          <mxGeometry y="60" width="280" height="30" as="geometry" />
        </mxCell>
        <mxCell id="xhAYmVNYJpzxV0qlQMDx-90" value="" style="shape=partialRectangle;overflow=hidden;connectable=0;fillColor=#dae8fc;strokeColor=#6c8ebf;top=0;left=0;bottom=0;right=0;" vertex="1" parent="xhAYmVNYJpzxV0qlQMDx-89">
          <mxGeometry width="30" height="30" as="geometry">
            <mxRectangle width="30" height="30" as="alternateBounds" />
          </mxGeometry>
        </mxCell>
        <mxCell id="xhAYmVNYJpzxV0qlQMDx-91" value="input_text longtext NOT NULL" style="shape=partialRectangle;overflow=hidden;connectable=0;fillColor=#dae8fc;align=left;strokeColor=#6c8ebf;top=0;left=0;bottom=0;right=0;spacingLeft=6;fontStyle=1" vertex="1" parent="xhAYmVNYJpzxV0qlQMDx-89">
          <mxGeometry x="30" width="250" height="30" as="geometry">
            <mxRectangle width="250" height="30" as="alternateBounds" />
          </mxGeometry>
        </mxCell>
        <mxCell id="xhAYmVNYJpzxV0qlQMDx-92" value="" style="shape=tableRow;horizontal=0;startSize=0;swimlaneHead=0;swimlaneBody=0;fillColor=none;collapsible=0;dropTarget=0;points=[[0,0.5],[1,0.5]];portConstraint=eastwest;strokeColor=inherit;top=0;left=0;right=0;bottom=0;" vertex="1" parent="xhAYmVNYJpzxV0qlQMDx-85">
          <mxGeometry y="90" width="280" height="30" as="geometry" />
        </mxCell>
        <mxCell id="xhAYmVNYJpzxV0qlQMDx-93" value="" style="shape=partialRectangle;overflow=hidden;connectable=0;fillColor=#dae8fc;strokeColor=#6c8ebf;top=0;left=0;bottom=0;right=0;" vertex="1" parent="xhAYmVNYJpzxV0qlQMDx-92">
          <mxGeometry width="30" height="30" as="geometry">
            <mxRectangle width="30" height="30" as="alternateBounds" />
          </mxGeometry>
        </mxCell>
        <mxCell id="xhAYmVNYJpzxV0qlQMDx-94" value="frame_count int NOT NULL" style="shape=partialRectangle;overflow=hidden;connectable=0;fillColor=#dae8fc;align=left;strokeColor=#6c8ebf;top=0;left=0;bottom=0;right=0;spacingLeft=6;fontStyle=1" vertex="1" parent="xhAYmVNYJpzxV0qlQMDx-92">
          <mxGeometry x="30" width="250" height="30" as="geometry">
            <mxRectangle width="250" height="30" as="alternateBounds" />
          </mxGeometry>
        </mxCell>
        <mxCell id="xhAYmVNYJpzxV0qlQMDx-95" value="" style="shape=tableRow;horizontal=0;startSize=0;swimlaneHead=0;swimlaneBody=0;fillColor=none;collapsible=0;dropTarget=0;points=[[0,0.5],[1,0.5]];portConstraint=eastwest;strokeColor=inherit;top=0;left=0;right=0;bottom=0;" vertex="1" parent="xhAYmVNYJpzxV0qlQMDx-85">
          <mxGeometry y="120" width="280" height="30" as="geometry" />
        </mxCell>
        <mxCell id="xhAYmVNYJpzxV0qlQMDx-96" value="" style="shape=partialRectangle;overflow=hidden;connectable=0;fillColor=#dae8fc;strokeColor=#6c8ebf;top=0;left=0;bottom=0;right=0;" vertex="1" parent="xhAYmVNYJpzxV0qlQMDx-95">
          <mxGeometry width="30" height="30" as="geometry">
            <mxRectangle width="30" height="30" as="alternateBounds" />
          </mxGeometry>
        </mxCell>
        <mxCell id="xhAYmVNYJpzxV0qlQMDx-97" value="video size _kb double NOT NULL" style="shape=partialRectangle;overflow=hidden;connectable=0;fillColor=#dae8fc;align=left;strokeColor=#6c8ebf;top=0;left=0;bottom=0;right=0;spacingLeft=6;fontStyle=1" vertex="1" parent="xhAYmVNYJpzxV0qlQMDx-95">
          <mxGeometry x="30" width="250" height="30" as="geometry">
            <mxRectangle width="250" height="30" as="alternateBounds" />
          </mxGeometry>
        </mxCell>
        <mxCell id="xhAYmVNYJpzxV0qlQMDx-98" value="" style="shape=tableRow;horizontal=0;startSize=0;swimlaneHead=0;swimlaneBody=0;fillColor=none;collapsible=0;dropTarget=0;points=[[0,0.5],[1,0.5]];portConstraint=eastwest;strokeColor=inherit;top=0;left=0;right=0;bottom=0;" vertex="1" parent="xhAYmVNYJpzxV0qlQMDx-85">
          <mxGeometry y="150" width="280" height="30" as="geometry" />
        </mxCell>
        <mxCell id="xhAYmVNYJpzxV0qlQMDx-99" value="" style="shape=partialRectangle;overflow=hidden;connectable=0;fillColor=#dae8fc;strokeColor=#6c8ebf;top=0;left=0;bottom=0;right=0;" vertex="1" parent="xhAYmVNYJpzxV0qlQMDx-98">
          <mxGeometry width="30" height="30" as="geometry">
            <mxRectangle width="30" height="30" as="alternateBounds" />
          </mxGeometry>
        </mxCell>
        <mxCell id="xhAYmVNYJpzxV0qlQMDx-100" value="video _duration_sec double NOT NULL" style="shape=partialRectangle;overflow=hidden;connectable=0;fillColor=#dae8fc;align=left;strokeColor=#6c8ebf;top=0;left=0;bottom=0;right=0;spacingLeft=6;fontStyle=1" vertex="1" parent="xhAYmVNYJpzxV0qlQMDx-98">
          <mxGeometry x="30" width="250" height="30" as="geometry">
            <mxRectangle width="250" height="30" as="alternateBounds" />
          </mxGeometry>
        </mxCell>
        <mxCell id="xhAYmVNYJpzxV0qlQMDx-101" value="" style="shape=tableRow;horizontal=0;startSize=0;swimlaneHead=0;swimlaneBody=0;fillColor=none;collapsible=0;dropTarget=0;points=[[0,0.5],[1,0.5]];portConstraint=eastwest;strokeColor=inherit;top=0;left=0;right=0;bottom=0;" vertex="1" parent="xhAYmVNYJpzxV0qlQMDx-85">
          <mxGeometry y="180" width="280" height="30" as="geometry" />
        </mxCell>
        <mxCell id="xhAYmVNYJpzxV0qlQMDx-102" value="" style="shape=partialRectangle;overflow=hidden;connectable=0;fillColor=#dae8fc;strokeColor=#6c8ebf;top=0;left=0;bottom=0;right=0;" vertex="1" parent="xhAYmVNYJpzxV0qlQMDx-101">
          <mxGeometry width="30" height="30" as="geometry">
            <mxRectangle width="30" height="30" as="alternateBounds" />
          </mxGeometry>
        </mxCell>
        <mxCell id="xhAYmVNYJpzxV0qlQMDx-103" value="video name varchar(255) NOT NULL" style="shape=partialRectangle;overflow=hidden;connectable=0;fillColor=#dae8fc;align=left;strokeColor=#6c8ebf;top=0;left=0;bottom=0;right=0;spacingLeft=6;fontStyle=1" vertex="1" parent="xhAYmVNYJpzxV0qlQMDx-101">
          <mxGeometry x="30" width="250" height="30" as="geometry">
            <mxRectangle width="250" height="30" as="alternateBounds" />
          </mxGeometry>
        </mxCell>
        <mxCell id="xhAYmVNYJpzxV0qlQMDx-104" value="" style="shape=tableRow;horizontal=0;startSize=0;swimlaneHead=0;swimlaneBody=0;fillColor=none;collapsible=0;dropTarget=0;points=[[0,0.5],[1,0.5]];portConstraint=eastwest;strokeColor=inherit;top=0;left=0;right=0;bottom=0;" vertex="1" parent="xhAYmVNYJpzxV0qlQMDx-85">
          <mxGeometry y="210" width="280" height="30" as="geometry" />
        </mxCell>
        <mxCell id="xhAYmVNYJpzxV0qlQMDx-105" value="" style="shape=partialRectangle;overflow=hidden;connectable=0;fillColor=#dae8fc;strokeColor=#6c8ebf;top=0;left=0;bottom=0;right=0;" vertex="1" parent="xhAYmVNYJpzxV0qlQMDx-104">
          <mxGeometry width="30" height="30" as="geometry">
            <mxRectangle width="30" height="30" as="alternateBounds" />
          </mxGeometry>
        </mxCell>
        <mxCell id="xhAYmVNYJpzxV0qlQMDx-106" value="created at datetime(6) NOT NULL" style="shape=partialRectangle;overflow=hidden;connectable=0;fillColor=#dae8fc;align=left;strokeColor=#6c8ebf;top=0;left=0;bottom=0;right=0;spacingLeft=6;fontStyle=1" vertex="1" parent="xhAYmVNYJpzxV0qlQMDx-104">
          <mxGeometry x="30" width="250" height="30" as="geometry">
            <mxRectangle width="250" height="30" as="alternateBounds" />
          </mxGeometry>
        </mxCell>
        <mxCell id="xhAYmVNYJpzxV0qlQMDx-107" value="" style="shape=tableRow;horizontal=0;startSize=0;swimlaneHead=0;swimlaneBody=0;fillColor=none;collapsible=0;dropTarget=0;points=[[0,0.5],[1,0.5]];portConstraint=eastwest;strokeColor=inherit;top=0;left=0;right=0;bottom=0;" vertex="1" parent="xhAYmVNYJpzxV0qlQMDx-85">
          <mxGeometry y="240" width="280" height="30" as="geometry" />
        </mxCell>
        <mxCell id="xhAYmVNYJpzxV0qlQMDx-108" value="" style="shape=partialRectangle;overflow=hidden;connectable=0;fillColor=#dae8fc;strokeColor=#6c8ebf;top=0;left=0;bottom=0;right=0;" vertex="1" parent="xhAYmVNYJpzxV0qlQMDx-107">
          <mxGeometry width="30" height="30" as="geometry">
            <mxRectangle width="30" height="30" as="alternateBounds" />
          </mxGeometry>
        </mxCell>
        <mxCell id="xhAYmVNYJpzxV0qlQMDx-109" value="video uri varchar(200) NOT NULL" style="shape=partialRectangle;overflow=hidden;connectable=0;fillColor=#dae8fc;align=left;strokeColor=#6c8ebf;top=0;left=0;bottom=0;right=0;spacingLeft=6;fontStyle=1" vertex="1" parent="xhAYmVNYJpzxV0qlQMDx-107">
          <mxGeometry x="30" width="250" height="30" as="geometry">
            <mxRectangle width="250" height="30" as="alternateBounds" />
          </mxGeometry>
        </mxCell>
        <mxCell id="xhAYmVNYJpzxV0qlQMDx-110" value="" style="shape=tableRow;horizontal=0;startSize=0;swimlaneHead=0;swimlaneBody=0;fillColor=none;collapsible=0;dropTarget=0;points=[[0,0.5],[1,0.5]];portConstraint=eastwest;strokeColor=inherit;top=0;left=0;right=0;bottom=0;" vertex="1" parent="xhAYmVNYJpzxV0qlQMDx-85">
          <mxGeometry y="270" width="280" height="30" as="geometry" />
        </mxCell>
        <mxCell id="xhAYmVNYJpzxV0qlQMDx-111" value="FK" style="shape=partialRectangle;overflow=hidden;connectable=0;fillColor=#dae8fc;strokeColor=#6c8ebf;top=0;left=0;bottom=0;right=0;fontStyle=1" vertex="1" parent="xhAYmVNYJpzxV0qlQMDx-110">
          <mxGeometry width="30" height="30" as="geometry">
            <mxRectangle width="30" height="30" as="alternateBounds" />
          </mxGeometry>
        </mxCell>
        <mxCell id="xhAYmVNYJpzxV0qlQMDx-112" value="user id int NOT NULL" style="shape=partialRectangle;overflow=hidden;connectable=0;fillColor=#dae8fc;align=left;strokeColor=#6c8ebf;top=0;left=0;bottom=0;right=0;spacingLeft=6;fontStyle=1" vertex="1" parent="xhAYmVNYJpzxV0qlQMDx-110">
          <mxGeometry x="30" width="250" height="30" as="geometry">
            <mxRectangle width="250" height="30" as="alternateBounds" />
          </mxGeometry>
        </mxCell>
        <mxCell id="xhAYmVNYJpzxV0qlQMDx-113" value="" style="shape=tableRow;horizontal=0;startSize=0;swimlaneHead=0;swimlaneBody=0;fillColor=none;collapsible=0;dropTarget=0;points=[[0,0.5],[1,0.5]];portConstraint=eastwest;strokeColor=inherit;top=0;left=0;right=0;bottom=0;" vertex="1" parent="xhAYmVNYJpzxV0qlQMDx-85">
          <mxGeometry y="300" width="280" height="30" as="geometry" />
        </mxCell>
        <mxCell id="xhAYmVNYJpzxV0qlQMDx-114" value="" style="shape=partialRectangle;overflow=hidden;connectable=0;fillColor=#dae8fc;strokeColor=#6c8ebf;top=0;left=0;bottom=0;right=0;" vertex="1" parent="xhAYmVNYJpzxV0qlQMDx-113">
          <mxGeometry width="30" height="30" as="geometry">
            <mxRectangle width="30" height="30" as="alternateBounds" />
          </mxGeometry>
        </mxCell>
        <mxCell id="xhAYmVNYJpzxV0qlQMDx-115" value="deleted at datetime(6) DEFAULT NULL" style="shape=partialRectangle;overflow=hidden;connectable=0;fillColor=#dae8fc;align=left;strokeColor=#6c8ebf;top=0;left=0;bottom=0;right=0;spacingLeft=6;fontStyle=1" vertex="1" parent="xhAYmVNYJpzxV0qlQMDx-113">
          <mxGeometry x="30" width="250" height="30" as="geometry">
            <mxRectangle width="250" height="30" as="alternateBounds" />
          </mxGeometry>
        </mxCell>
        <mxCell id="xhAYmVNYJpzxV0qlQMDx-116" value="" style="shape=tableRow;horizontal=0;startSize=0;swimlaneHead=0;swimlaneBody=0;fillColor=none;collapsible=0;dropTarget=0;points=[[0,0.5],[1,0.5]];portConstraint=eastwest;strokeColor=inherit;top=0;left=0;right=0;bottom=0;" vertex="1" parent="xhAYmVNYJpzxV0qlQMDx-85">
          <mxGeometry y="330" width="280" height="40" as="geometry" />
        </mxCell>
        <mxCell id="xhAYmVNYJpzxV0qlQMDx-117" value="" style="shape=partialRectangle;overflow=hidden;connectable=0;fillColor=#dae8fc;strokeColor=#6c8ebf;top=0;left=0;bottom=0;right=0;" vertex="1" parent="xhAYmVNYJpzxV0qlQMDx-116">
          <mxGeometry width="30" height="40" as="geometry">
            <mxRectangle width="30" height="40" as="alternateBounds" />
          </mxGeometry>
        </mxCell>
        <mxCell id="xhAYmVNYJpzxV0qlQMDx-118" value="is deleted tinyint(1) NOT NULL" style="shape=partialRectangle;overflow=hidden;connectable=0;fillColor=#dae8fc;align=left;strokeColor=#6c8ebf;top=0;left=0;bottom=0;right=0;spacingLeft=6;fontStyle=1" vertex="1" parent="xhAYmVNYJpzxV0qlQMDx-116">
          <mxGeometry x="30" width="250" height="40" as="geometry">
            <mxRectangle width="250" height="40" as="alternateBounds" />
          </mxGeometry>
        </mxCell>
        <mxCell id="xhAYmVNYJpzxV0qlQMDx-119" value="" style="shape=tableRow;horizontal=0;startSize=0;swimlaneHead=0;swimlaneBody=0;fillColor=none;collapsible=0;dropTarget=0;points=[[0,0.5],[1,0.5]];portConstraint=eastwest;strokeColor=inherit;top=0;left=0;right=0;bottom=0;" vertex="1" parent="xhAYmVNYJpzxV0qlQMDx-85">
          <mxGeometry y="370" width="280" height="20" as="geometry" />
        </mxCell>
        <mxCell id="xhAYmVNYJpzxV0qlQMDx-120" value="" style="shape=partialRectangle;overflow=hidden;connectable=0;fillColor=#dae8fc;strokeColor=#6c8ebf;top=0;left=0;bottom=0;right=0;" vertex="1" parent="xhAYmVNYJpzxV0qlQMDx-119">
          <mxGeometry width="30" height="20" as="geometry">
            <mxRectangle width="30" height="20" as="alternateBounds" />
          </mxGeometry>
        </mxCell>
        <mxCell id="xhAYmVNYJpzxV0qlQMDx-121" value="" style="shape=partialRectangle;overflow=hidden;connectable=0;fillColor=#dae8fc;align=left;strokeColor=#6c8ebf;top=0;left=0;bottom=0;right=0;spacingLeft=6;" vertex="1" parent="xhAYmVNYJpzxV0qlQMDx-119">
          <mxGeometry x="30" width="250" height="20" as="geometry">
            <mxRectangle width="250" height="20" as="alternateBounds" />
          </mxGeometry>
        </mxCell>
        <mxCell id="xhAYmVNYJpzxV0qlQMDx-122" value="" style="shape=tableRow;horizontal=0;startSize=0;swimlaneHead=0;swimlaneBody=0;fillColor=none;collapsible=0;dropTarget=0;points=[[0,0.5],[1,0.5]];portConstraint=eastwest;strokeColor=inherit;top=0;left=0;right=0;bottom=0;" vertex="1" parent="xhAYmVNYJpzxV0qlQMDx-85">
          <mxGeometry y="390" width="280" height="30" as="geometry" />
        </mxCell>
        <mxCell id="xhAYmVNYJpzxV0qlQMDx-123" value="" style="shape=partialRectangle;overflow=hidden;connectable=0;fillColor=#dae8fc;strokeColor=#6c8ebf;top=0;left=0;bottom=0;right=0;" vertex="1" parent="xhAYmVNYJpzxV0qlQMDx-122">
          <mxGeometry width="30" height="30" as="geometry">
            <mxRectangle width="30" height="30" as="alternateBounds" />
          </mxGeometry>
        </mxCell>
        <mxCell id="xhAYmVNYJpzxV0qlQMDx-124" value="" style="shape=partialRectangle;overflow=hidden;connectable=0;fillColor=#dae8fc;align=left;strokeColor=#6c8ebf;top=0;left=0;bottom=0;right=0;spacingLeft=6;" vertex="1" parent="xhAYmVNYJpzxV0qlQMDx-122">
          <mxGeometry x="30" width="250" height="30" as="geometry">
            <mxRectangle width="250" height="30" as="alternateBounds" />
          </mxGeometry>
        </mxCell>
        <mxCell id="xhAYmVNYJpzxV0qlQMDx-125" value="asl_auditlog" style="shape=table;startSize=30;container=1;collapsible=1;childLayout=tableLayout;fixedRows=1;rowLines=0;fontStyle=1;align=center;resizeLast=1;fillColor=#d5e8d4;strokeColor=#82b366;" vertex="1" parent="1">
          <mxGeometry x="-2210" y="440" width="280" height="300" as="geometry" />
        </mxCell>
        <mxCell id="xhAYmVNYJpzxV0qlQMDx-126" value="" style="shape=tableRow;horizontal=0;startSize=0;swimlaneHead=0;swimlaneBody=0;fillColor=none;collapsible=0;dropTarget=0;points=[[0,0.5],[1,0.5]];portConstraint=eastwest;strokeColor=inherit;top=0;left=0;right=0;bottom=1;" vertex="1" parent="xhAYmVNYJpzxV0qlQMDx-125">
          <mxGeometry y="30" width="280" height="30" as="geometry" />
        </mxCell>
        <mxCell id="xhAYmVNYJpzxV0qlQMDx-127" value="PK" style="shape=partialRectangle;overflow=hidden;connectable=0;fillColor=#fff2cc;strokeColor=#d6b656;top=0;left=0;bottom=0;right=0;fontStyle=1;" vertex="1" parent="xhAYmVNYJpzxV0qlQMDx-126">
          <mxGeometry width="30" height="30" as="geometry">
            <mxRectangle width="30" height="30" as="alternateBounds" />
          </mxGeometry>
        </mxCell>
        <mxCell id="xhAYmVNYJpzxV0qlQMDx-128" value="Id bigint NOT NULL AUTO_INCREMENT" style="shape=partialRectangle;overflow=hidden;connectable=0;fillColor=#fff2cc;align=left;strokeColor=#d6b656;top=0;left=0;bottom=0;right=0;spacingLeft=6;fontStyle=1;" vertex="1" parent="xhAYmVNYJpzxV0qlQMDx-126">
          <mxGeometry x="30" width="250" height="30" as="geometry">
            <mxRectangle width="250" height="30" as="alternateBounds" />
          </mxGeometry>
        </mxCell>
        <mxCell id="xhAYmVNYJpzxV0qlQMDx-129" value="" style="shape=tableRow;horizontal=0;startSize=0;swimlaneHead=0;swimlaneBody=0;fillColor=none;collapsible=0;dropTarget=0;points=[[0,0.5],[1,0.5]];portConstraint=eastwest;strokeColor=inherit;top=0;left=0;right=0;bottom=0;" vertex="1" parent="xhAYmVNYJpzxV0qlQMDx-125">
          <mxGeometry y="60" width="280" height="30" as="geometry" />
        </mxCell>
        <mxCell id="xhAYmVNYJpzxV0qlQMDx-130" value="" style="shape=partialRectangle;overflow=hidden;connectable=0;fillColor=#dae8fc;strokeColor=#6c8ebf;top=0;left=0;bottom=0;right=0;" vertex="1" parent="xhAYmVNYJpzxV0qlQMDx-129">
          <mxGeometry width="30" height="30" as="geometry">
            <mxRectangle width="30" height="30" as="alternateBounds" />
          </mxGeometry>
        </mxCell>
        <mxCell id="xhAYmVNYJpzxV0qlQMDx-131" value="action varchar(255) NOT NULL" style="shape=partialRectangle;overflow=hidden;connectable=0;fillColor=#dae8fc;align=left;strokeColor=#6c8ebf;top=0;left=0;bottom=0;right=0;spacingLeft=6;fontStyle=1" vertex="1" parent="xhAYmVNYJpzxV0qlQMDx-129">
          <mxGeometry x="30" width="250" height="30" as="geometry">
            <mxRectangle width="250" height="30" as="alternateBounds" />
          </mxGeometry>
        </mxCell>
        <mxCell id="xhAYmVNYJpzxV0qlQMDx-132" value="" style="shape=tableRow;horizontal=0;startSize=0;swimlaneHead=0;swimlaneBody=0;fillColor=none;collapsible=0;dropTarget=0;points=[[0,0.5],[1,0.5]];portConstraint=eastwest;strokeColor=inherit;top=0;left=0;right=0;bottom=0;" vertex="1" parent="xhAYmVNYJpzxV0qlQMDx-125">
          <mxGeometry y="90" width="280" height="30" as="geometry" />
        </mxCell>
        <mxCell id="xhAYmVNYJpzxV0qlQMDx-133" value="" style="shape=partialRectangle;overflow=hidden;connectable=0;fillColor=#dae8fc;strokeColor=#6c8ebf;top=0;left=0;bottom=0;right=0;" vertex="1" parent="xhAYmVNYJpzxV0qlQMDx-132">
          <mxGeometry width="30" height="30" as="geometry">
            <mxRectangle width="30" height="30" as="alternateBounds" />
          </mxGeometry>
        </mxCell>
        <mxCell id="xhAYmVNYJpzxV0qlQMDx-134" value="description longtext NOT NULL" style="shape=partialRectangle;overflow=hidden;connectable=0;fillColor=#dae8fc;align=left;strokeColor=#6c8ebf;top=0;left=0;bottom=0;right=0;spacingLeft=6;fontStyle=1" vertex="1" parent="xhAYmVNYJpzxV0qlQMDx-132">
          <mxGeometry x="30" width="250" height="30" as="geometry">
            <mxRectangle width="250" height="30" as="alternateBounds" />
          </mxGeometry>
        </mxCell>
        <mxCell id="xhAYmVNYJpzxV0qlQMDx-135" value="" style="shape=tableRow;horizontal=0;startSize=0;swimlaneHead=0;swimlaneBody=0;fillColor=none;collapsible=0;dropTarget=0;points=[[0,0.5],[1,0.5]];portConstraint=eastwest;strokeColor=inherit;top=0;left=0;right=0;bottom=0;" vertex="1" parent="xhAYmVNYJpzxV0qlQMDx-125">
          <mxGeometry y="120" width="280" height="30" as="geometry" />
        </mxCell>
        <mxCell id="xhAYmVNYJpzxV0qlQMDx-136" value="" style="shape=partialRectangle;overflow=hidden;connectable=0;fillColor=#dae8fc;strokeColor=#6c8ebf;top=0;left=0;bottom=0;right=0;" vertex="1" parent="xhAYmVNYJpzxV0qlQMDx-135">
          <mxGeometry width="30" height="30" as="geometry">
            <mxRectangle width="30" height="30" as="alternateBounds" />
          </mxGeometry>
        </mxCell>
        <mxCell id="xhAYmVNYJpzxV0qlQMDx-137" value="ip address char(39) DEFAULT NULL" style="shape=partialRectangle;overflow=hidden;connectable=0;fillColor=#dae8fc;align=left;strokeColor=#6c8ebf;top=0;left=0;bottom=0;right=0;spacingLeft=6;fontStyle=1" vertex="1" parent="xhAYmVNYJpzxV0qlQMDx-135">
          <mxGeometry x="30" width="250" height="30" as="geometry">
            <mxRectangle width="250" height="30" as="alternateBounds" />
          </mxGeometry>
        </mxCell>
        <mxCell id="xhAYmVNYJpzxV0qlQMDx-138" value="" style="shape=tableRow;horizontal=0;startSize=0;swimlaneHead=0;swimlaneBody=0;fillColor=none;collapsible=0;dropTarget=0;points=[[0,0.5],[1,0.5]];portConstraint=eastwest;strokeColor=inherit;top=0;left=0;right=0;bottom=0;" vertex="1" parent="xhAYmVNYJpzxV0qlQMDx-125">
          <mxGeometry y="150" width="280" height="30" as="geometry" />
        </mxCell>
        <mxCell id="xhAYmVNYJpzxV0qlQMDx-139" value="" style="shape=partialRectangle;overflow=hidden;connectable=0;fillColor=#dae8fc;strokeColor=#6c8ebf;top=0;left=0;bottom=0;right=0;" vertex="1" parent="xhAYmVNYJpzxV0qlQMDx-138">
          <mxGeometry width="30" height="30" as="geometry">
            <mxRectangle width="30" height="30" as="alternateBounds" />
          </mxGeometry>
        </mxCell>
        <mxCell id="xhAYmVNYJpzxV0qlQMDx-140" value="user_agent longtext" style="shape=partialRectangle;overflow=hidden;connectable=0;fillColor=#dae8fc;align=left;strokeColor=#6c8ebf;top=0;left=0;bottom=0;right=0;spacingLeft=6;fontStyle=1" vertex="1" parent="xhAYmVNYJpzxV0qlQMDx-138">
          <mxGeometry x="30" width="250" height="30" as="geometry">
            <mxRectangle width="250" height="30" as="alternateBounds" />
          </mxGeometry>
        </mxCell>
        <mxCell id="xhAYmVNYJpzxV0qlQMDx-141" value="" style="shape=tableRow;horizontal=0;startSize=0;swimlaneHead=0;swimlaneBody=0;fillColor=none;collapsible=0;dropTarget=0;points=[[0,0.5],[1,0.5]];portConstraint=eastwest;strokeColor=inherit;top=0;left=0;right=0;bottom=0;" vertex="1" parent="xhAYmVNYJpzxV0qlQMDx-125">
          <mxGeometry y="180" width="280" height="30" as="geometry" />
        </mxCell>
        <mxCell id="xhAYmVNYJpzxV0qlQMDx-142" value="" style="shape=partialRectangle;overflow=hidden;connectable=0;fillColor=#dae8fc;strokeColor=#6c8ebf;top=0;left=0;bottom=0;right=0;" vertex="1" parent="xhAYmVNYJpzxV0qlQMDx-141">
          <mxGeometry width="30" height="30" as="geometry">
            <mxRectangle width="30" height="30" as="alternateBounds" />
          </mxGeometry>
        </mxCell>
        <mxCell id="xhAYmVNYJpzxV0qlQMDx-143" value="timestamp datetime(6) NOT NULL" style="shape=partialRectangle;overflow=hidden;connectable=0;fillColor=#dae8fc;align=left;strokeColor=#6c8ebf;top=0;left=0;bottom=0;right=0;spacingLeft=6;fontStyle=1" vertex="1" parent="xhAYmVNYJpzxV0qlQMDx-141">
          <mxGeometry x="30" width="250" height="30" as="geometry">
            <mxRectangle width="250" height="30" as="alternateBounds" />
          </mxGeometry>
        </mxCell>
        <mxCell id="xhAYmVNYJpzxV0qlQMDx-144" value="" style="shape=tableRow;horizontal=0;startSize=0;swimlaneHead=0;swimlaneBody=0;fillColor=none;collapsible=0;dropTarget=0;points=[[0,0.5],[1,0.5]];portConstraint=eastwest;strokeColor=inherit;top=0;left=0;right=0;bottom=0;" vertex="1" parent="xhAYmVNYJpzxV0qlQMDx-125">
          <mxGeometry y="210" width="280" height="30" as="geometry" />
        </mxCell>
        <mxCell id="xhAYmVNYJpzxV0qlQMDx-145" value="FK" style="shape=partialRectangle;overflow=hidden;connectable=0;fillColor=#dae8fc;strokeColor=#6c8ebf;top=0;left=0;bottom=0;right=0;fontStyle=1" vertex="1" parent="xhAYmVNYJpzxV0qlQMDx-144">
          <mxGeometry width="30" height="30" as="geometry">
            <mxRectangle width="30" height="30" as="alternateBounds" />
          </mxGeometry>
        </mxCell>
        <mxCell id="xhAYmVNYJpzxV0qlQMDx-146" value="user id int DEFAULT NULL" style="shape=partialRectangle;overflow=hidden;connectable=0;fillColor=#dae8fc;align=left;strokeColor=#6c8ebf;top=0;left=0;bottom=0;right=0;spacingLeft=6;fontStyle=1" vertex="1" parent="xhAYmVNYJpzxV0qlQMDx-144">
          <mxGeometry x="30" width="250" height="30" as="geometry">
            <mxRectangle width="250" height="30" as="alternateBounds" />
          </mxGeometry>
        </mxCell>
        <mxCell id="xhAYmVNYJpzxV0qlQMDx-147" value="" style="shape=tableRow;horizontal=0;startSize=0;swimlaneHead=0;swimlaneBody=0;fillColor=none;collapsible=0;dropTarget=0;points=[[0,0.5],[1,0.5]];portConstraint=eastwest;strokeColor=inherit;top=0;left=0;right=0;bottom=0;" vertex="1" parent="xhAYmVNYJpzxV0qlQMDx-125">
          <mxGeometry y="240" width="280" height="30" as="geometry" />
        </mxCell>
        <mxCell id="xhAYmVNYJpzxV0qlQMDx-148" value="" style="shape=partialRectangle;overflow=hidden;connectable=0;fillColor=#dae8fc;strokeColor=#6c8ebf;top=0;left=0;bottom=0;right=0;" vertex="1" parent="xhAYmVNYJpzxV0qlQMDx-147">
          <mxGeometry width="30" height="30" as="geometry">
            <mxRectangle width="30" height="30" as="alternateBounds" />
          </mxGeometry>
        </mxCell>
        <mxCell id="xhAYmVNYJpzxV0qlQMDx-149" value="" style="shape=partialRectangle;overflow=hidden;connectable=0;fillColor=#dae8fc;align=left;strokeColor=#6c8ebf;top=0;left=0;bottom=0;right=0;spacingLeft=6;" vertex="1" parent="xhAYmVNYJpzxV0qlQMDx-147">
          <mxGeometry x="30" width="250" height="30" as="geometry">
            <mxRectangle width="250" height="30" as="alternateBounds" />
          </mxGeometry>
        </mxCell>
        <mxCell id="xhAYmVNYJpzxV0qlQMDx-150" value="" style="shape=tableRow;horizontal=0;startSize=0;swimlaneHead=0;swimlaneBody=0;fillColor=none;collapsible=0;dropTarget=0;points=[[0,0.5],[1,0.5]];portConstraint=eastwest;strokeColor=inherit;top=0;left=0;right=0;bottom=0;" vertex="1" parent="xhAYmVNYJpzxV0qlQMDx-125">
          <mxGeometry y="270" width="280" height="30" as="geometry" />
        </mxCell>
        <mxCell id="xhAYmVNYJpzxV0qlQMDx-151" value="" style="shape=partialRectangle;overflow=hidden;connectable=0;fillColor=#dae8fc;strokeColor=#6c8ebf;top=0;left=0;bottom=0;right=0;" vertex="1" parent="xhAYmVNYJpzxV0qlQMDx-150">
          <mxGeometry width="30" height="30" as="geometry">
            <mxRectangle width="30" height="30" as="alternateBounds" />
          </mxGeometry>
        </mxCell>
        <mxCell id="xhAYmVNYJpzxV0qlQMDx-152" value="" style="shape=partialRectangle;overflow=hidden;connectable=0;fillColor=#dae8fc;align=left;strokeColor=#6c8ebf;top=0;left=0;bottom=0;right=0;spacingLeft=6;" vertex="1" parent="xhAYmVNYJpzxV0qlQMDx-150">
          <mxGeometry x="30" width="250" height="30" as="geometry">
            <mxRectangle width="250" height="30" as="alternateBounds" />
          </mxGeometry>
        </mxCell>
        <mxCell id="xhAYmVNYJpzxV0qlQMDx-153" value="auth_group" style="shape=table;startSize=30;container=1;collapsible=1;childLayout=tableLayout;fixedRows=1;rowLines=0;fontStyle=1;align=center;resizeLast=1;fillColor=#d5e8d4;strokeColor=#82b366;" vertex="1" parent="1">
          <mxGeometry x="-1010" y="150" width="270" height="120" as="geometry" />
        </mxCell>
        <mxCell id="xhAYmVNYJpzxV0qlQMDx-154" value="" style="shape=tableRow;horizontal=0;startSize=0;swimlaneHead=0;swimlaneBody=0;fillColor=none;collapsible=0;dropTarget=0;points=[[0,0.5],[1,0.5]];portConstraint=eastwest;strokeColor=inherit;top=0;left=0;right=0;bottom=1;" vertex="1" parent="xhAYmVNYJpzxV0qlQMDx-153">
          <mxGeometry y="30" width="270" height="30" as="geometry" />
        </mxCell>
        <mxCell id="xhAYmVNYJpzxV0qlQMDx-155" value="PK" style="shape=partialRectangle;overflow=hidden;connectable=0;fillColor=#fff2cc;strokeColor=#d6b656;top=0;left=0;bottom=0;right=0;fontStyle=1;" vertex="1" parent="xhAYmVNYJpzxV0qlQMDx-154">
          <mxGeometry width="30" height="30" as="geometry">
            <mxRectangle width="30" height="30" as="alternateBounds" />
          </mxGeometry>
        </mxCell>
        <mxCell id="xhAYmVNYJpzxV0qlQMDx-156" value="id int NOT NULL AUTO_INCREMENT" style="shape=partialRectangle;overflow=hidden;connectable=0;fillColor=#fff2cc;align=left;strokeColor=#d6b656;top=0;left=0;bottom=0;right=0;spacingLeft=6;fontStyle=1;" vertex="1" parent="xhAYmVNYJpzxV0qlQMDx-154">
          <mxGeometry x="30" width="240" height="30" as="geometry">
            <mxRectangle width="240" height="30" as="alternateBounds" />
          </mxGeometry>
        </mxCell>
        <mxCell id="xhAYmVNYJpzxV0qlQMDx-157" value="" style="shape=tableRow;horizontal=0;startSize=0;swimlaneHead=0;swimlaneBody=0;fillColor=none;collapsible=0;dropTarget=0;points=[[0,0.5],[1,0.5]];portConstraint=eastwest;strokeColor=inherit;top=0;left=0;right=0;bottom=0;" vertex="1" parent="xhAYmVNYJpzxV0qlQMDx-153">
          <mxGeometry y="60" width="270" height="30" as="geometry" />
        </mxCell>
        <mxCell id="xhAYmVNYJpzxV0qlQMDx-158" value="" style="shape=partialRectangle;overflow=hidden;connectable=0;fillColor=#dae8fc;strokeColor=#6c8ebf;top=0;left=0;bottom=0;right=0;" vertex="1" parent="xhAYmVNYJpzxV0qlQMDx-157">
          <mxGeometry width="30" height="30" as="geometry">
            <mxRectangle width="30" height="30" as="alternateBounds" />
          </mxGeometry>
        </mxCell>
        <mxCell id="xhAYmVNYJpzxV0qlQMDx-159" value="name varchar(150) NOT NULL UNIQUE" style="shape=partialRectangle;overflow=hidden;connectable=0;fillColor=#dae8fc;align=left;strokeColor=#6c8ebf;top=0;left=0;bottom=0;right=0;spacingLeft=6;fontStyle=1" vertex="1" parent="xhAYmVNYJpzxV0qlQMDx-157">
          <mxGeometry x="30" width="240" height="30" as="geometry">
            <mxRectangle width="240" height="30" as="alternateBounds" />
          </mxGeometry>
        </mxCell>
        <mxCell id="xhAYmVNYJpzxV0qlQMDx-160" value="" style="shape=tableRow;horizontal=0;startSize=0;swimlaneHead=0;swimlaneBody=0;fillColor=none;collapsible=0;dropTarget=0;points=[[0,0.5],[1,0.5]];portConstraint=eastwest;strokeColor=inherit;top=0;left=0;right=0;bottom=0;" vertex="1" parent="xhAYmVNYJpzxV0qlQMDx-153">
          <mxGeometry y="90" width="270" height="30" as="geometry" />
        </mxCell>
        <mxCell id="xhAYmVNYJpzxV0qlQMDx-161" value="" style="shape=partialRectangle;overflow=hidden;connectable=0;fillColor=#dae8fc;strokeColor=#6c8ebf;top=0;left=0;bottom=0;right=0;" vertex="1" parent="xhAYmVNYJpzxV0qlQMDx-160">
          <mxGeometry width="30" height="30" as="geometry">
            <mxRectangle width="30" height="30" as="alternateBounds" />
          </mxGeometry>
        </mxCell>
        <mxCell id="xhAYmVNYJpzxV0qlQMDx-162" value="" style="shape=partialRectangle;overflow=hidden;connectable=0;fillColor=#dae8fc;align=left;strokeColor=#6c8ebf;top=0;left=0;bottom=0;right=0;spacingLeft=6;" vertex="1" parent="xhAYmVNYJpzxV0qlQMDx-160">
          <mxGeometry x="30" width="240" height="30" as="geometry">
            <mxRectangle width="240" height="30" as="alternateBounds" />
          </mxGeometry>
        </mxCell>
        <mxCell id="xhAYmVNYJpzxV0qlQMDx-163" value="auth_group_permissions" style="shape=table;startSize=30;container=1;collapsible=1;childLayout=tableLayout;fixedRows=1;rowLines=0;fontStyle=1;align=center;resizeLast=1;fillColor=#d5e8d4;strokeColor=#82b366;" vertex="1" parent="1">
          <mxGeometry x="-1030" y="360" width="280" height="240" as="geometry" />
        </mxCell>
        <mxCell id="xhAYmVNYJpzxV0qlQMDx-164" value="" style="shape=tableRow;horizontal=0;startSize=0;swimlaneHead=0;swimlaneBody=0;fillColor=none;collapsible=0;dropTarget=0;points=[[0,0.5],[1,0.5]];portConstraint=eastwest;strokeColor=inherit;top=0;left=0;right=0;bottom=1;" vertex="1" parent="xhAYmVNYJpzxV0qlQMDx-163">
          <mxGeometry y="30" width="280" height="30" as="geometry" />
        </mxCell>
        <mxCell id="xhAYmVNYJpzxV0qlQMDx-165" value="PK" style="shape=partialRectangle;overflow=hidden;connectable=0;fillColor=#fff2cc;strokeColor=#d6b656;top=0;left=0;bottom=0;right=0;fontStyle=1;" vertex="1" parent="xhAYmVNYJpzxV0qlQMDx-164">
          <mxGeometry width="30" height="30" as="geometry">
            <mxRectangle width="30" height="30" as="alternateBounds" />
          </mxGeometry>
        </mxCell>
        <mxCell id="xhAYmVNYJpzxV0qlQMDx-166" value="id bigint NOT NULL AUTO_INCREMENT" style="shape=partialRectangle;overflow=hidden;connectable=0;fillColor=#fff2cc;align=left;strokeColor=#d6b656;top=0;left=0;bottom=0;right=0;spacingLeft=6;fontStyle=1;" vertex="1" parent="xhAYmVNYJpzxV0qlQMDx-164">
          <mxGeometry x="30" width="250" height="30" as="geometry">
            <mxRectangle width="250" height="30" as="alternateBounds" />
          </mxGeometry>
        </mxCell>
        <mxCell id="xhAYmVNYJpzxV0qlQMDx-167" value="" style="shape=tableRow;horizontal=0;startSize=0;swimlaneHead=0;swimlaneBody=0;fillColor=none;collapsible=0;dropTarget=0;points=[[0,0.5],[1,0.5]];portConstraint=eastwest;strokeColor=inherit;top=0;left=0;right=0;bottom=0;" vertex="1" parent="xhAYmVNYJpzxV0qlQMDx-163">
          <mxGeometry y="60" width="280" height="30" as="geometry" />
        </mxCell>
        <mxCell id="xhAYmVNYJpzxV0qlQMDx-168" value="FK" style="shape=partialRectangle;overflow=hidden;connectable=0;fillColor=#dae8fc;strokeColor=#6c8ebf;top=0;left=0;bottom=0;right=0;fontStyle=1" vertex="1" parent="xhAYmVNYJpzxV0qlQMDx-167">
          <mxGeometry width="30" height="30" as="geometry">
            <mxRectangle width="30" height="30" as="alternateBounds" />
          </mxGeometry>
        </mxCell>
        <mxCell id="xhAYmVNYJpzxV0qlQMDx-169" value="group_id int NOT NULL UNIQUE" style="shape=partialRectangle;overflow=hidden;connectable=0;fillColor=#dae8fc;align=left;strokeColor=#6c8ebf;top=0;left=0;bottom=0;right=0;spacingLeft=6;fontStyle=1" vertex="1" parent="xhAYmVNYJpzxV0qlQMDx-167">
          <mxGeometry x="30" width="250" height="30" as="geometry">
            <mxRectangle width="250" height="30" as="alternateBounds" />
          </mxGeometry>
        </mxCell>
        <mxCell id="xhAYmVNYJpzxV0qlQMDx-170" value="" style="shape=tableRow;horizontal=0;startSize=0;swimlaneHead=0;swimlaneBody=0;fillColor=none;collapsible=0;dropTarget=0;points=[[0,0.5],[1,0.5]];portConstraint=eastwest;strokeColor=inherit;top=0;left=0;right=0;bottom=0;" vertex="1" parent="xhAYmVNYJpzxV0qlQMDx-163">
          <mxGeometry y="90" width="280" height="30" as="geometry" />
        </mxCell>
        <mxCell id="xhAYmVNYJpzxV0qlQMDx-171" value="FK" style="shape=partialRectangle;overflow=hidden;connectable=0;fillColor=#dae8fc;strokeColor=#6c8ebf;top=0;left=0;bottom=0;right=0;fontStyle=1" vertex="1" parent="xhAYmVNYJpzxV0qlQMDx-170">
          <mxGeometry width="30" height="30" as="geometry">
            <mxRectangle width="30" height="30" as="alternateBounds" />
          </mxGeometry>
        </mxCell>
        <mxCell id="xhAYmVNYJpzxV0qlQMDx-172" value="permission_id int NOT NULL" style="shape=partialRectangle;overflow=hidden;connectable=0;fillColor=#dae8fc;align=left;strokeColor=#6c8ebf;top=0;left=0;bottom=0;right=0;spacingLeft=6;fontStyle=1" vertex="1" parent="xhAYmVNYJpzxV0qlQMDx-170">
          <mxGeometry x="30" width="250" height="30" as="geometry">
            <mxRectangle width="250" height="30" as="alternateBounds" />
          </mxGeometry>
        </mxCell>
        <mxCell id="xhAYmVNYJpzxV0qlQMDx-173" value="" style="shape=tableRow;horizontal=0;startSize=0;swimlaneHead=0;swimlaneBody=0;fillColor=none;collapsible=0;dropTarget=0;points=[[0,0.5],[1,0.5]];portConstraint=eastwest;strokeColor=inherit;top=0;left=0;right=0;bottom=0;" vertex="1" parent="xhAYmVNYJpzxV0qlQMDx-163">
          <mxGeometry y="120" width="280" height="30" as="geometry" />
        </mxCell>
        <mxCell id="xhAYmVNYJpzxV0qlQMDx-174" value="" style="shape=partialRectangle;overflow=hidden;connectable=0;fillColor=#dae8fc;strokeColor=#6c8ebf;top=0;left=0;bottom=0;right=0;" vertex="1" parent="xhAYmVNYJpzxV0qlQMDx-173">
          <mxGeometry width="30" height="30" as="geometry">
            <mxRectangle width="30" height="30" as="alternateBounds" />
          </mxGeometry>
        </mxCell>
        <mxCell id="xhAYmVNYJpzxV0qlQMDx-175" value="" style="shape=partialRectangle;overflow=hidden;connectable=0;fillColor=#dae8fc;align=left;strokeColor=#6c8ebf;top=0;left=0;bottom=0;right=0;spacingLeft=6;" vertex="1" parent="xhAYmVNYJpzxV0qlQMDx-173">
          <mxGeometry x="30" width="250" height="30" as="geometry">
            <mxRectangle width="250" height="30" as="alternateBounds" />
          </mxGeometry>
        </mxCell>
        <mxCell id="xhAYmVNYJpzxV0qlQMDx-176" value="" style="shape=tableRow;horizontal=0;startSize=0;swimlaneHead=0;swimlaneBody=0;fillColor=none;collapsible=0;dropTarget=0;points=[[0,0.5],[1,0.5]];portConstraint=eastwest;strokeColor=inherit;top=0;left=0;right=0;bottom=0;" vertex="1" parent="xhAYmVNYJpzxV0qlQMDx-163">
          <mxGeometry y="150" width="280" height="30" as="geometry" />
        </mxCell>
        <mxCell id="xhAYmVNYJpzxV0qlQMDx-177" value="" style="shape=partialRectangle;overflow=hidden;connectable=0;fillColor=#dae8fc;strokeColor=#6c8ebf;top=0;left=0;bottom=0;right=0;" vertex="1" parent="xhAYmVNYJpzxV0qlQMDx-176">
          <mxGeometry width="30" height="30" as="geometry">
            <mxRectangle width="30" height="30" as="alternateBounds" />
          </mxGeometry>
        </mxCell>
        <mxCell id="xhAYmVNYJpzxV0qlQMDx-178" value="" style="shape=partialRectangle;overflow=hidden;connectable=0;fillColor=#dae8fc;align=left;strokeColor=#6c8ebf;top=0;left=0;bottom=0;right=0;spacingLeft=6;" vertex="1" parent="xhAYmVNYJpzxV0qlQMDx-176">
          <mxGeometry x="30" width="250" height="30" as="geometry">
            <mxRectangle width="250" height="30" as="alternateBounds" />
          </mxGeometry>
        </mxCell>
        <mxCell id="xhAYmVNYJpzxV0qlQMDx-179" value="" style="shape=tableRow;horizontal=0;startSize=0;swimlaneHead=0;swimlaneBody=0;fillColor=none;collapsible=0;dropTarget=0;points=[[0,0.5],[1,0.5]];portConstraint=eastwest;strokeColor=inherit;top=0;left=0;right=0;bottom=0;" vertex="1" parent="xhAYmVNYJpzxV0qlQMDx-163">
          <mxGeometry y="180" width="280" height="30" as="geometry" />
        </mxCell>
        <mxCell id="xhAYmVNYJpzxV0qlQMDx-180" value="" style="shape=partialRectangle;overflow=hidden;connectable=0;fillColor=#dae8fc;strokeColor=#6c8ebf;top=0;left=0;bottom=0;right=0;" vertex="1" parent="xhAYmVNYJpzxV0qlQMDx-179">
          <mxGeometry width="30" height="30" as="geometry">
            <mxRectangle width="30" height="30" as="alternateBounds" />
          </mxGeometry>
        </mxCell>
        <mxCell id="xhAYmVNYJpzxV0qlQMDx-181" value="" style="shape=partialRectangle;overflow=hidden;connectable=0;fillColor=#dae8fc;align=left;strokeColor=#6c8ebf;top=0;left=0;bottom=0;right=0;spacingLeft=6;" vertex="1" parent="xhAYmVNYJpzxV0qlQMDx-179">
          <mxGeometry x="30" width="250" height="30" as="geometry">
            <mxRectangle width="250" height="30" as="alternateBounds" />
          </mxGeometry>
        </mxCell>
        <mxCell id="xhAYmVNYJpzxV0qlQMDx-182" value="" style="shape=tableRow;horizontal=0;startSize=0;swimlaneHead=0;swimlaneBody=0;fillColor=none;collapsible=0;dropTarget=0;points=[[0,0.5],[1,0.5]];portConstraint=eastwest;strokeColor=inherit;top=0;left=0;right=0;bottom=0;" vertex="1" parent="xhAYmVNYJpzxV0qlQMDx-163">
          <mxGeometry y="210" width="280" height="30" as="geometry" />
        </mxCell>
        <mxCell id="xhAYmVNYJpzxV0qlQMDx-183" value="" style="shape=partialRectangle;overflow=hidden;connectable=0;fillColor=#dae8fc;strokeColor=#6c8ebf;top=0;left=0;bottom=0;right=0;" vertex="1" parent="xhAYmVNYJpzxV0qlQMDx-182">
          <mxGeometry width="30" height="30" as="geometry">
            <mxRectangle width="30" height="30" as="alternateBounds" />
          </mxGeometry>
        </mxCell>
        <mxCell id="xhAYmVNYJpzxV0qlQMDx-184" value="" style="shape=partialRectangle;overflow=hidden;connectable=0;fillColor=#dae8fc;align=left;strokeColor=#6c8ebf;top=0;left=0;bottom=0;right=0;spacingLeft=6;" vertex="1" parent="xhAYmVNYJpzxV0qlQMDx-182">
          <mxGeometry x="30" width="250" height="30" as="geometry">
            <mxRectangle width="250" height="30" as="alternateBounds" />
          </mxGeometry>
        </mxCell>
        <mxCell id="xhAYmVNYJpzxV0qlQMDx-185" value="auth_permission" style="shape=table;startSize=30;container=1;collapsible=1;childLayout=tableLayout;fixedRows=1;rowLines=0;fontStyle=1;align=center;resizeLast=1;fillColor=#d5e8d4;strokeColor=#82b366;" vertex="1" parent="1">
          <mxGeometry x="-1010" y="670" width="260" height="210" as="geometry" />
        </mxCell>
        <mxCell id="xhAYmVNYJpzxV0qlQMDx-186" value="" style="shape=tableRow;horizontal=0;startSize=0;swimlaneHead=0;swimlaneBody=0;fillColor=none;collapsible=0;dropTarget=0;points=[[0,0.5],[1,0.5]];portConstraint=eastwest;strokeColor=inherit;top=0;left=0;right=0;bottom=1;" vertex="1" parent="xhAYmVNYJpzxV0qlQMDx-185">
          <mxGeometry y="30" width="260" height="30" as="geometry" />
        </mxCell>
        <mxCell id="xhAYmVNYJpzxV0qlQMDx-187" value="PK" style="shape=partialRectangle;overflow=hidden;connectable=0;fillColor=#fff2cc;strokeColor=#d6b656;top=0;left=0;bottom=0;right=0;fontStyle=1;" vertex="1" parent="xhAYmVNYJpzxV0qlQMDx-186">
          <mxGeometry width="30" height="30" as="geometry">
            <mxRectangle width="30" height="30" as="alternateBounds" />
          </mxGeometry>
        </mxCell>
        <mxCell id="xhAYmVNYJpzxV0qlQMDx-188" value="id int NOT NULL AUTO_INCREMENT" style="shape=partialRectangle;overflow=hidden;connectable=0;fillColor=#fff2cc;align=left;strokeColor=#d6b656;top=0;left=0;bottom=0;right=0;spacingLeft=6;fontStyle=1;" vertex="1" parent="xhAYmVNYJpzxV0qlQMDx-186">
          <mxGeometry x="30" width="230" height="30" as="geometry">
            <mxRectangle width="230" height="30" as="alternateBounds" />
          </mxGeometry>
        </mxCell>
        <mxCell id="xhAYmVNYJpzxV0qlQMDx-189" value="" style="shape=tableRow;horizontal=0;startSize=0;swimlaneHead=0;swimlaneBody=0;fillColor=none;collapsible=0;dropTarget=0;points=[[0,0.5],[1,0.5]];portConstraint=eastwest;strokeColor=inherit;top=0;left=0;right=0;bottom=0;" vertex="1" parent="xhAYmVNYJpzxV0qlQMDx-185">
          <mxGeometry y="60" width="260" height="30" as="geometry" />
        </mxCell>
        <mxCell id="xhAYmVNYJpzxV0qlQMDx-190" value="" style="shape=partialRectangle;overflow=hidden;connectable=0;fillColor=#dae8fc;strokeColor=#6c8ebf;top=0;left=0;bottom=0;right=0;" vertex="1" parent="xhAYmVNYJpzxV0qlQMDx-189">
          <mxGeometry width="30" height="30" as="geometry">
            <mxRectangle width="30" height="30" as="alternateBounds" />
          </mxGeometry>
        </mxCell>
        <mxCell id="xhAYmVNYJpzxV0qlQMDx-191" value="name varchar(255) NOT NULL" style="shape=partialRectangle;overflow=hidden;connectable=0;fillColor=#dae8fc;align=left;strokeColor=#6c8ebf;top=0;left=0;bottom=0;right=0;spacingLeft=6;fontStyle=1" vertex="1" parent="xhAYmVNYJpzxV0qlQMDx-189">
          <mxGeometry x="30" width="230" height="30" as="geometry">
            <mxRectangle width="230" height="30" as="alternateBounds" />
          </mxGeometry>
        </mxCell>
        <mxCell id="xhAYmVNYJpzxV0qlQMDx-192" value="" style="shape=tableRow;horizontal=0;startSize=0;swimlaneHead=0;swimlaneBody=0;fillColor=none;collapsible=0;dropTarget=0;points=[[0,0.5],[1,0.5]];portConstraint=eastwest;strokeColor=inherit;top=0;left=0;right=0;bottom=0;" vertex="1" parent="xhAYmVNYJpzxV0qlQMDx-185">
          <mxGeometry y="90" width="260" height="30" as="geometry" />
        </mxCell>
        <mxCell id="xhAYmVNYJpzxV0qlQMDx-193" value="FK" style="shape=partialRectangle;overflow=hidden;connectable=0;fillColor=#dae8fc;strokeColor=#6c8ebf;top=0;left=0;bottom=0;right=0;fontStyle=1" vertex="1" parent="xhAYmVNYJpzxV0qlQMDx-192">
          <mxGeometry width="30" height="30" as="geometry">
            <mxRectangle width="30" height="30" as="alternateBounds" />
          </mxGeometry>
        </mxCell>
        <mxCell id="xhAYmVNYJpzxV0qlQMDx-194" value="content_type_id int NOT NULL" style="shape=partialRectangle;overflow=hidden;connectable=0;fillColor=#dae8fc;align=left;strokeColor=#6c8ebf;top=0;left=0;bottom=0;right=0;spacingLeft=6;fontStyle=1" vertex="1" parent="xhAYmVNYJpzxV0qlQMDx-192">
          <mxGeometry x="30" width="230" height="30" as="geometry">
            <mxRectangle width="230" height="30" as="alternateBounds" />
          </mxGeometry>
        </mxCell>
        <mxCell id="xhAYmVNYJpzxV0qlQMDx-195" value="" style="shape=tableRow;horizontal=0;startSize=0;swimlaneHead=0;swimlaneBody=0;fillColor=none;collapsible=0;dropTarget=0;points=[[0,0.5],[1,0.5]];portConstraint=eastwest;strokeColor=inherit;top=0;left=0;right=0;bottom=0;" vertex="1" parent="xhAYmVNYJpzxV0qlQMDx-185">
          <mxGeometry y="120" width="260" height="30" as="geometry" />
        </mxCell>
        <mxCell id="xhAYmVNYJpzxV0qlQMDx-196" value="" style="shape=partialRectangle;overflow=hidden;connectable=0;fillColor=#dae8fc;strokeColor=#6c8ebf;top=0;left=0;bottom=0;right=0;" vertex="1" parent="xhAYmVNYJpzxV0qlQMDx-195">
          <mxGeometry width="30" height="30" as="geometry">
            <mxRectangle width="30" height="30" as="alternateBounds" />
          </mxGeometry>
        </mxCell>
        <mxCell id="xhAYmVNYJpzxV0qlQMDx-197" value="codename varchar(100) NOT NULL" style="shape=partialRectangle;overflow=hidden;connectable=0;fillColor=#dae8fc;align=left;strokeColor=#6c8ebf;top=0;left=0;bottom=0;right=0;spacingLeft=6;fontStyle=1" vertex="1" parent="xhAYmVNYJpzxV0qlQMDx-195">
          <mxGeometry x="30" width="230" height="30" as="geometry">
            <mxRectangle width="230" height="30" as="alternateBounds" />
          </mxGeometry>
        </mxCell>
        <mxCell id="xhAYmVNYJpzxV0qlQMDx-198" value="" style="shape=tableRow;horizontal=0;startSize=0;swimlaneHead=0;swimlaneBody=0;fillColor=none;collapsible=0;dropTarget=0;points=[[0,0.5],[1,0.5]];portConstraint=eastwest;strokeColor=inherit;top=0;left=0;right=0;bottom=0;" vertex="1" parent="xhAYmVNYJpzxV0qlQMDx-185">
          <mxGeometry y="150" width="260" height="30" as="geometry" />
        </mxCell>
        <mxCell id="xhAYmVNYJpzxV0qlQMDx-199" value="" style="shape=partialRectangle;overflow=hidden;connectable=0;fillColor=#dae8fc;strokeColor=#6c8ebf;top=0;left=0;bottom=0;right=0;" vertex="1" parent="xhAYmVNYJpzxV0qlQMDx-198">
          <mxGeometry width="30" height="30" as="geometry">
            <mxRectangle width="30" height="30" as="alternateBounds" />
          </mxGeometry>
        </mxCell>
        <mxCell id="xhAYmVNYJpzxV0qlQMDx-200" value="" style="shape=partialRectangle;overflow=hidden;connectable=0;fillColor=#dae8fc;align=left;strokeColor=#6c8ebf;top=0;left=0;bottom=0;right=0;spacingLeft=6;" vertex="1" parent="xhAYmVNYJpzxV0qlQMDx-198">
          <mxGeometry x="30" width="230" height="30" as="geometry">
            <mxRectangle width="230" height="30" as="alternateBounds" />
          </mxGeometry>
        </mxCell>
        <mxCell id="xhAYmVNYJpzxV0qlQMDx-201" value="" style="shape=tableRow;horizontal=0;startSize=0;swimlaneHead=0;swimlaneBody=0;fillColor=none;collapsible=0;dropTarget=0;points=[[0,0.5],[1,0.5]];portConstraint=eastwest;strokeColor=inherit;top=0;left=0;right=0;bottom=0;" vertex="1" parent="xhAYmVNYJpzxV0qlQMDx-185">
          <mxGeometry y="180" width="260" height="30" as="geometry" />
        </mxCell>
        <mxCell id="xhAYmVNYJpzxV0qlQMDx-202" value="" style="shape=partialRectangle;overflow=hidden;connectable=0;fillColor=#dae8fc;strokeColor=#6c8ebf;top=0;left=0;bottom=0;right=0;" vertex="1" parent="xhAYmVNYJpzxV0qlQMDx-201">
          <mxGeometry width="30" height="30" as="geometry">
            <mxRectangle width="30" height="30" as="alternateBounds" />
          </mxGeometry>
        </mxCell>
        <mxCell id="xhAYmVNYJpzxV0qlQMDx-203" value="" style="shape=partialRectangle;overflow=hidden;connectable=0;fillColor=#dae8fc;align=left;strokeColor=#6c8ebf;top=0;left=0;bottom=0;right=0;spacingLeft=6;" vertex="1" parent="xhAYmVNYJpzxV0qlQMDx-201">
          <mxGeometry x="30" width="230" height="30" as="geometry">
            <mxRectangle width="230" height="30" as="alternateBounds" />
          </mxGeometry>
        </mxCell>
        <mxCell id="xhAYmVNYJpzxV0qlQMDx-204" value="auth_user" style="shape=table;startSize=30;container=1;collapsible=1;childLayout=tableLayout;fixedRows=1;rowLines=0;fontStyle=1;align=center;resizeLast=1;fillColor=#d5e8d4;strokeColor=#82b366;" vertex="1" parent="1">
          <mxGeometry x="-1780" y="620" width="300" height="390" as="geometry" />
        </mxCell>
        <mxCell id="xhAYmVNYJpzxV0qlQMDx-205" value="" style="shape=tableRow;horizontal=0;startSize=0;swimlaneHead=0;swimlaneBody=0;fillColor=none;collapsible=0;dropTarget=0;points=[[0,0.5],[1,0.5]];portConstraint=eastwest;strokeColor=inherit;top=0;left=0;right=0;bottom=1;" vertex="1" parent="xhAYmVNYJpzxV0qlQMDx-204">
          <mxGeometry y="30" width="300" height="30" as="geometry" />
        </mxCell>
        <mxCell id="xhAYmVNYJpzxV0qlQMDx-206" value="PK" style="shape=partialRectangle;overflow=hidden;connectable=0;fillColor=#fff2cc;strokeColor=#d6b656;top=0;left=0;bottom=0;right=0;fontStyle=1;" vertex="1" parent="xhAYmVNYJpzxV0qlQMDx-205">
          <mxGeometry width="30" height="30" as="geometry">
            <mxRectangle width="30" height="30" as="alternateBounds" />
          </mxGeometry>
        </mxCell>
        <mxCell id="xhAYmVNYJpzxV0qlQMDx-207" value="id int NOT NULL AUTO INCREMENT" style="shape=partialRectangle;overflow=hidden;connectable=0;fillColor=#fff2cc;align=left;strokeColor=#d6b656;top=0;left=0;bottom=0;right=0;spacingLeft=6;fontStyle=1;" vertex="1" parent="xhAYmVNYJpzxV0qlQMDx-205">
          <mxGeometry x="30" width="270" height="30" as="geometry">
            <mxRectangle width="270" height="30" as="alternateBounds" />
          </mxGeometry>
        </mxCell>
        <mxCell id="xhAYmVNYJpzxV0qlQMDx-208" value="" style="shape=tableRow;horizontal=0;startSize=0;swimlaneHead=0;swimlaneBody=0;fillColor=none;collapsible=0;dropTarget=0;points=[[0,0.5],[1,0.5]];portConstraint=eastwest;strokeColor=inherit;top=0;left=0;right=0;bottom=0;" vertex="1" parent="xhAYmVNYJpzxV0qlQMDx-204">
          <mxGeometry y="60" width="300" height="30" as="geometry" />
        </mxCell>
        <mxCell id="xhAYmVNYJpzxV0qlQMDx-209" value="" style="shape=partialRectangle;overflow=hidden;connectable=0;fillColor=#dae8fc;strokeColor=#6c8ebf;top=0;left=0;bottom=0;right=0;" vertex="1" parent="xhAYmVNYJpzxV0qlQMDx-208">
          <mxGeometry width="30" height="30" as="geometry">
            <mxRectangle width="30" height="30" as="alternateBounds" />
          </mxGeometry>
        </mxCell>
        <mxCell id="xhAYmVNYJpzxV0qlQMDx-210" value="password varchar(128) NOT NULL" style="shape=partialRectangle;overflow=hidden;connectable=0;fillColor=#dae8fc;align=left;strokeColor=#6c8ebf;top=0;left=0;bottom=0;right=0;spacingLeft=6;fontStyle=1" vertex="1" parent="xhAYmVNYJpzxV0qlQMDx-208">
          <mxGeometry x="30" width="270" height="30" as="geometry">
            <mxRectangle width="270" height="30" as="alternateBounds" />
          </mxGeometry>
        </mxCell>
        <mxCell id="xhAYmVNYJpzxV0qlQMDx-211" value="" style="shape=tableRow;horizontal=0;startSize=0;swimlaneHead=0;swimlaneBody=0;fillColor=none;collapsible=0;dropTarget=0;points=[[0,0.5],[1,0.5]];portConstraint=eastwest;strokeColor=inherit;top=0;left=0;right=0;bottom=0;" vertex="1" parent="xhAYmVNYJpzxV0qlQMDx-204">
          <mxGeometry y="90" width="300" height="30" as="geometry" />
        </mxCell>
        <mxCell id="xhAYmVNYJpzxV0qlQMDx-212" value="" style="shape=partialRectangle;overflow=hidden;connectable=0;fillColor=#dae8fc;strokeColor=#6c8ebf;top=0;left=0;bottom=0;right=0;" vertex="1" parent="xhAYmVNYJpzxV0qlQMDx-211">
          <mxGeometry width="30" height="30" as="geometry">
            <mxRectangle width="30" height="30" as="alternateBounds" />
          </mxGeometry>
        </mxCell>
        <mxCell id="xhAYmVNYJpzxV0qlQMDx-213" value="last _login datetime(6) DEFAULT NULL" style="shape=partialRectangle;overflow=hidden;connectable=0;fillColor=#dae8fc;align=left;strokeColor=#6c8ebf;top=0;left=0;bottom=0;right=0;spacingLeft=6;fontStyle=1" vertex="1" parent="xhAYmVNYJpzxV0qlQMDx-211">
          <mxGeometry x="30" width="270" height="30" as="geometry">
            <mxRectangle width="270" height="30" as="alternateBounds" />
          </mxGeometry>
        </mxCell>
        <mxCell id="xhAYmVNYJpzxV0qlQMDx-214" value="" style="shape=tableRow;horizontal=0;startSize=0;swimlaneHead=0;swimlaneBody=0;fillColor=none;collapsible=0;dropTarget=0;points=[[0,0.5],[1,0.5]];portConstraint=eastwest;strokeColor=inherit;top=0;left=0;right=0;bottom=0;" vertex="1" parent="xhAYmVNYJpzxV0qlQMDx-204">
          <mxGeometry y="120" width="300" height="30" as="geometry" />
        </mxCell>
        <mxCell id="xhAYmVNYJpzxV0qlQMDx-215" value="" style="shape=partialRectangle;overflow=hidden;connectable=0;fillColor=#dae8fc;strokeColor=#6c8ebf;top=0;left=0;bottom=0;right=0;" vertex="1" parent="xhAYmVNYJpzxV0qlQMDx-214">
          <mxGeometry width="30" height="30" as="geometry">
            <mxRectangle width="30" height="30" as="alternateBounds" />
          </mxGeometry>
        </mxCell>
        <mxCell id="xhAYmVNYJpzxV0qlQMDx-216" value="is_superuser tinyint(1) NOT NULL" style="shape=partialRectangle;overflow=hidden;connectable=0;fillColor=#dae8fc;align=left;strokeColor=#6c8ebf;top=0;left=0;bottom=0;right=0;spacingLeft=6;fontStyle=1" vertex="1" parent="xhAYmVNYJpzxV0qlQMDx-214">
          <mxGeometry x="30" width="270" height="30" as="geometry">
            <mxRectangle width="270" height="30" as="alternateBounds" />
          </mxGeometry>
        </mxCell>
        <mxCell id="xhAYmVNYJpzxV0qlQMDx-217" value="" style="shape=tableRow;horizontal=0;startSize=0;swimlaneHead=0;swimlaneBody=0;fillColor=none;collapsible=0;dropTarget=0;points=[[0,0.5],[1,0.5]];portConstraint=eastwest;strokeColor=inherit;top=0;left=0;right=0;bottom=0;" vertex="1" parent="xhAYmVNYJpzxV0qlQMDx-204">
          <mxGeometry y="150" width="300" height="30" as="geometry" />
        </mxCell>
        <mxCell id="xhAYmVNYJpzxV0qlQMDx-218" value="" style="shape=partialRectangle;overflow=hidden;connectable=0;fillColor=#dae8fc;strokeColor=#6c8ebf;top=0;left=0;bottom=0;right=0;" vertex="1" parent="xhAYmVNYJpzxV0qlQMDx-217">
          <mxGeometry width="30" height="30" as="geometry">
            <mxRectangle width="30" height="30" as="alternateBounds" />
          </mxGeometry>
        </mxCell>
        <mxCell id="xhAYmVNYJpzxV0qlQMDx-219" value="username varchar(150) NOT NULL UNIQUE" style="shape=partialRectangle;overflow=hidden;connectable=0;fillColor=#dae8fc;align=left;strokeColor=#6c8ebf;top=0;left=0;bottom=0;right=0;spacingLeft=6;fontStyle=1" vertex="1" parent="xhAYmVNYJpzxV0qlQMDx-217">
          <mxGeometry x="30" width="270" height="30" as="geometry">
            <mxRectangle width="270" height="30" as="alternateBounds" />
          </mxGeometry>
        </mxCell>
        <mxCell id="xhAYmVNYJpzxV0qlQMDx-220" value="" style="shape=tableRow;horizontal=0;startSize=0;swimlaneHead=0;swimlaneBody=0;fillColor=none;collapsible=0;dropTarget=0;points=[[0,0.5],[1,0.5]];portConstraint=eastwest;strokeColor=inherit;top=0;left=0;right=0;bottom=0;" vertex="1" parent="xhAYmVNYJpzxV0qlQMDx-204">
          <mxGeometry y="180" width="300" height="30" as="geometry" />
        </mxCell>
        <mxCell id="xhAYmVNYJpzxV0qlQMDx-221" value="" style="shape=partialRectangle;overflow=hidden;connectable=0;fillColor=#dae8fc;strokeColor=#6c8ebf;top=0;left=0;bottom=0;right=0;" vertex="1" parent="xhAYmVNYJpzxV0qlQMDx-220">
          <mxGeometry width="30" height="30" as="geometry">
            <mxRectangle width="30" height="30" as="alternateBounds" />
          </mxGeometry>
        </mxCell>
        <mxCell id="xhAYmVNYJpzxV0qlQMDx-222" value="first_name varchar(150) NOT NULL" style="shape=partialRectangle;overflow=hidden;connectable=0;fillColor=#dae8fc;align=left;strokeColor=#6c8ebf;top=0;left=0;bottom=0;right=0;spacingLeft=6;fontStyle=1" vertex="1" parent="xhAYmVNYJpzxV0qlQMDx-220">
          <mxGeometry x="30" width="270" height="30" as="geometry">
            <mxRectangle width="270" height="30" as="alternateBounds" />
          </mxGeometry>
        </mxCell>
        <mxCell id="xhAYmVNYJpzxV0qlQMDx-223" value="" style="shape=tableRow;horizontal=0;startSize=0;swimlaneHead=0;swimlaneBody=0;fillColor=none;collapsible=0;dropTarget=0;points=[[0,0.5],[1,0.5]];portConstraint=eastwest;strokeColor=inherit;top=0;left=0;right=0;bottom=0;" vertex="1" parent="xhAYmVNYJpzxV0qlQMDx-204">
          <mxGeometry y="210" width="300" height="30" as="geometry" />
        </mxCell>
        <mxCell id="xhAYmVNYJpzxV0qlQMDx-224" value="" style="shape=partialRectangle;overflow=hidden;connectable=0;fillColor=#dae8fc;strokeColor=#6c8ebf;top=0;left=0;bottom=0;right=0;" vertex="1" parent="xhAYmVNYJpzxV0qlQMDx-223">
          <mxGeometry width="30" height="30" as="geometry">
            <mxRectangle width="30" height="30" as="alternateBounds" />
          </mxGeometry>
        </mxCell>
        <mxCell id="xhAYmVNYJpzxV0qlQMDx-225" value="last_name varchar(150) NOT NULL" style="shape=partialRectangle;overflow=hidden;connectable=0;fillColor=#dae8fc;align=left;strokeColor=#6c8ebf;top=0;left=0;bottom=0;right=0;spacingLeft=6;fontStyle=1" vertex="1" parent="xhAYmVNYJpzxV0qlQMDx-223">
          <mxGeometry x="30" width="270" height="30" as="geometry">
            <mxRectangle width="270" height="30" as="alternateBounds" />
          </mxGeometry>
        </mxCell>
        <mxCell id="xhAYmVNYJpzxV0qlQMDx-226" value="" style="shape=tableRow;horizontal=0;startSize=0;swimlaneHead=0;swimlaneBody=0;fillColor=none;collapsible=0;dropTarget=0;points=[[0,0.5],[1,0.5]];portConstraint=eastwest;strokeColor=inherit;top=0;left=0;right=0;bottom=0;" vertex="1" parent="xhAYmVNYJpzxV0qlQMDx-204">
          <mxGeometry y="240" width="300" height="30" as="geometry" />
        </mxCell>
        <mxCell id="xhAYmVNYJpzxV0qlQMDx-227" value="" style="shape=partialRectangle;overflow=hidden;connectable=0;fillColor=#dae8fc;strokeColor=#6c8ebf;top=0;left=0;bottom=0;right=0;" vertex="1" parent="xhAYmVNYJpzxV0qlQMDx-226">
          <mxGeometry width="30" height="30" as="geometry">
            <mxRectangle width="30" height="30" as="alternateBounds" />
          </mxGeometry>
        </mxCell>
        <mxCell id="xhAYmVNYJpzxV0qlQMDx-228" value="email varchar(254) NOT NULL" style="shape=partialRectangle;overflow=hidden;connectable=0;fillColor=#dae8fc;align=left;strokeColor=#6c8ebf;top=0;left=0;bottom=0;right=0;spacingLeft=6;fontStyle=1" vertex="1" parent="xhAYmVNYJpzxV0qlQMDx-226">
          <mxGeometry x="30" width="270" height="30" as="geometry">
            <mxRectangle width="270" height="30" as="alternateBounds" />
          </mxGeometry>
        </mxCell>
        <mxCell id="xhAYmVNYJpzxV0qlQMDx-229" value="" style="shape=tableRow;horizontal=0;startSize=0;swimlaneHead=0;swimlaneBody=0;fillColor=none;collapsible=0;dropTarget=0;points=[[0,0.5],[1,0.5]];portConstraint=eastwest;strokeColor=inherit;top=0;left=0;right=0;bottom=0;" vertex="1" parent="xhAYmVNYJpzxV0qlQMDx-204">
          <mxGeometry y="270" width="300" height="30" as="geometry" />
        </mxCell>
        <mxCell id="xhAYmVNYJpzxV0qlQMDx-230" value="" style="shape=partialRectangle;overflow=hidden;connectable=0;fillColor=#dae8fc;strokeColor=#6c8ebf;top=0;left=0;bottom=0;right=0;" vertex="1" parent="xhAYmVNYJpzxV0qlQMDx-229">
          <mxGeometry width="30" height="30" as="geometry">
            <mxRectangle width="30" height="30" as="alternateBounds" />
          </mxGeometry>
        </mxCell>
        <mxCell id="xhAYmVNYJpzxV0qlQMDx-231" value="is_staff tinyint(1) NOT NULL" style="shape=partialRectangle;overflow=hidden;connectable=0;fillColor=#dae8fc;align=left;strokeColor=#6c8ebf;top=0;left=0;bottom=0;right=0;spacingLeft=6;fontStyle=1" vertex="1" parent="xhAYmVNYJpzxV0qlQMDx-229">
          <mxGeometry x="30" width="270" height="30" as="geometry">
            <mxRectangle width="270" height="30" as="alternateBounds" />
          </mxGeometry>
        </mxCell>
        <mxCell id="xhAYmVNYJpzxV0qlQMDx-232" value="" style="shape=tableRow;horizontal=0;startSize=0;swimlaneHead=0;swimlaneBody=0;fillColor=none;collapsible=0;dropTarget=0;points=[[0,0.5],[1,0.5]];portConstraint=eastwest;strokeColor=inherit;top=0;left=0;right=0;bottom=0;" vertex="1" parent="xhAYmVNYJpzxV0qlQMDx-204">
          <mxGeometry y="300" width="300" height="30" as="geometry" />
        </mxCell>
        <mxCell id="xhAYmVNYJpzxV0qlQMDx-233" value="" style="shape=partialRectangle;overflow=hidden;connectable=0;fillColor=#dae8fc;strokeColor=#6c8ebf;top=0;left=0;bottom=0;right=0;" vertex="1" parent="xhAYmVNYJpzxV0qlQMDx-232">
          <mxGeometry width="30" height="30" as="geometry">
            <mxRectangle width="30" height="30" as="alternateBounds" />
          </mxGeometry>
        </mxCell>
        <mxCell id="xhAYmVNYJpzxV0qlQMDx-234" value="is_active tinyint(1) NOT NULL" style="shape=partialRectangle;overflow=hidden;connectable=0;fillColor=#dae8fc;align=left;strokeColor=#6c8ebf;top=0;left=0;bottom=0;right=0;spacingLeft=6;fontStyle=1" vertex="1" parent="xhAYmVNYJpzxV0qlQMDx-232">
          <mxGeometry x="30" width="270" height="30" as="geometry">
            <mxRectangle width="270" height="30" as="alternateBounds" />
          </mxGeometry>
        </mxCell>
        <mxCell id="xhAYmVNYJpzxV0qlQMDx-235" value="" style="shape=tableRow;horizontal=0;startSize=0;swimlaneHead=0;swimlaneBody=0;fillColor=none;collapsible=0;dropTarget=0;points=[[0,0.5],[1,0.5]];portConstraint=eastwest;strokeColor=inherit;top=0;left=0;right=0;bottom=0;" vertex="1" parent="xhAYmVNYJpzxV0qlQMDx-204">
          <mxGeometry y="330" width="300" height="30" as="geometry" />
        </mxCell>
        <mxCell id="xhAYmVNYJpzxV0qlQMDx-236" value="" style="shape=partialRectangle;overflow=hidden;connectable=0;fillColor=#dae8fc;strokeColor=#6c8ebf;top=0;left=0;bottom=0;right=0;" vertex="1" parent="xhAYmVNYJpzxV0qlQMDx-235">
          <mxGeometry width="30" height="30" as="geometry">
            <mxRectangle width="30" height="30" as="alternateBounds" />
          </mxGeometry>
        </mxCell>
        <mxCell id="xhAYmVNYJpzxV0qlQMDx-237" value="date_joined datetime(6) NOT NULL" style="shape=partialRectangle;overflow=hidden;connectable=0;fillColor=#dae8fc;align=left;strokeColor=#6c8ebf;top=0;left=0;bottom=0;right=0;spacingLeft=6;fontStyle=1" vertex="1" parent="xhAYmVNYJpzxV0qlQMDx-235">
          <mxGeometry x="30" width="270" height="30" as="geometry">
            <mxRectangle width="270" height="30" as="alternateBounds" />
          </mxGeometry>
        </mxCell>
        <mxCell id="xhAYmVNYJpzxV0qlQMDx-238" value="" style="shape=tableRow;horizontal=0;startSize=0;swimlaneHead=0;swimlaneBody=0;fillColor=none;collapsible=0;dropTarget=0;points=[[0,0.5],[1,0.5]];portConstraint=eastwest;strokeColor=inherit;top=0;left=0;right=0;bottom=0;" vertex="1" parent="xhAYmVNYJpzxV0qlQMDx-204">
          <mxGeometry y="360" width="300" height="30" as="geometry" />
        </mxCell>
        <mxCell id="xhAYmVNYJpzxV0qlQMDx-239" value="" style="shape=partialRectangle;overflow=hidden;connectable=0;fillColor=#dae8fc;strokeColor=#6c8ebf;top=0;left=0;bottom=0;right=0;" vertex="1" parent="xhAYmVNYJpzxV0qlQMDx-238">
          <mxGeometry width="30" height="30" as="geometry">
            <mxRectangle width="30" height="30" as="alternateBounds" />
          </mxGeometry>
        </mxCell>
        <mxCell id="xhAYmVNYJpzxV0qlQMDx-240" value="" style="shape=partialRectangle;overflow=hidden;connectable=0;fillColor=#dae8fc;align=left;strokeColor=#6c8ebf;top=0;left=0;bottom=0;right=0;spacingLeft=6;" vertex="1" parent="xhAYmVNYJpzxV0qlQMDx-238">
          <mxGeometry x="30" width="270" height="30" as="geometry">
            <mxRectangle width="270" height="30" as="alternateBounds" />
          </mxGeometry>
        </mxCell>
        <mxCell id="xhAYmVNYJpzxV0qlQMDx-241" value="auth_user_groups" style="shape=table;startSize=30;container=1;collapsible=1;childLayout=tableLayout;fixedRows=1;rowLines=0;fontStyle=1;align=center;resizeLast=1;fillColor=#d5e8d4;strokeColor=#82b366;" vertex="1" parent="1">
          <mxGeometry x="-1420" y="390" width="270" height="240" as="geometry" />
        </mxCell>
        <mxCell id="xhAYmVNYJpzxV0qlQMDx-242" value="" style="shape=tableRow;horizontal=0;startSize=0;swimlaneHead=0;swimlaneBody=0;fillColor=none;collapsible=0;dropTarget=0;points=[[0,0.5],[1,0.5]];portConstraint=eastwest;strokeColor=inherit;top=0;left=0;right=0;bottom=1;" vertex="1" parent="xhAYmVNYJpzxV0qlQMDx-241">
          <mxGeometry y="30" width="270" height="30" as="geometry" />
        </mxCell>
        <mxCell id="xhAYmVNYJpzxV0qlQMDx-243" value="PK" style="shape=partialRectangle;overflow=hidden;connectable=0;fillColor=#fff2cc;strokeColor=#d6b656;top=0;left=0;bottom=0;right=0;fontStyle=1;" vertex="1" parent="xhAYmVNYJpzxV0qlQMDx-242">
          <mxGeometry width="30" height="30" as="geometry">
            <mxRectangle width="30" height="30" as="alternateBounds" />
          </mxGeometry>
        </mxCell>
        <mxCell id="xhAYmVNYJpzxV0qlQMDx-244" value="id bigint NOT NULL AUTO_INCREMENT" style="shape=partialRectangle;overflow=hidden;connectable=0;fillColor=#fff2cc;align=left;strokeColor=#d6b656;top=0;left=0;bottom=0;right=0;spacingLeft=6;fontStyle=1;" vertex="1" parent="xhAYmVNYJpzxV0qlQMDx-242">
          <mxGeometry x="30" width="240" height="30" as="geometry">
            <mxRectangle width="240" height="30" as="alternateBounds" />
          </mxGeometry>
        </mxCell>
        <mxCell id="xhAYmVNYJpzxV0qlQMDx-245" value="" style="shape=tableRow;horizontal=0;startSize=0;swimlaneHead=0;swimlaneBody=0;fillColor=none;collapsible=0;dropTarget=0;points=[[0,0.5],[1,0.5]];portConstraint=eastwest;strokeColor=inherit;top=0;left=0;right=0;bottom=0;" vertex="1" parent="xhAYmVNYJpzxV0qlQMDx-241">
          <mxGeometry y="60" width="270" height="30" as="geometry" />
        </mxCell>
        <mxCell id="xhAYmVNYJpzxV0qlQMDx-246" value="FK" style="shape=partialRectangle;overflow=hidden;connectable=0;fillColor=#dae8fc;strokeColor=#6c8ebf;top=0;left=0;bottom=0;right=0;fontStyle=1" vertex="1" parent="xhAYmVNYJpzxV0qlQMDx-245">
          <mxGeometry width="30" height="30" as="geometry">
            <mxRectangle width="30" height="30" as="alternateBounds" />
          </mxGeometry>
        </mxCell>
        <mxCell id="xhAYmVNYJpzxV0qlQMDx-247" value="user_id int NOT NULL" style="shape=partialRectangle;overflow=hidden;connectable=0;fillColor=#dae8fc;align=left;strokeColor=#6c8ebf;top=0;left=0;bottom=0;right=0;spacingLeft=6;fontStyle=1" vertex="1" parent="xhAYmVNYJpzxV0qlQMDx-245">
          <mxGeometry x="30" width="240" height="30" as="geometry">
            <mxRectangle width="240" height="30" as="alternateBounds" />
          </mxGeometry>
        </mxCell>
        <mxCell id="xhAYmVNYJpzxV0qlQMDx-248" value="" style="shape=tableRow;horizontal=0;startSize=0;swimlaneHead=0;swimlaneBody=0;fillColor=none;collapsible=0;dropTarget=0;points=[[0,0.5],[1,0.5]];portConstraint=eastwest;strokeColor=inherit;top=0;left=0;right=0;bottom=0;" vertex="1" parent="xhAYmVNYJpzxV0qlQMDx-241">
          <mxGeometry y="90" width="270" height="30" as="geometry" />
        </mxCell>
        <mxCell id="xhAYmVNYJpzxV0qlQMDx-249" value="FK" style="shape=partialRectangle;overflow=hidden;connectable=0;fillColor=#dae8fc;strokeColor=#6c8ebf;top=0;left=0;bottom=0;right=0;fontStyle=1" vertex="1" parent="xhAYmVNYJpzxV0qlQMDx-248">
          <mxGeometry width="30" height="30" as="geometry">
            <mxRectangle width="30" height="30" as="alternateBounds" />
          </mxGeometry>
        </mxCell>
        <mxCell id="xhAYmVNYJpzxV0qlQMDx-250" value="group_id int NOT NULL" style="shape=partialRectangle;overflow=hidden;connectable=0;fillColor=#dae8fc;align=left;strokeColor=#6c8ebf;top=0;left=0;bottom=0;right=0;spacingLeft=6;fontStyle=1" vertex="1" parent="xhAYmVNYJpzxV0qlQMDx-248">
          <mxGeometry x="30" width="240" height="30" as="geometry">
            <mxRectangle width="240" height="30" as="alternateBounds" />
          </mxGeometry>
        </mxCell>
        <mxCell id="xhAYmVNYJpzxV0qlQMDx-251" value="" style="shape=tableRow;horizontal=0;startSize=0;swimlaneHead=0;swimlaneBody=0;fillColor=none;collapsible=0;dropTarget=0;points=[[0,0.5],[1,0.5]];portConstraint=eastwest;strokeColor=inherit;top=0;left=0;right=0;bottom=0;" vertex="1" parent="xhAYmVNYJpzxV0qlQMDx-241">
          <mxGeometry y="120" width="270" height="30" as="geometry" />
        </mxCell>
        <mxCell id="xhAYmVNYJpzxV0qlQMDx-252" value="" style="shape=partialRectangle;overflow=hidden;connectable=0;fillColor=#dae8fc;strokeColor=#6c8ebf;top=0;left=0;bottom=0;right=0;" vertex="1" parent="xhAYmVNYJpzxV0qlQMDx-251">
          <mxGeometry width="30" height="30" as="geometry">
            <mxRectangle width="30" height="30" as="alternateBounds" />
          </mxGeometry>
        </mxCell>
        <mxCell id="xhAYmVNYJpzxV0qlQMDx-253" value="" style="shape=partialRectangle;overflow=hidden;connectable=0;fillColor=#dae8fc;align=left;strokeColor=#6c8ebf;top=0;left=0;bottom=0;right=0;spacingLeft=6;" vertex="1" parent="xhAYmVNYJpzxV0qlQMDx-251">
          <mxGeometry x="30" width="240" height="30" as="geometry">
            <mxRectangle width="240" height="30" as="alternateBounds" />
          </mxGeometry>
        </mxCell>
        <mxCell id="xhAYmVNYJpzxV0qlQMDx-254" value="" style="shape=tableRow;horizontal=0;startSize=0;swimlaneHead=0;swimlaneBody=0;fillColor=none;collapsible=0;dropTarget=0;points=[[0,0.5],[1,0.5]];portConstraint=eastwest;strokeColor=inherit;top=0;left=0;right=0;bottom=0;" vertex="1" parent="xhAYmVNYJpzxV0qlQMDx-241">
          <mxGeometry y="150" width="270" height="30" as="geometry" />
        </mxCell>
        <mxCell id="xhAYmVNYJpzxV0qlQMDx-255" value="" style="shape=partialRectangle;overflow=hidden;connectable=0;fillColor=#dae8fc;strokeColor=#6c8ebf;top=0;left=0;bottom=0;right=0;" vertex="1" parent="xhAYmVNYJpzxV0qlQMDx-254">
          <mxGeometry width="30" height="30" as="geometry">
            <mxRectangle width="30" height="30" as="alternateBounds" />
          </mxGeometry>
        </mxCell>
        <mxCell id="xhAYmVNYJpzxV0qlQMDx-256" value="" style="shape=partialRectangle;overflow=hidden;connectable=0;fillColor=#dae8fc;align=left;strokeColor=#6c8ebf;top=0;left=0;bottom=0;right=0;spacingLeft=6;" vertex="1" parent="xhAYmVNYJpzxV0qlQMDx-254">
          <mxGeometry x="30" width="240" height="30" as="geometry">
            <mxRectangle width="240" height="30" as="alternateBounds" />
          </mxGeometry>
        </mxCell>
        <mxCell id="xhAYmVNYJpzxV0qlQMDx-257" value="" style="shape=tableRow;horizontal=0;startSize=0;swimlaneHead=0;swimlaneBody=0;fillColor=none;collapsible=0;dropTarget=0;points=[[0,0.5],[1,0.5]];portConstraint=eastwest;strokeColor=inherit;top=0;left=0;right=0;bottom=0;" vertex="1" parent="xhAYmVNYJpzxV0qlQMDx-241">
          <mxGeometry y="180" width="270" height="30" as="geometry" />
        </mxCell>
        <mxCell id="xhAYmVNYJpzxV0qlQMDx-258" value="" style="shape=partialRectangle;overflow=hidden;connectable=0;fillColor=#dae8fc;strokeColor=#6c8ebf;top=0;left=0;bottom=0;right=0;" vertex="1" parent="xhAYmVNYJpzxV0qlQMDx-257">
          <mxGeometry width="30" height="30" as="geometry">
            <mxRectangle width="30" height="30" as="alternateBounds" />
          </mxGeometry>
        </mxCell>
        <mxCell id="xhAYmVNYJpzxV0qlQMDx-259" value="" style="shape=partialRectangle;overflow=hidden;connectable=0;fillColor=#dae8fc;align=left;strokeColor=#6c8ebf;top=0;left=0;bottom=0;right=0;spacingLeft=6;" vertex="1" parent="xhAYmVNYJpzxV0qlQMDx-257">
          <mxGeometry x="30" width="240" height="30" as="geometry">
            <mxRectangle width="240" height="30" as="alternateBounds" />
          </mxGeometry>
        </mxCell>
        <mxCell id="xhAYmVNYJpzxV0qlQMDx-260" value="" style="shape=tableRow;horizontal=0;startSize=0;swimlaneHead=0;swimlaneBody=0;fillColor=none;collapsible=0;dropTarget=0;points=[[0,0.5],[1,0.5]];portConstraint=eastwest;strokeColor=inherit;top=0;left=0;right=0;bottom=0;" vertex="1" parent="xhAYmVNYJpzxV0qlQMDx-241">
          <mxGeometry y="210" width="270" height="30" as="geometry" />
        </mxCell>
        <mxCell id="xhAYmVNYJpzxV0qlQMDx-261" value="" style="shape=partialRectangle;overflow=hidden;connectable=0;fillColor=#dae8fc;strokeColor=#6c8ebf;top=0;left=0;bottom=0;right=0;" vertex="1" parent="xhAYmVNYJpzxV0qlQMDx-260">
          <mxGeometry width="30" height="30" as="geometry">
            <mxRectangle width="30" height="30" as="alternateBounds" />
          </mxGeometry>
        </mxCell>
        <mxCell id="xhAYmVNYJpzxV0qlQMDx-262" value="" style="shape=partialRectangle;overflow=hidden;connectable=0;fillColor=#dae8fc;align=left;strokeColor=#6c8ebf;top=0;left=0;bottom=0;right=0;spacingLeft=6;" vertex="1" parent="xhAYmVNYJpzxV0qlQMDx-260">
          <mxGeometry x="30" width="240" height="30" as="geometry">
            <mxRectangle width="240" height="30" as="alternateBounds" />
          </mxGeometry>
        </mxCell>
        <mxCell id="xhAYmVNYJpzxV0qlQMDx-263" value="auth_user_user_permissions" style="shape=table;startSize=30;container=1;collapsible=1;childLayout=tableLayout;fixedRows=1;rowLines=0;fontStyle=1;align=center;resizeLast=1;fillColor=#d5e8d4;strokeColor=#82b366;" vertex="1" parent="1">
          <mxGeometry x="-1420" y="670" width="270" height="240" as="geometry" />
        </mxCell>
        <mxCell id="xhAYmVNYJpzxV0qlQMDx-264" value="" style="shape=tableRow;horizontal=0;startSize=0;swimlaneHead=0;swimlaneBody=0;fillColor=none;collapsible=0;dropTarget=0;points=[[0,0.5],[1,0.5]];portConstraint=eastwest;strokeColor=inherit;top=0;left=0;right=0;bottom=1;" vertex="1" parent="xhAYmVNYJpzxV0qlQMDx-263">
          <mxGeometry y="30" width="270" height="30" as="geometry" />
        </mxCell>
        <mxCell id="xhAYmVNYJpzxV0qlQMDx-265" value="PK" style="shape=partialRectangle;overflow=hidden;connectable=0;fillColor=#fff2cc;strokeColor=#d6b656;top=0;left=0;bottom=0;right=0;fontStyle=1;" vertex="1" parent="xhAYmVNYJpzxV0qlQMDx-264">
          <mxGeometry width="30" height="30" as="geometry">
            <mxRectangle width="30" height="30" as="alternateBounds" />
          </mxGeometry>
        </mxCell>
        <mxCell id="xhAYmVNYJpzxV0qlQMDx-266" value="id bigint NOT NULL AUTO_INCREMENT" style="shape=partialRectangle;overflow=hidden;connectable=0;fillColor=#fff2cc;align=left;strokeColor=#d6b656;top=0;left=0;bottom=0;right=0;spacingLeft=6;fontStyle=1;" vertex="1" parent="xhAYmVNYJpzxV0qlQMDx-264">
          <mxGeometry x="30" width="240" height="30" as="geometry">
            <mxRectangle width="240" height="30" as="alternateBounds" />
          </mxGeometry>
        </mxCell>
        <mxCell id="xhAYmVNYJpzxV0qlQMDx-267" value="" style="shape=tableRow;horizontal=0;startSize=0;swimlaneHead=0;swimlaneBody=0;fillColor=none;collapsible=0;dropTarget=0;points=[[0,0.5],[1,0.5]];portConstraint=eastwest;strokeColor=inherit;top=0;left=0;right=0;bottom=0;" vertex="1" parent="xhAYmVNYJpzxV0qlQMDx-263">
          <mxGeometry y="60" width="270" height="30" as="geometry" />
        </mxCell>
        <mxCell id="xhAYmVNYJpzxV0qlQMDx-268" value="FK" style="shape=partialRectangle;overflow=hidden;connectable=0;fillColor=#dae8fc;strokeColor=#6c8ebf;top=0;left=0;bottom=0;right=0;fontStyle=1" vertex="1" parent="xhAYmVNYJpzxV0qlQMDx-267">
          <mxGeometry width="30" height="30" as="geometry">
            <mxRectangle width="30" height="30" as="alternateBounds" />
          </mxGeometry>
        </mxCell>
        <mxCell id="xhAYmVNYJpzxV0qlQMDx-269" value="user_id int NOT NULL" style="shape=partialRectangle;overflow=hidden;connectable=0;fillColor=#dae8fc;align=left;strokeColor=#6c8ebf;top=0;left=0;bottom=0;right=0;spacingLeft=6;fontStyle=1" vertex="1" parent="xhAYmVNYJpzxV0qlQMDx-267">
          <mxGeometry x="30" width="240" height="30" as="geometry">
            <mxRectangle width="240" height="30" as="alternateBounds" />
          </mxGeometry>
        </mxCell>
        <mxCell id="xhAYmVNYJpzxV0qlQMDx-270" value="" style="shape=tableRow;horizontal=0;startSize=0;swimlaneHead=0;swimlaneBody=0;fillColor=none;collapsible=0;dropTarget=0;points=[[0,0.5],[1,0.5]];portConstraint=eastwest;strokeColor=inherit;top=0;left=0;right=0;bottom=0;" vertex="1" parent="xhAYmVNYJpzxV0qlQMDx-263">
          <mxGeometry y="90" width="270" height="30" as="geometry" />
        </mxCell>
        <mxCell id="xhAYmVNYJpzxV0qlQMDx-271" value="FK" style="shape=partialRectangle;overflow=hidden;connectable=0;fillColor=#dae8fc;strokeColor=#6c8ebf;top=0;left=0;bottom=0;right=0;fontStyle=1" vertex="1" parent="xhAYmVNYJpzxV0qlQMDx-270">
          <mxGeometry width="30" height="30" as="geometry">
            <mxRectangle width="30" height="30" as="alternateBounds" />
          </mxGeometry>
        </mxCell>
        <mxCell id="xhAYmVNYJpzxV0qlQMDx-272" value="permission_id int NOT NULL" style="shape=partialRectangle;overflow=hidden;connectable=0;fillColor=#dae8fc;align=left;strokeColor=#6c8ebf;top=0;left=0;bottom=0;right=0;spacingLeft=6;fontStyle=1" vertex="1" parent="xhAYmVNYJpzxV0qlQMDx-270">
          <mxGeometry x="30" width="240" height="30" as="geometry">
            <mxRectangle width="240" height="30" as="alternateBounds" />
          </mxGeometry>
        </mxCell>
        <mxCell id="xhAYmVNYJpzxV0qlQMDx-273" value="" style="shape=tableRow;horizontal=0;startSize=0;swimlaneHead=0;swimlaneBody=0;fillColor=none;collapsible=0;dropTarget=0;points=[[0,0.5],[1,0.5]];portConstraint=eastwest;strokeColor=inherit;top=0;left=0;right=0;bottom=0;" vertex="1" parent="xhAYmVNYJpzxV0qlQMDx-263">
          <mxGeometry y="120" width="270" height="30" as="geometry" />
        </mxCell>
        <mxCell id="xhAYmVNYJpzxV0qlQMDx-274" value="" style="shape=partialRectangle;overflow=hidden;connectable=0;fillColor=#dae8fc;strokeColor=#6c8ebf;top=0;left=0;bottom=0;right=0;" vertex="1" parent="xhAYmVNYJpzxV0qlQMDx-273">
          <mxGeometry width="30" height="30" as="geometry">
            <mxRectangle width="30" height="30" as="alternateBounds" />
          </mxGeometry>
        </mxCell>
        <mxCell id="xhAYmVNYJpzxV0qlQMDx-275" value="" style="shape=partialRectangle;overflow=hidden;connectable=0;fillColor=#dae8fc;align=left;strokeColor=#6c8ebf;top=0;left=0;bottom=0;right=0;spacingLeft=6;" vertex="1" parent="xhAYmVNYJpzxV0qlQMDx-273">
          <mxGeometry x="30" width="240" height="30" as="geometry">
            <mxRectangle width="240" height="30" as="alternateBounds" />
          </mxGeometry>
        </mxCell>
        <mxCell id="xhAYmVNYJpzxV0qlQMDx-276" value="" style="shape=tableRow;horizontal=0;startSize=0;swimlaneHead=0;swimlaneBody=0;fillColor=none;collapsible=0;dropTarget=0;points=[[0,0.5],[1,0.5]];portConstraint=eastwest;strokeColor=inherit;top=0;left=0;right=0;bottom=0;" vertex="1" parent="xhAYmVNYJpzxV0qlQMDx-263">
          <mxGeometry y="150" width="270" height="30" as="geometry" />
        </mxCell>
        <mxCell id="xhAYmVNYJpzxV0qlQMDx-277" value="" style="shape=partialRectangle;overflow=hidden;connectable=0;fillColor=#dae8fc;strokeColor=#6c8ebf;top=0;left=0;bottom=0;right=0;" vertex="1" parent="xhAYmVNYJpzxV0qlQMDx-276">
          <mxGeometry width="30" height="30" as="geometry">
            <mxRectangle width="30" height="30" as="alternateBounds" />
          </mxGeometry>
        </mxCell>
        <mxCell id="xhAYmVNYJpzxV0qlQMDx-278" value="" style="shape=partialRectangle;overflow=hidden;connectable=0;fillColor=#dae8fc;align=left;strokeColor=#6c8ebf;top=0;left=0;bottom=0;right=0;spacingLeft=6;" vertex="1" parent="xhAYmVNYJpzxV0qlQMDx-276">
          <mxGeometry x="30" width="240" height="30" as="geometry">
            <mxRectangle width="240" height="30" as="alternateBounds" />
          </mxGeometry>
        </mxCell>
        <mxCell id="xhAYmVNYJpzxV0qlQMDx-279" value="" style="shape=tableRow;horizontal=0;startSize=0;swimlaneHead=0;swimlaneBody=0;fillColor=none;collapsible=0;dropTarget=0;points=[[0,0.5],[1,0.5]];portConstraint=eastwest;strokeColor=inherit;top=0;left=0;right=0;bottom=0;" vertex="1" parent="xhAYmVNYJpzxV0qlQMDx-263">
          <mxGeometry y="180" width="270" height="30" as="geometry" />
        </mxCell>
        <mxCell id="xhAYmVNYJpzxV0qlQMDx-280" value="" style="shape=partialRectangle;overflow=hidden;connectable=0;fillColor=#dae8fc;strokeColor=#6c8ebf;top=0;left=0;bottom=0;right=0;" vertex="1" parent="xhAYmVNYJpzxV0qlQMDx-279">
          <mxGeometry width="30" height="30" as="geometry">
            <mxRectangle width="30" height="30" as="alternateBounds" />
          </mxGeometry>
        </mxCell>
        <mxCell id="xhAYmVNYJpzxV0qlQMDx-281" value="" style="shape=partialRectangle;overflow=hidden;connectable=0;fillColor=#dae8fc;align=left;strokeColor=#6c8ebf;top=0;left=0;bottom=0;right=0;spacingLeft=6;" vertex="1" parent="xhAYmVNYJpzxV0qlQMDx-279">
          <mxGeometry x="30" width="240" height="30" as="geometry">
            <mxRectangle width="240" height="30" as="alternateBounds" />
          </mxGeometry>
        </mxCell>
        <mxCell id="xhAYmVNYJpzxV0qlQMDx-282" value="" style="shape=tableRow;horizontal=0;startSize=0;swimlaneHead=0;swimlaneBody=0;fillColor=none;collapsible=0;dropTarget=0;points=[[0,0.5],[1,0.5]];portConstraint=eastwest;strokeColor=inherit;top=0;left=0;right=0;bottom=0;" vertex="1" parent="xhAYmVNYJpzxV0qlQMDx-263">
          <mxGeometry y="210" width="270" height="30" as="geometry" />
        </mxCell>
        <mxCell id="xhAYmVNYJpzxV0qlQMDx-283" value="" style="shape=partialRectangle;overflow=hidden;connectable=0;fillColor=#dae8fc;strokeColor=#6c8ebf;top=0;left=0;bottom=0;right=0;" vertex="1" parent="xhAYmVNYJpzxV0qlQMDx-282">
          <mxGeometry width="30" height="30" as="geometry">
            <mxRectangle width="30" height="30" as="alternateBounds" />
          </mxGeometry>
        </mxCell>
        <mxCell id="xhAYmVNYJpzxV0qlQMDx-284" value="" style="shape=partialRectangle;overflow=hidden;connectable=0;fillColor=#dae8fc;align=left;strokeColor=#6c8ebf;top=0;left=0;bottom=0;right=0;spacingLeft=6;" vertex="1" parent="xhAYmVNYJpzxV0qlQMDx-282">
          <mxGeometry x="30" width="240" height="30" as="geometry">
            <mxRectangle width="240" height="30" as="alternateBounds" />
          </mxGeometry>
        </mxCell>
        <mxCell id="xhAYmVNYJpzxV0qlQMDx-285" value="django_admin_log" style="shape=table;startSize=30;container=1;collapsible=1;childLayout=tableLayout;fixedRows=1;rowLines=0;fontStyle=1;align=center;resizeLast=1;fillColor=#d5e8d4;strokeColor=#82b366;" vertex="1" parent="1">
          <mxGeometry x="-1420" y="940" width="290" height="423.0000000000002" as="geometry" />
        </mxCell>
        <mxCell id="xhAYmVNYJpzxV0qlQMDx-286" value="" style="shape=tableRow;horizontal=0;startSize=0;swimlaneHead=0;swimlaneBody=0;fillColor=none;collapsible=0;dropTarget=0;points=[[0,0.5],[1,0.5]];portConstraint=eastwest;strokeColor=inherit;top=0;left=0;right=0;bottom=1;" vertex="1" parent="xhAYmVNYJpzxV0qlQMDx-285">
          <mxGeometry y="30" width="290" height="30" as="geometry" />
        </mxCell>
        <mxCell id="xhAYmVNYJpzxV0qlQMDx-287" value="PK" style="shape=partialRectangle;overflow=hidden;connectable=0;fillColor=#fff2cc;strokeColor=#d6b656;top=0;left=0;bottom=0;right=0;fontStyle=1;" vertex="1" parent="xhAYmVNYJpzxV0qlQMDx-286">
          <mxGeometry width="30" height="30" as="geometry">
            <mxRectangle width="30" height="30" as="alternateBounds" />
          </mxGeometry>
        </mxCell>
        <mxCell id="xhAYmVNYJpzxV0qlQMDx-288" value="id int NOT NULL AUTO_INCREMENT" style="shape=partialRectangle;overflow=hidden;connectable=0;fillColor=#fff2cc;align=left;strokeColor=#d6b656;top=0;left=0;bottom=0;right=0;spacingLeft=6;fontStyle=1;" vertex="1" parent="xhAYmVNYJpzxV0qlQMDx-286">
          <mxGeometry x="30" width="260" height="30" as="geometry">
            <mxRectangle width="260" height="30" as="alternateBounds" />
          </mxGeometry>
        </mxCell>
        <mxCell id="xhAYmVNYJpzxV0qlQMDx-289" value="" style="shape=tableRow;horizontal=0;startSize=0;swimlaneHead=0;swimlaneBody=0;fillColor=none;collapsible=0;dropTarget=0;points=[[0,0.5],[1,0.5]];portConstraint=eastwest;strokeColor=inherit;top=0;left=0;right=0;bottom=0;" vertex="1" parent="xhAYmVNYJpzxV0qlQMDx-285">
          <mxGeometry y="60" width="290" height="30" as="geometry" />
        </mxCell>
        <mxCell id="xhAYmVNYJpzxV0qlQMDx-290" value="" style="shape=partialRectangle;overflow=hidden;connectable=0;fillColor=#dae8fc;strokeColor=#6c8ebf;top=0;left=0;bottom=0;right=0;" vertex="1" parent="xhAYmVNYJpzxV0qlQMDx-289">
          <mxGeometry width="30" height="30" as="geometry">
            <mxRectangle width="30" height="30" as="alternateBounds" />
          </mxGeometry>
        </mxCell>
        <mxCell id="xhAYmVNYJpzxV0qlQMDx-291" value="action_time datetime(6) NOT NULL" style="shape=partialRectangle;overflow=hidden;connectable=0;fillColor=#dae8fc;align=left;strokeColor=#6c8ebf;top=0;left=0;bottom=0;right=0;spacingLeft=6;fontStyle=1" vertex="1" parent="xhAYmVNYJpzxV0qlQMDx-289">
          <mxGeometry x="30" width="260" height="30" as="geometry">
            <mxRectangle width="260" height="30" as="alternateBounds" />
          </mxGeometry>
        </mxCell>
        <mxCell id="xhAYmVNYJpzxV0qlQMDx-292" value="" style="shape=tableRow;horizontal=0;startSize=0;swimlaneHead=0;swimlaneBody=0;fillColor=none;collapsible=0;dropTarget=0;points=[[0,0.5],[1,0.5]];portConstraint=eastwest;strokeColor=inherit;top=0;left=0;right=0;bottom=0;" vertex="1" parent="xhAYmVNYJpzxV0qlQMDx-285">
          <mxGeometry y="90" width="290" height="30" as="geometry" />
        </mxCell>
        <mxCell id="xhAYmVNYJpzxV0qlQMDx-293" value="" style="shape=partialRectangle;overflow=hidden;connectable=0;fillColor=#dae8fc;strokeColor=#6c8ebf;top=0;left=0;bottom=0;right=0;" vertex="1" parent="xhAYmVNYJpzxV0qlQMDx-292">
          <mxGeometry width="30" height="30" as="geometry">
            <mxRectangle width="30" height="30" as="alternateBounds" />
          </mxGeometry>
        </mxCell>
        <mxCell id="xhAYmVNYJpzxV0qlQMDx-294" value="object_id longtext" style="shape=partialRectangle;overflow=hidden;connectable=0;fillColor=#dae8fc;align=left;strokeColor=#6c8ebf;top=0;left=0;bottom=0;right=0;spacingLeft=6;fontStyle=1" vertex="1" parent="xhAYmVNYJpzxV0qlQMDx-292">
          <mxGeometry x="30" width="260" height="30" as="geometry">
            <mxRectangle width="260" height="30" as="alternateBounds" />
          </mxGeometry>
        </mxCell>
        <mxCell id="xhAYmVNYJpzxV0qlQMDx-295" value="" style="shape=tableRow;horizontal=0;startSize=0;swimlaneHead=0;swimlaneBody=0;fillColor=none;collapsible=0;dropTarget=0;points=[[0,0.5],[1,0.5]];portConstraint=eastwest;strokeColor=inherit;top=0;left=0;right=0;bottom=0;" vertex="1" parent="xhAYmVNYJpzxV0qlQMDx-285">
          <mxGeometry y="120" width="290" height="30" as="geometry" />
        </mxCell>
        <mxCell id="xhAYmVNYJpzxV0qlQMDx-296" value="" style="shape=partialRectangle;overflow=hidden;connectable=0;fillColor=#dae8fc;strokeColor=#6c8ebf;top=0;left=0;bottom=0;right=0;" vertex="1" parent="xhAYmVNYJpzxV0qlQMDx-295">
          <mxGeometry width="30" height="30" as="geometry">
            <mxRectangle width="30" height="30" as="alternateBounds" />
          </mxGeometry>
        </mxCell>
        <mxCell id="xhAYmVNYJpzxV0qlQMDx-297" value="object_repr varchar(200) NOT NULL" style="shape=partialRectangle;overflow=hidden;connectable=0;fillColor=#dae8fc;align=left;strokeColor=#6c8ebf;top=0;left=0;bottom=0;right=0;spacingLeft=6;fontStyle=1" vertex="1" parent="xhAYmVNYJpzxV0qlQMDx-295">
          <mxGeometry x="30" width="260" height="30" as="geometry">
            <mxRectangle width="260" height="30" as="alternateBounds" />
          </mxGeometry>
        </mxCell>
        <mxCell id="xhAYmVNYJpzxV0qlQMDx-298" value="" style="shape=tableRow;horizontal=0;startSize=0;swimlaneHead=0;swimlaneBody=0;fillColor=none;collapsible=0;dropTarget=0;points=[[0,0.5],[1,0.5]];portConstraint=eastwest;strokeColor=inherit;top=0;left=0;right=0;bottom=0;" vertex="1" parent="xhAYmVNYJpzxV0qlQMDx-285">
          <mxGeometry y="150" width="290" height="30" as="geometry" />
        </mxCell>
        <mxCell id="xhAYmVNYJpzxV0qlQMDx-299" value="" style="shape=partialRectangle;overflow=hidden;connectable=0;fillColor=#dae8fc;strokeColor=#6c8ebf;top=0;left=0;bottom=0;right=0;" vertex="1" parent="xhAYmVNYJpzxV0qlQMDx-298">
          <mxGeometry width="30" height="30" as="geometry">
            <mxRectangle width="30" height="30" as="alternateBounds" />
          </mxGeometry>
        </mxCell>
        <mxCell id="xhAYmVNYJpzxV0qlQMDx-300" value="action_flag smallint unsigned NOT NULL" style="shape=partialRectangle;overflow=hidden;connectable=0;fillColor=#dae8fc;align=left;strokeColor=#6c8ebf;top=0;left=0;bottom=0;right=0;spacingLeft=6;fontStyle=1" vertex="1" parent="xhAYmVNYJpzxV0qlQMDx-298">
          <mxGeometry x="30" width="260" height="30" as="geometry">
            <mxRectangle width="260" height="30" as="alternateBounds" />
          </mxGeometry>
        </mxCell>
        <mxCell id="xhAYmVNYJpzxV0qlQMDx-301" value="" style="shape=tableRow;horizontal=0;startSize=0;swimlaneHead=0;swimlaneBody=0;fillColor=none;collapsible=0;dropTarget=0;points=[[0,0.5],[1,0.5]];portConstraint=eastwest;strokeColor=inherit;top=0;left=0;right=0;bottom=0;" vertex="1" parent="xhAYmVNYJpzxV0qlQMDx-285">
          <mxGeometry y="180" width="290" height="30" as="geometry" />
        </mxCell>
        <mxCell id="xhAYmVNYJpzxV0qlQMDx-302" value="" style="shape=partialRectangle;overflow=hidden;connectable=0;fillColor=#dae8fc;strokeColor=#6c8ebf;top=0;left=0;bottom=0;right=0;" vertex="1" parent="xhAYmVNYJpzxV0qlQMDx-301">
          <mxGeometry width="30" height="30" as="geometry">
            <mxRectangle width="30" height="30" as="alternateBounds" />
          </mxGeometry>
        </mxCell>
        <mxCell id="xhAYmVNYJpzxV0qlQMDx-303" value="change_message longtext NOT NULL" style="shape=partialRectangle;overflow=hidden;connectable=0;fillColor=#dae8fc;align=left;strokeColor=#6c8ebf;top=0;left=0;bottom=0;right=0;spacingLeft=6;fontStyle=1" vertex="1" parent="xhAYmVNYJpzxV0qlQMDx-301">
          <mxGeometry x="30" width="260" height="30" as="geometry">
            <mxRectangle width="260" height="30" as="alternateBounds" />
          </mxGeometry>
        </mxCell>
        <mxCell id="xhAYmVNYJpzxV0qlQMDx-304" value="" style="shape=tableRow;horizontal=0;startSize=0;swimlaneHead=0;swimlaneBody=0;fillColor=none;collapsible=0;dropTarget=0;points=[[0,0.5],[1,0.5]];portConstraint=eastwest;strokeColor=inherit;top=0;left=0;right=0;bottom=0;" vertex="1" parent="xhAYmVNYJpzxV0qlQMDx-285">
          <mxGeometry y="210" width="290" height="30" as="geometry" />
        </mxCell>
        <mxCell id="xhAYmVNYJpzxV0qlQMDx-305" value="FK" style="shape=partialRectangle;overflow=hidden;connectable=0;fillColor=#dae8fc;strokeColor=#6c8ebf;top=0;left=0;bottom=0;right=0;fontStyle=1" vertex="1" parent="xhAYmVNYJpzxV0qlQMDx-304">
          <mxGeometry width="30" height="30" as="geometry">
            <mxRectangle width="30" height="30" as="alternateBounds" />
          </mxGeometry>
        </mxCell>
        <mxCell id="xhAYmVNYJpzxV0qlQMDx-306" value="content_type_id int DEFAULT NULL" style="shape=partialRectangle;overflow=hidden;connectable=0;fillColor=#dae8fc;align=left;strokeColor=#6c8ebf;top=0;left=0;bottom=0;right=0;spacingLeft=6;fontStyle=1" vertex="1" parent="xhAYmVNYJpzxV0qlQMDx-304">
          <mxGeometry x="30" width="260" height="30" as="geometry">
            <mxRectangle width="260" height="30" as="alternateBounds" />
          </mxGeometry>
        </mxCell>
        <mxCell id="xhAYmVNYJpzxV0qlQMDx-307" value="" style="shape=tableRow;horizontal=0;startSize=0;swimlaneHead=0;swimlaneBody=0;fillColor=none;collapsible=0;dropTarget=0;points=[[0,0.5],[1,0.5]];portConstraint=eastwest;strokeColor=inherit;top=0;left=0;right=0;bottom=0;" vertex="1" parent="xhAYmVNYJpzxV0qlQMDx-285">
          <mxGeometry y="240" width="290" height="30" as="geometry" />
        </mxCell>
        <mxCell id="xhAYmVNYJpzxV0qlQMDx-308" value="FK" style="shape=partialRectangle;overflow=hidden;connectable=0;fillColor=#dae8fc;strokeColor=#6c8ebf;top=0;left=0;bottom=0;right=0;fontStyle=1" vertex="1" parent="xhAYmVNYJpzxV0qlQMDx-307">
          <mxGeometry width="30" height="30" as="geometry">
            <mxRectangle width="30" height="30" as="alternateBounds" />
          </mxGeometry>
        </mxCell>
        <mxCell id="xhAYmVNYJpzxV0qlQMDx-309" value="user_id int NOT NULL" style="shape=partialRectangle;overflow=hidden;connectable=0;fillColor=#dae8fc;align=left;strokeColor=#6c8ebf;top=0;left=0;bottom=0;right=0;spacingLeft=6;fontStyle=1" vertex="1" parent="xhAYmVNYJpzxV0qlQMDx-307">
          <mxGeometry x="30" width="260" height="30" as="geometry">
            <mxRectangle width="260" height="30" as="alternateBounds" />
          </mxGeometry>
        </mxCell>
        <mxCell id="xhAYmVNYJpzxV0qlQMDx-310" value="" style="shape=tableRow;horizontal=0;startSize=0;swimlaneHead=0;swimlaneBody=0;fillColor=none;collapsible=0;dropTarget=0;points=[[0,0.5],[1,0.5]];portConstraint=eastwest;strokeColor=inherit;top=0;left=0;right=0;bottom=0;" vertex="1" parent="xhAYmVNYJpzxV0qlQMDx-285">
          <mxGeometry y="270" width="290" height="30" as="geometry" />
        </mxCell>
        <mxCell id="xhAYmVNYJpzxV0qlQMDx-311" value="" style="shape=partialRectangle;overflow=hidden;connectable=0;fillColor=#dae8fc;strokeColor=#6c8ebf;top=0;left=0;bottom=0;right=0;" vertex="1" parent="xhAYmVNYJpzxV0qlQMDx-310">
          <mxGeometry width="30" height="30" as="geometry">
            <mxRectangle width="30" height="30" as="alternateBounds" />
          </mxGeometry>
        </mxCell>
        <mxCell id="xhAYmVNYJpzxV0qlQMDx-312" value="" style="shape=partialRectangle;overflow=hidden;connectable=0;fillColor=#dae8fc;align=left;strokeColor=#6c8ebf;top=0;left=0;bottom=0;right=0;spacingLeft=6;" vertex="1" parent="xhAYmVNYJpzxV0qlQMDx-310">
          <mxGeometry x="30" width="260" height="30" as="geometry">
            <mxRectangle width="260" height="30" as="alternateBounds" />
          </mxGeometry>
        </mxCell>
        <mxCell id="xhAYmVNYJpzxV0qlQMDx-313" value="" style="shape=tableRow;horizontal=0;startSize=0;swimlaneHead=0;swimlaneBody=0;fillColor=none;collapsible=0;dropTarget=0;points=[[0,0.5],[1,0.5]];portConstraint=eastwest;strokeColor=inherit;top=0;left=0;right=0;bottom=0;" vertex="1" parent="xhAYmVNYJpzxV0qlQMDx-285">
          <mxGeometry y="300" width="290" height="30" as="geometry" />
        </mxCell>
        <mxCell id="xhAYmVNYJpzxV0qlQMDx-314" value="" style="shape=partialRectangle;overflow=hidden;connectable=0;fillColor=#dae8fc;strokeColor=#6c8ebf;top=0;left=0;bottom=0;right=0;" vertex="1" parent="xhAYmVNYJpzxV0qlQMDx-313">
          <mxGeometry width="30" height="30" as="geometry">
            <mxRectangle width="30" height="30" as="alternateBounds" />
          </mxGeometry>
        </mxCell>
        <mxCell id="xhAYmVNYJpzxV0qlQMDx-315" value="" style="shape=partialRectangle;overflow=hidden;connectable=0;fillColor=#dae8fc;align=left;strokeColor=#6c8ebf;top=0;left=0;bottom=0;right=0;spacingLeft=6;" vertex="1" parent="xhAYmVNYJpzxV0qlQMDx-313">
          <mxGeometry x="30" width="260" height="30" as="geometry">
            <mxRectangle width="260" height="30" as="alternateBounds" />
          </mxGeometry>
        </mxCell>
        <mxCell id="xhAYmVNYJpzxV0qlQMDx-316" value="" style="shape=tableRow;horizontal=0;startSize=0;swimlaneHead=0;swimlaneBody=0;fillColor=none;collapsible=0;dropTarget=0;points=[[0,0.5],[1,0.5]];portConstraint=eastwest;strokeColor=inherit;top=0;left=0;right=0;bottom=0;" vertex="1" parent="xhAYmVNYJpzxV0qlQMDx-285">
          <mxGeometry y="330" width="290" height="30" as="geometry" />
        </mxCell>
        <mxCell id="xhAYmVNYJpzxV0qlQMDx-317" value="" style="shape=partialRectangle;overflow=hidden;connectable=0;fillColor=#dae8fc;strokeColor=#6c8ebf;top=0;left=0;bottom=0;right=0;" vertex="1" parent="xhAYmVNYJpzxV0qlQMDx-316">
          <mxGeometry width="30" height="30" as="geometry">
            <mxRectangle width="30" height="30" as="alternateBounds" />
          </mxGeometry>
        </mxCell>
        <mxCell id="xhAYmVNYJpzxV0qlQMDx-318" value="" style="shape=partialRectangle;overflow=hidden;connectable=0;fillColor=#dae8fc;align=left;strokeColor=#6c8ebf;top=0;left=0;bottom=0;right=0;spacingLeft=6;" vertex="1" parent="xhAYmVNYJpzxV0qlQMDx-316">
          <mxGeometry x="30" width="260" height="30" as="geometry">
            <mxRectangle width="260" height="30" as="alternateBounds" />
          </mxGeometry>
        </mxCell>
        <mxCell id="xhAYmVNYJpzxV0qlQMDx-319" value="" style="shape=tableRow;horizontal=0;startSize=0;swimlaneHead=0;swimlaneBody=0;fillColor=none;collapsible=0;dropTarget=0;points=[[0,0.5],[1,0.5]];portConstraint=eastwest;strokeColor=inherit;top=0;left=0;right=0;bottom=0;" vertex="1" parent="xhAYmVNYJpzxV0qlQMDx-285">
          <mxGeometry y="360" width="290" height="30" as="geometry" />
        </mxCell>
        <mxCell id="xhAYmVNYJpzxV0qlQMDx-320" value="" style="shape=partialRectangle;overflow=hidden;connectable=0;fillColor=#dae8fc;strokeColor=#6c8ebf;top=0;left=0;bottom=0;right=0;" vertex="1" parent="xhAYmVNYJpzxV0qlQMDx-319">
          <mxGeometry width="30" height="30" as="geometry">
            <mxRectangle width="30" height="30" as="alternateBounds" />
          </mxGeometry>
        </mxCell>
        <mxCell id="xhAYmVNYJpzxV0qlQMDx-321" value="" style="shape=partialRectangle;overflow=hidden;connectable=0;fillColor=#dae8fc;align=left;strokeColor=#6c8ebf;top=0;left=0;bottom=0;right=0;spacingLeft=6;" vertex="1" parent="xhAYmVNYJpzxV0qlQMDx-319">
          <mxGeometry x="30" width="260" height="30" as="geometry">
            <mxRectangle width="260" height="30" as="alternateBounds" />
          </mxGeometry>
        </mxCell>
        <mxCell id="xhAYmVNYJpzxV0qlQMDx-322" value="" style="shape=tableRow;horizontal=0;startSize=0;swimlaneHead=0;swimlaneBody=0;fillColor=none;collapsible=0;dropTarget=0;points=[[0,0.5],[1,0.5]];portConstraint=eastwest;strokeColor=inherit;top=0;left=0;right=0;bottom=0;" vertex="1" parent="xhAYmVNYJpzxV0qlQMDx-285">
          <mxGeometry y="390" width="290" height="30" as="geometry" />
        </mxCell>
        <mxCell id="xhAYmVNYJpzxV0qlQMDx-323" value="" style="shape=partialRectangle;overflow=hidden;connectable=0;fillColor=#dae8fc;strokeColor=#6c8ebf;top=0;left=0;bottom=0;right=0;" vertex="1" parent="xhAYmVNYJpzxV0qlQMDx-322">
          <mxGeometry width="30" height="30" as="geometry">
            <mxRectangle width="30" height="30" as="alternateBounds" />
          </mxGeometry>
        </mxCell>
        <mxCell id="xhAYmVNYJpzxV0qlQMDx-324" value="" style="shape=partialRectangle;overflow=hidden;connectable=0;fillColor=#dae8fc;align=left;strokeColor=#6c8ebf;top=0;left=0;bottom=0;right=0;spacingLeft=6;" vertex="1" parent="xhAYmVNYJpzxV0qlQMDx-322">
          <mxGeometry x="30" width="260" height="30" as="geometry">
            <mxRectangle width="260" height="30" as="alternateBounds" />
          </mxGeometry>
        </mxCell>
        <mxCell id="xhAYmVNYJpzxV0qlQMDx-325" value="django_content_type" style="shape=table;startSize=30;container=1;collapsible=1;childLayout=tableLayout;fixedRows=1;rowLines=0;fontStyle=1;align=center;resizeLast=1;fillColor=#d5e8d4;strokeColor=#82b366;" vertex="1" parent="1">
          <mxGeometry x="-1010" y="940" width="290" height="150" as="geometry" />
        </mxCell>
        <mxCell id="xhAYmVNYJpzxV0qlQMDx-326" value="" style="shape=tableRow;horizontal=0;startSize=0;swimlaneHead=0;swimlaneBody=0;fillColor=none;collapsible=0;dropTarget=0;points=[[0,0.5],[1,0.5]];portConstraint=eastwest;strokeColor=inherit;top=0;left=0;right=0;bottom=1;" vertex="1" parent="xhAYmVNYJpzxV0qlQMDx-325">
          <mxGeometry y="30" width="290" height="30" as="geometry" />
        </mxCell>
        <mxCell id="xhAYmVNYJpzxV0qlQMDx-327" value="PK" style="shape=partialRectangle;overflow=hidden;connectable=0;fillColor=#fff2cc;strokeColor=#d6b656;top=0;left=0;bottom=0;right=0;fontStyle=1;" vertex="1" parent="xhAYmVNYJpzxV0qlQMDx-326">
          <mxGeometry width="30" height="30" as="geometry">
            <mxRectangle width="30" height="30" as="alternateBounds" />
          </mxGeometry>
        </mxCell>
        <mxCell id="xhAYmVNYJpzxV0qlQMDx-328" value="id int NOT NULL AUTO_INCREMENT" style="shape=partialRectangle;overflow=hidden;connectable=0;fillColor=#fff2cc;align=left;strokeColor=#d6b656;top=0;left=0;bottom=0;right=0;spacingLeft=6;fontStyle=1;" vertex="1" parent="xhAYmVNYJpzxV0qlQMDx-326">
          <mxGeometry x="30" width="260" height="30" as="geometry">
            <mxRectangle width="260" height="30" as="alternateBounds" />
          </mxGeometry>
        </mxCell>
        <mxCell id="xhAYmVNYJpzxV0qlQMDx-329" value="" style="shape=tableRow;horizontal=0;startSize=0;swimlaneHead=0;swimlaneBody=0;fillColor=none;collapsible=0;dropTarget=0;points=[[0,0.5],[1,0.5]];portConstraint=eastwest;strokeColor=inherit;top=0;left=0;right=0;bottom=0;" vertex="1" parent="xhAYmVNYJpzxV0qlQMDx-325">
          <mxGeometry y="60" width="290" height="30" as="geometry" />
        </mxCell>
        <mxCell id="xhAYmVNYJpzxV0qlQMDx-330" value="" style="shape=partialRectangle;overflow=hidden;connectable=0;fillColor=#dae8fc;strokeColor=#6c8ebf;top=0;left=0;bottom=0;right=0;" vertex="1" parent="xhAYmVNYJpzxV0qlQMDx-329">
          <mxGeometry width="30" height="30" as="geometry">
            <mxRectangle width="30" height="30" as="alternateBounds" />
          </mxGeometry>
        </mxCell>
        <mxCell id="xhAYmVNYJpzxV0qlQMDx-331" value="app_label varchar(100) NOT NULL" style="shape=partialRectangle;overflow=hidden;connectable=0;fillColor=#dae8fc;align=left;strokeColor=#6c8ebf;top=0;left=0;bottom=0;right=0;spacingLeft=6;fontStyle=1" vertex="1" parent="xhAYmVNYJpzxV0qlQMDx-329">
          <mxGeometry x="30" width="260" height="30" as="geometry">
            <mxRectangle width="260" height="30" as="alternateBounds" />
          </mxGeometry>
        </mxCell>
        <mxCell id="xhAYmVNYJpzxV0qlQMDx-332" value="" style="shape=tableRow;horizontal=0;startSize=0;swimlaneHead=0;swimlaneBody=0;fillColor=none;collapsible=0;dropTarget=0;points=[[0,0.5],[1,0.5]];portConstraint=eastwest;strokeColor=inherit;top=0;left=0;right=0;bottom=0;" vertex="1" parent="xhAYmVNYJpzxV0qlQMDx-325">
          <mxGeometry y="90" width="290" height="30" as="geometry" />
        </mxCell>
        <mxCell id="xhAYmVNYJpzxV0qlQMDx-333" value="" style="shape=partialRectangle;overflow=hidden;connectable=0;fillColor=#dae8fc;strokeColor=#6c8ebf;top=0;left=0;bottom=0;right=0;" vertex="1" parent="xhAYmVNYJpzxV0qlQMDx-332">
          <mxGeometry width="30" height="30" as="geometry">
            <mxRectangle width="30" height="30" as="alternateBounds" />
          </mxGeometry>
        </mxCell>
        <mxCell id="xhAYmVNYJpzxV0qlQMDx-334" value="model varchar(100) NOT NULL" style="shape=partialRectangle;overflow=hidden;connectable=0;fillColor=#dae8fc;align=left;strokeColor=#6c8ebf;top=0;left=0;bottom=0;right=0;spacingLeft=6;fontStyle=1" vertex="1" parent="xhAYmVNYJpzxV0qlQMDx-332">
          <mxGeometry x="30" width="260" height="30" as="geometry">
            <mxRectangle width="260" height="30" as="alternateBounds" />
          </mxGeometry>
        </mxCell>
        <mxCell id="xhAYmVNYJpzxV0qlQMDx-335" value="" style="shape=tableRow;horizontal=0;startSize=0;swimlaneHead=0;swimlaneBody=0;fillColor=none;collapsible=0;dropTarget=0;points=[[0,0.5],[1,0.5]];portConstraint=eastwest;strokeColor=inherit;top=0;left=0;right=0;bottom=0;" vertex="1" parent="xhAYmVNYJpzxV0qlQMDx-325">
          <mxGeometry y="120" width="290" height="30" as="geometry" />
        </mxCell>
        <mxCell id="xhAYmVNYJpzxV0qlQMDx-336" value="" style="shape=partialRectangle;overflow=hidden;connectable=0;fillColor=#dae8fc;strokeColor=#6c8ebf;top=0;left=0;bottom=0;right=0;" vertex="1" parent="xhAYmVNYJpzxV0qlQMDx-335">
          <mxGeometry width="30" height="30" as="geometry">
            <mxRectangle width="30" height="30" as="alternateBounds" />
          </mxGeometry>
        </mxCell>
        <mxCell id="xhAYmVNYJpzxV0qlQMDx-337" value="" style="shape=partialRectangle;overflow=hidden;connectable=0;fillColor=#dae8fc;align=left;strokeColor=#6c8ebf;top=0;left=0;bottom=0;right=0;spacingLeft=6;" vertex="1" parent="xhAYmVNYJpzxV0qlQMDx-335">
          <mxGeometry x="30" width="260" height="30" as="geometry">
            <mxRectangle width="260" height="30" as="alternateBounds" />
          </mxGeometry>
        </mxCell>
        <mxCell id="xhAYmVNYJpzxV0qlQMDx-338" value="django_migrations" style="shape=table;startSize=30;container=1;collapsible=1;childLayout=tableLayout;fixedRows=1;rowLines=0;fontStyle=1;align=center;resizeLast=1;fillColor=#d5e8d4;strokeColor=#82b366;" vertex="1" parent="1">
          <mxGeometry x="-1005" y="1175" width="270" height="150" as="geometry" />
        </mxCell>
        <mxCell id="xhAYmVNYJpzxV0qlQMDx-339" value="" style="shape=tableRow;horizontal=0;startSize=0;swimlaneHead=0;swimlaneBody=0;fillColor=none;collapsible=0;dropTarget=0;points=[[0,0.5],[1,0.5]];portConstraint=eastwest;strokeColor=inherit;top=0;left=0;right=0;bottom=1;" vertex="1" parent="xhAYmVNYJpzxV0qlQMDx-338">
          <mxGeometry y="30" width="270" height="30" as="geometry" />
        </mxCell>
        <mxCell id="xhAYmVNYJpzxV0qlQMDx-340" value="PK" style="shape=partialRectangle;overflow=hidden;connectable=0;fillColor=#fff2cc;strokeColor=#d6b656;top=0;left=0;bottom=0;right=0;fontStyle=1;" vertex="1" parent="xhAYmVNYJpzxV0qlQMDx-339">
          <mxGeometry width="30" height="30" as="geometry">
            <mxRectangle width="30" height="30" as="alternateBounds" />
          </mxGeometry>
        </mxCell>
        <mxCell id="xhAYmVNYJpzxV0qlQMDx-341" value="id bigint NOT NULL AUTO_INCREMENT" style="shape=partialRectangle;overflow=hidden;connectable=0;fillColor=#fff2cc;align=left;strokeColor=#d6b656;top=0;left=0;bottom=0;right=0;spacingLeft=6;fontStyle=1;" vertex="1" parent="xhAYmVNYJpzxV0qlQMDx-339">
          <mxGeometry x="30" width="240" height="30" as="geometry">
            <mxRectangle width="240" height="30" as="alternateBounds" />
          </mxGeometry>
        </mxCell>
        <mxCell id="xhAYmVNYJpzxV0qlQMDx-342" value="" style="shape=tableRow;horizontal=0;startSize=0;swimlaneHead=0;swimlaneBody=0;fillColor=none;collapsible=0;dropTarget=0;points=[[0,0.5],[1,0.5]];portConstraint=eastwest;strokeColor=inherit;top=0;left=0;right=0;bottom=0;" vertex="1" parent="xhAYmVNYJpzxV0qlQMDx-338">
          <mxGeometry y="60" width="270" height="30" as="geometry" />
        </mxCell>
        <mxCell id="xhAYmVNYJpzxV0qlQMDx-343" value="" style="shape=partialRectangle;overflow=hidden;connectable=0;fillColor=#dae8fc;strokeColor=#6c8ebf;top=0;left=0;bottom=0;right=0;" vertex="1" parent="xhAYmVNYJpzxV0qlQMDx-342">
          <mxGeometry width="30" height="30" as="geometry">
            <mxRectangle width="30" height="30" as="alternateBounds" />
          </mxGeometry>
        </mxCell>
        <mxCell id="xhAYmVNYJpzxV0qlQMDx-344" value="app varchar(255) NOT NULL" style="shape=partialRectangle;overflow=hidden;connectable=0;fillColor=#dae8fc;align=left;strokeColor=#6c8ebf;top=0;left=0;bottom=0;right=0;spacingLeft=6;fontStyle=1" vertex="1" parent="xhAYmVNYJpzxV0qlQMDx-342">
          <mxGeometry x="30" width="240" height="30" as="geometry">
            <mxRectangle width="240" height="30" as="alternateBounds" />
          </mxGeometry>
        </mxCell>
        <mxCell id="xhAYmVNYJpzxV0qlQMDx-345" value="" style="shape=tableRow;horizontal=0;startSize=0;swimlaneHead=0;swimlaneBody=0;fillColor=none;collapsible=0;dropTarget=0;points=[[0,0.5],[1,0.5]];portConstraint=eastwest;strokeColor=inherit;top=0;left=0;right=0;bottom=0;" vertex="1" parent="xhAYmVNYJpzxV0qlQMDx-338">
          <mxGeometry y="90" width="270" height="30" as="geometry" />
        </mxCell>
        <mxCell id="xhAYmVNYJpzxV0qlQMDx-346" value="" style="shape=partialRectangle;overflow=hidden;connectable=0;fillColor=#dae8fc;strokeColor=#6c8ebf;top=0;left=0;bottom=0;right=0;" vertex="1" parent="xhAYmVNYJpzxV0qlQMDx-345">
          <mxGeometry width="30" height="30" as="geometry">
            <mxRectangle width="30" height="30" as="alternateBounds" />
          </mxGeometry>
        </mxCell>
        <mxCell id="xhAYmVNYJpzxV0qlQMDx-347" value="name varchar(255) NOT NULL" style="shape=partialRectangle;overflow=hidden;connectable=0;fillColor=#dae8fc;align=left;strokeColor=#6c8ebf;top=0;left=0;bottom=0;right=0;spacingLeft=6;fontStyle=1" vertex="1" parent="xhAYmVNYJpzxV0qlQMDx-345">
          <mxGeometry x="30" width="240" height="30" as="geometry">
            <mxRectangle width="240" height="30" as="alternateBounds" />
          </mxGeometry>
        </mxCell>
        <mxCell id="xhAYmVNYJpzxV0qlQMDx-348" value="" style="shape=tableRow;horizontal=0;startSize=0;swimlaneHead=0;swimlaneBody=0;fillColor=none;collapsible=0;dropTarget=0;points=[[0,0.5],[1,0.5]];portConstraint=eastwest;strokeColor=inherit;top=0;left=0;right=0;bottom=0;" vertex="1" parent="xhAYmVNYJpzxV0qlQMDx-338">
          <mxGeometry y="120" width="270" height="30" as="geometry" />
        </mxCell>
        <mxCell id="xhAYmVNYJpzxV0qlQMDx-349" value="" style="shape=partialRectangle;overflow=hidden;connectable=0;fillColor=#dae8fc;strokeColor=#6c8ebf;top=0;left=0;bottom=0;right=0;" vertex="1" parent="xhAYmVNYJpzxV0qlQMDx-348">
          <mxGeometry width="30" height="30" as="geometry">
            <mxRectangle width="30" height="30" as="alternateBounds" />
          </mxGeometry>
        </mxCell>
        <mxCell id="xhAYmVNYJpzxV0qlQMDx-350" value="applied datetime(6) NOT NULL" style="shape=partialRectangle;overflow=hidden;connectable=0;fillColor=#dae8fc;align=left;strokeColor=#6c8ebf;top=0;left=0;bottom=0;right=0;spacingLeft=6;fontStyle=1" vertex="1" parent="xhAYmVNYJpzxV0qlQMDx-348">
          <mxGeometry x="30" width="240" height="30" as="geometry">
            <mxRectangle width="240" height="30" as="alternateBounds" />
          </mxGeometry>
        </mxCell>
        <mxCell id="xhAYmVNYJpzxV0qlQMDx-351" value="django_session" style="shape=table;startSize=30;container=1;collapsible=1;childLayout=tableLayout;fixedRows=1;rowLines=0;fontStyle=1;align=center;resizeLast=1;fillColor=#d5e8d4;strokeColor=#82b366;" vertex="1" parent="1">
          <mxGeometry x="-1770" y="1250" width="270" height="150" as="geometry" />
        </mxCell>
        <mxCell id="xhAYmVNYJpzxV0qlQMDx-352" value="" style="shape=tableRow;horizontal=0;startSize=0;swimlaneHead=0;swimlaneBody=0;fillColor=none;collapsible=0;dropTarget=0;points=[[0,0.5],[1,0.5]];portConstraint=eastwest;strokeColor=inherit;top=0;left=0;right=0;bottom=1;" vertex="1" parent="xhAYmVNYJpzxV0qlQMDx-351">
          <mxGeometry y="30" width="270" height="30" as="geometry" />
        </mxCell>
        <mxCell id="xhAYmVNYJpzxV0qlQMDx-353" value="PK" style="shape=partialRectangle;overflow=hidden;connectable=0;fillColor=#fff2cc;strokeColor=#d6b656;top=0;left=0;bottom=0;right=0;fontStyle=1;" vertex="1" parent="xhAYmVNYJpzxV0qlQMDx-352">
          <mxGeometry width="30" height="30" as="geometry">
            <mxRectangle width="30" height="30" as="alternateBounds" />
          </mxGeometry>
        </mxCell>
        <mxCell id="xhAYmVNYJpzxV0qlQMDx-354" value="session_key varchar(40) NOT NULL" style="shape=partialRectangle;overflow=hidden;connectable=0;fillColor=#fff2cc;align=left;strokeColor=#d6b656;top=0;left=0;bottom=0;right=0;spacingLeft=6;fontStyle=1;" vertex="1" parent="xhAYmVNYJpzxV0qlQMDx-352">
          <mxGeometry x="30" width="240" height="30" as="geometry">
            <mxRectangle width="240" height="30" as="alternateBounds" />
          </mxGeometry>
        </mxCell>
        <mxCell id="xhAYmVNYJpzxV0qlQMDx-355" value="" style="shape=tableRow;horizontal=0;startSize=0;swimlaneHead=0;swimlaneBody=0;fillColor=none;collapsible=0;dropTarget=0;points=[[0,0.5],[1,0.5]];portConstraint=eastwest;strokeColor=inherit;top=0;left=0;right=0;bottom=0;" vertex="1" parent="xhAYmVNYJpzxV0qlQMDx-351">
          <mxGeometry y="60" width="270" height="30" as="geometry" />
        </mxCell>
        <mxCell id="xhAYmVNYJpzxV0qlQMDx-356" value="" style="shape=partialRectangle;overflow=hidden;connectable=0;fillColor=#dae8fc;strokeColor=#6c8ebf;top=0;left=0;bottom=0;right=0;" vertex="1" parent="xhAYmVNYJpzxV0qlQMDx-355">
          <mxGeometry width="30" height="30" as="geometry">
            <mxRectangle width="30" height="30" as="alternateBounds" />
          </mxGeometry>
        </mxCell>
        <mxCell id="xhAYmVNYJpzxV0qlQMDx-357" value="session_data longtext NOT NULL" style="shape=partialRectangle;overflow=hidden;connectable=0;fillColor=#dae8fc;align=left;strokeColor=#6c8ebf;top=0;left=0;bottom=0;right=0;spacingLeft=6;fontStyle=1" vertex="1" parent="xhAYmVNYJpzxV0qlQMDx-355">
          <mxGeometry x="30" width="240" height="30" as="geometry">
            <mxRectangle width="240" height="30" as="alternateBounds" />
          </mxGeometry>
        </mxCell>
        <mxCell id="xhAYmVNYJpzxV0qlQMDx-358" value="" style="shape=tableRow;horizontal=0;startSize=0;swimlaneHead=0;swimlaneBody=0;fillColor=none;collapsible=0;dropTarget=0;points=[[0,0.5],[1,0.5]];portConstraint=eastwest;strokeColor=inherit;top=0;left=0;right=0;bottom=0;" vertex="1" parent="xhAYmVNYJpzxV0qlQMDx-351">
          <mxGeometry y="90" width="270" height="30" as="geometry" />
        </mxCell>
        <mxCell id="xhAYmVNYJpzxV0qlQMDx-359" value="" style="shape=partialRectangle;overflow=hidden;connectable=0;fillColor=#dae8fc;strokeColor=#6c8ebf;top=0;left=0;bottom=0;right=0;" vertex="1" parent="xhAYmVNYJpzxV0qlQMDx-358">
          <mxGeometry width="30" height="30" as="geometry">
            <mxRectangle width="30" height="30" as="alternateBounds" />
          </mxGeometry>
        </mxCell>
        <mxCell id="xhAYmVNYJpzxV0qlQMDx-360" value="expire_date datetime(6) NOT NULL" style="shape=partialRectangle;overflow=hidden;connectable=0;fillColor=#dae8fc;align=left;strokeColor=#6c8ebf;top=0;left=0;bottom=0;right=0;spacingLeft=6;fontStyle=1" vertex="1" parent="xhAYmVNYJpzxV0qlQMDx-358">
          <mxGeometry x="30" width="240" height="30" as="geometry">
            <mxRectangle width="240" height="30" as="alternateBounds" />
          </mxGeometry>
        </mxCell>
        <mxCell id="xhAYmVNYJpzxV0qlQMDx-361" value="" style="shape=tableRow;horizontal=0;startSize=0;swimlaneHead=0;swimlaneBody=0;fillColor=none;collapsible=0;dropTarget=0;points=[[0,0.5],[1,0.5]];portConstraint=eastwest;strokeColor=inherit;top=0;left=0;right=0;bottom=0;" vertex="1" parent="xhAYmVNYJpzxV0qlQMDx-351">
          <mxGeometry y="120" width="270" height="30" as="geometry" />
        </mxCell>
        <mxCell id="xhAYmVNYJpzxV0qlQMDx-362" value="" style="shape=partialRectangle;overflow=hidden;connectable=0;fillColor=#dae8fc;strokeColor=#6c8ebf;top=0;left=0;bottom=0;right=0;" vertex="1" parent="xhAYmVNYJpzxV0qlQMDx-361">
          <mxGeometry width="30" height="30" as="geometry">
            <mxRectangle width="30" height="30" as="alternateBounds" />
          </mxGeometry>
        </mxCell>
        <mxCell id="xhAYmVNYJpzxV0qlQMDx-363" value="" style="shape=partialRectangle;overflow=hidden;connectable=0;fillColor=#dae8fc;align=left;strokeColor=#6c8ebf;top=0;left=0;bottom=0;right=0;spacingLeft=6;" vertex="1" parent="xhAYmVNYJpzxV0qlQMDx-361">
          <mxGeometry x="30" width="240" height="30" as="geometry">
            <mxRectangle width="240" height="30" as="alternateBounds" />
          </mxGeometry>
        </mxCell>
        <mxCell id="xhAYmVNYJpzxV0qlQMDx-365" value="" style="edgeStyle=entityRelationEdgeStyle;fontSize=12;html=1;endArrow=ERoneToMany;rounded=0;" edge="1" parent="1" source="xhAYmVNYJpzxV0qlQMDx-205" target="xhAYmVNYJpzxV0qlQMDx-54">
          <mxGeometry width="100" height="100" relative="1" as="geometry">
            <mxPoint x="-1320" y="670" as="sourcePoint" />
            <mxPoint x="-1220" y="570" as="targetPoint" />
          </mxGeometry>
        </mxCell>
        <mxCell id="xhAYmVNYJpzxV0qlQMDx-366" value="" style="edgeStyle=entityRelationEdgeStyle;fontSize=12;html=1;endArrow=ERoneToMany;rounded=0;exitX=0;exitY=0.5;exitDx=0;exitDy=0;" edge="1" parent="1" source="xhAYmVNYJpzxV0qlQMDx-205" target="xhAYmVNYJpzxV0qlQMDx-144">
          <mxGeometry width="100" height="100" relative="1" as="geometry">
            <mxPoint x="-1910" y="850" as="sourcePoint" />
            <mxPoint x="-1810" y="750" as="targetPoint" />
          </mxGeometry>
        </mxCell>
        <mxCell id="xhAYmVNYJpzxV0qlQMDx-367" value="" style="edgeStyle=entityRelationEdgeStyle;fontSize=12;html=1;endArrow=ERoneToMany;rounded=0;" edge="1" parent="1" source="xhAYmVNYJpzxV0qlQMDx-205" target="xhAYmVNYJpzxV0qlQMDx-110">
          <mxGeometry width="100" height="100" relative="1" as="geometry">
            <mxPoint x="-1910" y="840" as="sourcePoint" />
            <mxPoint x="-1810" y="740" as="targetPoint" />
          </mxGeometry>
        </mxCell>
        <mxCell id="xhAYmVNYJpzxV0qlQMDx-368" value="" style="edgeStyle=entityRelationEdgeStyle;fontSize=12;html=1;endArrow=ERoneToMany;rounded=0;exitX=1;exitY=0.5;exitDx=0;exitDy=0;" edge="1" parent="1" source="xhAYmVNYJpzxV0qlQMDx-205" target="xhAYmVNYJpzxV0qlQMDx-76">
          <mxGeometry width="100" height="100" relative="1" as="geometry">
            <mxPoint x="-1420" y="590" as="sourcePoint" />
            <mxPoint x="-1320" y="490" as="targetPoint" />
          </mxGeometry>
        </mxCell>
        <mxCell id="xhAYmVNYJpzxV0qlQMDx-369" value="" style="edgeStyle=entityRelationEdgeStyle;fontSize=12;html=1;endArrow=ERoneToMany;rounded=0;" edge="1" parent="1" source="xhAYmVNYJpzxV0qlQMDx-205" target="xhAYmVNYJpzxV0qlQMDx-245">
          <mxGeometry width="100" height="100" relative="1" as="geometry">
            <mxPoint x="-1360" y="830" as="sourcePoint" />
            <mxPoint x="-1260" y="730" as="targetPoint" />
          </mxGeometry>
        </mxCell>
        <mxCell id="xhAYmVNYJpzxV0qlQMDx-370" value="" style="edgeStyle=entityRelationEdgeStyle;fontSize=12;html=1;endArrow=ERoneToMany;rounded=0;exitX=1;exitY=0.5;exitDx=0;exitDy=0;" edge="1" parent="1" source="xhAYmVNYJpzxV0qlQMDx-205" target="xhAYmVNYJpzxV0qlQMDx-307">
          <mxGeometry width="100" height="100" relative="1" as="geometry">
            <mxPoint x="-1520" y="910" as="sourcePoint" />
            <mxPoint x="-1420" y="810" as="targetPoint" />
          </mxGeometry>
        </mxCell>
        <mxCell id="xhAYmVNYJpzxV0qlQMDx-371" value="" style="edgeStyle=entityRelationEdgeStyle;fontSize=12;html=1;endArrow=ERoneToMany;rounded=0;exitX=1;exitY=0.5;exitDx=0;exitDy=0;" edge="1" parent="1" source="xhAYmVNYJpzxV0qlQMDx-205" target="xhAYmVNYJpzxV0qlQMDx-267">
          <mxGeometry width="100" height="100" relative="1" as="geometry">
            <mxPoint x="-1260" y="990" as="sourcePoint" />
            <mxPoint x="-1160" y="890" as="targetPoint" />
            <Array as="points">
              <mxPoint x="-1260" y="990" />
            </Array>
          </mxGeometry>
        </mxCell>
        <mxCell id="xhAYmVNYJpzxV0qlQMDx-372" value="" style="edgeStyle=entityRelationEdgeStyle;fontSize=12;html=1;endArrow=ERmandOne;startArrow=ERmandOne;rounded=0;entryX=0.5;entryY=1;entryDx=0;entryDy=0;exitX=0.75;exitY=0;exitDx=0;exitDy=0;" edge="1" parent="1" source="xhAYmVNYJpzxV0qlQMDx-351" target="xhAYmVNYJpzxV0qlQMDx-204">
          <mxGeometry width="100" height="100" relative="1" as="geometry">
            <mxPoint x="-1100" y="710" as="sourcePoint" />
            <mxPoint x="-1000" y="610" as="targetPoint" />
            <Array as="points">
              <mxPoint x="-1620" y="1020" />
              <mxPoint x="-1040" y="660" />
            </Array>
          </mxGeometry>
        </mxCell>
        <mxCell id="xhAYmVNYJpzxV0qlQMDx-374" value="" style="edgeStyle=entityRelationEdgeStyle;fontSize=12;html=1;endArrow=ERoneToMany;rounded=0;entryX=1;entryY=0.5;entryDx=0;entryDy=0;exitX=0;exitY=0.5;exitDx=0;exitDy=0;" edge="1" parent="1" source="xhAYmVNYJpzxV0qlQMDx-154" target="xhAYmVNYJpzxV0qlQMDx-248">
          <mxGeometry width="100" height="100" relative="1" as="geometry">
            <mxPoint x="-620" y="730" as="sourcePoint" />
            <mxPoint x="-520" y="630" as="targetPoint" />
            <Array as="points">
              <mxPoint x="-670" y="290" />
            </Array>
          </mxGeometry>
        </mxCell>
        <mxCell id="xhAYmVNYJpzxV0qlQMDx-376" value="" style="edgeStyle=entityRelationEdgeStyle;fontSize=12;html=1;endArrow=ERoneToMany;rounded=0;entryX=1;entryY=0.5;entryDx=0;entryDy=0;" edge="1" parent="1" source="xhAYmVNYJpzxV0qlQMDx-186" target="xhAYmVNYJpzxV0qlQMDx-170">
          <mxGeometry width="100" height="100" relative="1" as="geometry">
            <mxPoint x="-620" y="800" as="sourcePoint" />
            <mxPoint x="-520" y="700" as="targetPoint" />
          </mxGeometry>
        </mxCell>
        <mxCell id="xhAYmVNYJpzxV0qlQMDx-377" value="" style="edgeStyle=entityRelationEdgeStyle;fontSize=12;html=1;endArrow=ERoneToMany;rounded=0;" edge="1" parent="1" source="xhAYmVNYJpzxV0qlQMDx-326" target="xhAYmVNYJpzxV0qlQMDx-192">
          <mxGeometry width="100" height="100" relative="1" as="geometry">
            <mxPoint x="-740" y="750" as="sourcePoint" />
            <mxPoint x="-640" y="650" as="targetPoint" />
          </mxGeometry>
        </mxCell>
        <mxCell id="xhAYmVNYJpzxV0qlQMDx-378" value="" style="edgeStyle=entityRelationEdgeStyle;fontSize=12;html=1;endArrow=ERoneToMany;rounded=0;entryX=1;entryY=0.5;entryDx=0;entryDy=0;" edge="1" parent="1" source="xhAYmVNYJpzxV0qlQMDx-154" target="xhAYmVNYJpzxV0qlQMDx-167">
          <mxGeometry width="100" height="100" relative="1" as="geometry">
            <mxPoint x="-740" y="710" as="sourcePoint" />
            <mxPoint x="-640" y="610" as="targetPoint" />
            <Array as="points">
              <mxPoint x="-670" y="730" />
              <mxPoint x="-630" y="750" />
            </Array>
          </mxGeometry>
        </mxCell>
        <mxCell id="xhAYmVNYJpzxV0qlQMDx-379" value="" style="edgeStyle=entityRelationEdgeStyle;fontSize=12;html=1;endArrow=ERoneToMany;rounded=0;" edge="1" parent="1" source="xhAYmVNYJpzxV0qlQMDx-186" target="xhAYmVNYJpzxV0qlQMDx-270">
          <mxGeometry width="100" height="100" relative="1" as="geometry">
            <mxPoint x="-680" y="770" as="sourcePoint" />
            <mxPoint x="-580" y="670" as="targetPoint" />
          </mxGeometry>
        </mxCell>
        <mxCell id="xhAYmVNYJpzxV0qlQMDx-380" value="" style="edgeStyle=entityRelationEdgeStyle;fontSize=12;html=1;endArrow=ERoneToMany;rounded=0;exitX=0;exitY=0.5;exitDx=0;exitDy=0;" edge="1" parent="1" source="xhAYmVNYJpzxV0qlQMDx-326" target="xhAYmVNYJpzxV0qlQMDx-304">
          <mxGeometry width="100" height="100" relative="1" as="geometry">
            <mxPoint x="-1160" y="820" as="sourcePoint" />
            <mxPoint x="-1060" y="720" as="targetPoint" />
          </mxGeometry>
        </mxCell>
        <mxCell id="xhAYmVNYJpzxV0qlQMDx-381" value="ASL Translation System EERD" style="text;html=1;align=center;verticalAlign=middle;whiteSpace=wrap;rounded=0;" vertex="1" parent="1">
          <mxGeometry x="-1710" y="50" width="470" height="30" as="geometry" />
        </mxCell>
        <mxCell id="xhAYmVNYJpzxV0qlQMDx-382" value="" style="edgeStyle=entityRelationEdgeStyle;fontSize=12;html=1;endArrow=ERmandOne;startArrow=ERmandOne;rounded=0;" edge="1" parent="1" source="xhAYmVNYJpzxV0qlQMDx-14" target="xhAYmVNYJpzxV0qlQMDx-205">
          <mxGeometry width="100" height="100" relative="1" as="geometry">
            <mxPoint x="-1420" y="700" as="sourcePoint" />
            <mxPoint x="-1320" y="600" as="targetPoint" />
          </mxGeometry>
        </mxCell>
      </root>
    </mxGraphModel>
  </diagram>
</mxfile>
